<?xml version="1.0" encoding="UTF-8"?><svg xmlns="http://www.w3.org/2000/svg" xmlns:xlink="http://www.w3.org/1999/xlink" viewBox="0 0 325.16 455.08"><defs><style>.e{fill:url(#d);}.f{opacity:.65;}.f,.g{mix-blend-mode:overlay;}.h,.g{fill:#001d3d;}.i{fill:#f4f4f4;}.j{fill:#fec89a;}.k{isolation:isolate;}</style><linearGradient id="d" x1="163.39" y1="451.77" x2="163.39" y2="126.59" gradientTransform="matrix(1, 0, 0, 1, 0, 0)" gradientUnits="userSpaceOnUse"><stop offset="0" stop-color="#1a67b3"/><stop offset=".2" stop-color="#1762ac"/><stop offset=".48" stop-color="#11569a"/><stop offset=".8" stop-color="#07437c"/><stop offset="1" stop-color="#003566"/></linearGradient></defs><g class="k"><g id="a"/><g id="b"><g id="c"><g><g><path class="j" d="M5.05,133.69l-2.46,27.47,1.97,18.09,29.59,25.17s86.56,33.53,157.19,14.84c70.62-18.69,113.22-73.65,113.22-73.65l15.53-20.48-5.46-19.91-168.36,32.7L5.05,133.69Z"/><path class="e" d="M168.04,446.98l78.19-114,41.06-67.93,20.78-37.51,11.19-38.41,2.97-33.23-3.1-29.31s-56.42,86.09-156.54,94.57C65.58,229.37,4.56,179.25,4.56,179.25c0,0,12.34,63.27,59.15,129.34,46.82,66.07,83.93,126.01,83.93,126.01l14.89,17.16,5.5-4.79Z"/><path class="i" d="M4.73,148.61s194.25,20.88,312.87-39.81l-12.06-21.3S261.12-2.7,155.38,3.18C38.92,9.66,10.48,111.97,10.48,111.97c0,0-7.11,14.74-5.74,36.64Z"/><path class="g" d="M188.03,220.99s18.17-39.46,1.9-75.92l-21.04,2.95,11.35,15.9s14.77,31.29,7.78,57.08Z"/><g class="f"><path class="h" d="M192.79,218.83c-4.84,18.92-17.67,34.61-31.45,47.9-1.94,1.83-3.94,3.6-5.89,5.39,1.56-2.16,3.14-4.28,4.66-6.44,4.41-6.41,8.58-13.28,11.93-20.29,4.3-9.15,7.52-18.56,7.92-28.65l12.83,2.11h0Z"/></g><path class="g" d="M155.33,6.09s108.17,12.09,124.87,117.8l31.77-13.28S277.38-7.64,155.33,6.09Z"/><path class="g" d="M155.33,6.09s108.17,12.09,124.87,117.8l31.77-13.28S277.38-7.64,155.33,6.09Z"/><path class="h" d="M312.4,95.39c-12.32-27.9-32.89-51.64-58.77-68.46C228.51,10.61,198.36,.81,165.88,.06v-.06h-2.95c-.18,0-.3,.01-.35,.01-.05,0-.17,0-.35,0h-2.95V.07C115.65,1.07,76.23,18.41,47.52,45.96c-14.67,14.08-26.55,30.84-34.77,49.44C4.54,114,0,134.45,0,155.9c0,14.17,2.05,28.77,5.45,42.4,3.39,13.6,8.13,26.24,13.58,36.53,6.54,13.97,17.14,32.89,29.75,53.92,18.93,31.58,42.39,67.85,63.28,98.73,10.45,15.44,20.26,29.53,28.55,41.01,4.15,5.74,7.91,10.83,11.19,15.12,3.28,4.29,6.07,7.77,8.31,10.33h0c.25,.28,.57,.57,1,.78,.42,.22,.94,.36,1.47,.36,.52,0,1.04-.13,1.46-.35,.42-.22,.76-.5,1-.79h0c2.74-3.19,6.57-8.09,11.29-14.39,8.24-11.02,19.15-26.31,31.23-43.8,18.12-26.24,38.88-57.43,57.18-86.58,9.15-14.57,17.69-28.64,24.98-41.32,7.29-12.69,13.34-23.99,17.52-33.09h0c4.47-9.77,8.93-22.39,12.29-36.11,3.36-13.72,5.62-28.55,5.62-42.75,0-21.45-4.54-41.9-12.75-60.51Zm.64,18.61c1.29,4.23,2.38,8.53,3.28,12.9-3.56,5.55-17.75,26.39-42.55,47.05-14.29,11.91-32.1,23.76-53.43,32.64-9.5,3.95-19.69,7.31-30.58,9.82,.81-6.31,1.17-12.1,1.17-17.41,0-10.73-1.48-19.52-3.75-26.66-3.4-10.72-8.57-17.7-12.96-21.98-.53-.52-1.05-1-1.56-1.44,86.9-9.55,129.49-29.2,140.37-34.92ZM18.14,97.77c11.84-26.82,31.64-49.69,56.59-65.9C99.68,15.65,129.78,6.1,162.24,5.9h.68c43.27,.27,82.37,17.17,110.65,44.3,14.14,13.57,25.57,29.69,33.46,47.57,1.66,3.75,3.15,7.59,4.49,11.49-9.06,4.88-52.49,25.89-144.96,35.38-.33,.02-.38,.04-.49,.05l-.23,.03c-3.45,.35-6.96,.68-10.54,1-32.2,2.85-58.18,3.87-78.87,3.87-26.23,0-43.95-1.64-55.07-3.26-5.56-.81-9.47-1.62-11.97-2.22-1.25-.3-2.15-.55-2.72-.71-.07-.02-.14-.04-.21-.06,1.4-16.04,5.43-31.35,11.7-45.56Zm145.47,52.09l-.15,.36h0l.15-.36h0ZM5.88,155.9c0-2.54,.07-5.06,.2-7.57,5.88,1.61,26.41,6.16,70.33,6.16,20.85,0,46.97-1.03,79.3-3.88,2.67-.24,5.28-.48,7.87-.74l-.68,.05,.59,.32c.3,.14,1.77,.88,3.79,2.48,3.03,2.41,7.31,6.75,10.88,14.08,3.56,7.33,6.41,17.69,6.41,32.21,0,5.63-.43,11.88-1.42,18.81-11.69,2.26-24.14,3.54-37.38,3.54-39.13,0-85.08-11.18-137.99-41.38-1.22-8.02-1.89-16.14-1.89-24.08Zm313.39,0c0,13.57-2.18,27.98-5.45,41.35-3.27,13.36-7.63,25.68-11.92,35.06h0c-3.09,6.73-7.3,14.83-12.32,23.87-8.8,15.83-20.12,34.54-32.43,54.03-18.47,29.24-39.17,60.22-56.98,85.9-8.91,12.84-17.09,24.36-23.91,33.66-3.41,4.65-6.48,8.75-9.12,12.18-1.71,2.22-3.25,4.16-4.57,5.79-2.56-3.1-5.77-7.23-9.48-12.2-8.3-11.11-19.11-26.38-30.99-43.78-17.82-26.1-38.06-56.99-55.95-85.86-8.94-14.43-17.3-28.36-24.47-40.92-7.17-12.56-13.15-23.77-17.33-32.7l-.03-.07-.03-.07c-5.2-9.79-9.82-22.06-13.11-35.27-.92-3.7-1.74-7.48-2.44-11.3,52.14,29.19,97.85,40.19,137.04,40.19,29.26,0,54.87-6.13,76.79-15.32,32.89-13.79,57.47-34.45,73.84-51.65,10.2-10.72,17.21-20.09,21.07-25.67,1.19,7.43,1.8,15.03,1.8,22.78h0Z"/></g><g><path class="h" d="M312.48,124.44c-.17,.28-3.48,5.84-10.58,14.69-10.64,13.29-29.05,32.88-55.01,49.03-12.98,8.08-27.84,15.31-44.6,20.52-16.76,5.21-35.42,8.41-56.08,8.41-19.21,0-40.16-2.77-62.93-9.34-22.77-6.57-49.89-18.58-76.32-33.81l-2.61,16.3c27.4,15.79,50.47,25.63,74.58,32.58,24.1,6.95,46.55,9.95,67.28,9.95,30.05,0,56.44-6.31,78.97-15.76,16.91-7.09,31.66-15.94,44.27-25.2,18.92-13.9,33.04-28.74,42.48-40.15,9.44-11.42,11.22-15.94,11.39-16.22l-8.33-15.32-2.18,3.84"/><line class="h" x1="312.82" y1="123.94" x2="312.82" y2="123.95"/></g></g></g></g></g></svg>