<svg xmlns="http://www.w3.org/2000/svg" xmlns:xlink="http://www.w3.org/1999/xlink" width="291" height="54" viewBox="0 0 291 54">
  <defs>
    <filter id="Rectángulo_11" x="0" y="0" width="141" height="54" filterUnits="userSpaceOnUse">
      <feOffset dx="3" dy="3" input="SourceAlpha"/>
      <feGaussianBlur stdDeviation="3" result="blur"/>
      <feFlood flood-color="#797979" flood-opacity="0.078"/>
      <feComposite operator="in" in2="blur"/>
      <feComposite in="SourceGraphic"/>
    </filter>
    <filter id="Rectángulo_12" x="150" y="0" width="141" height="54" filterUnits="userSpaceOnUse">
      <feOffset dx="3" dy="3" input="SourceAlpha"/>
      <feGaussianBlur stdDeviation="3" result="blur-2"/>
      <feFlood flood-color="#797979" flood-opacity="0.078"/>
      <feComposite operator="in" in2="blur-2"/>
      <feComposite in="SourceGraphic"/>
    </filter>
  </defs>
  <g id="Grupo_8587" data-name="Grupo 8587" transform="translate(-934 -3675)">
    <g transform="matrix(1, 0, 0, 1, 934, 3675)" filter="url(#Rectángulo_11)">
      <g id="Rectángulo_11-2" data-name="Rectángulo 11" transform="translate(6 6)" fill="#fff" stroke="#f8f9fa" stroke-width="1">
        <rect width="123" height="36" rx="4" stroke="none"/>
        <rect x="0.5" y="0.5" width="122" height="35" rx="3.5" fill="none"/>
      </g>
    </g>
    <path id="FontAwsome_google-play_" data-name="FontAwsome (google-play)" d="M38.035,9.946,28.666.552l11.92,6.843ZM26.221,0A1.65,1.65,0,0,0,25.3,1.5V20.232a1.65,1.65,0,0,0,.921,1.5L37.114,10.863Zm18.05,9.577-2.5-1.448-2.789,2.738,2.789,2.738,2.551-1.448A1.7,1.7,0,0,0,44.271,9.577Zm-15.6,11.606,11.92-6.843-2.551-2.551Z" transform="translate(924.143 3686.98)" fill="#bfc4c9"/>
    <text id="Google_Play" data-name="Google Play" transform="translate(1013 3707)" fill="#706c68" font-size="14" font-family="SegoeUI, Segoe UI"><tspan x="-36.965" y="0">Google Play</tspan></text>
    <text id="Descargar_en" data-name="Descargar en" transform="translate(976 3692)" fill="#706c68" font-size="8" font-family="SegoeUI, Segoe UI"><tspan x="0" y="0">Descargar en</tspan></text>
  </g>
  <g id="Grupo_8588" data-name="Grupo 8588" transform="translate(-934 -3675)">
    <g transform="matrix(1, 0, 0, 1, 934, 3675)" filter="url(#Rectángulo_12)">
      <g id="Rectángulo_12-2" data-name="Rectángulo 12" transform="translate(156 6)" fill="#fff" stroke="#f8f9fa" stroke-width="1">
        <rect width="123" height="36" rx="4" stroke="none"/>
        <rect x="0.5" y="0.5" width="122" height="35" rx="3.5" fill="none"/>
      </g>
    </g>
    <path id="FontAwsome_apple_" data-name="FontAwsome (apple)" d="M19.311,43.516a4.542,4.542,0,0,1,2.433-4.126,5.227,5.227,0,0,0-4.121-2.17c-1.727-.136-3.615,1.007-4.306,1.007-.73,0-2.4-.958-3.717-.958-2.715.044-5.6,2.165-5.6,6.48A12.126,12.126,0,0,0,4.7,47.7c.623,1.786,2.87,6.164,5.215,6.091,1.226-.029,2.092-.871,3.688-.871,1.547,0,2.35.871,3.717.871,2.364-.034,4.4-4.014,4.992-5.8a4.823,4.823,0,0,1-3-4.471Zm-2.754-7.989A4.582,4.582,0,0,0,17.725,32a5.159,5.159,0,0,0-3.3,1.7,4.654,4.654,0,0,0-1.245,3.5A4.086,4.086,0,0,0,16.557,35.527Z" transform="translate(1095.412 3655.829)" fill="#bfc4c9"/>
    <text id="Apple_Store" data-name="Apple Store" transform="translate(1126 3707)" fill="#706c68" font-size="14" font-family="SegoeUI, Segoe UI"><tspan x="0" y="0">Apple Store</tspan></text>
    <text id="Descargar_en-2" data-name="Descargar en" transform="translate(1126 3693)" fill="#706c68" font-size="8" font-family="SegoeUI, Segoe UI"><tspan x="0" y="0">Descargar en</tspan></text>
  </g>
</svg>
