<svg id="Grupo_8528" data-name="Grupo 8528" xmlns="http://www.w3.org/2000/svg" xmlns:xlink="http://www.w3.org/1999/xlink" width="213.574" height="202.433" viewBox="0 0 213.574 202.433">
  <defs>
    <clipPath id="clip-path">
      <rect id="Rectángulo_5014" data-name="Rectángulo 5014" width="213.574" height="202.433" fill="none"/>
    </clipPath>
  </defs>
  <g id="Grupo_8527" data-name="Grupo 8527" clip-path="url(#clip-path)">
    <path id="Trazado_8999" data-name="Trazado 8999" d="M188.233,183.729s-19.768,26.075-44.065,13.658-43.241-68.913-66.714-70.776-45.3,17.384-63.831.621S-8.2,37.832,27.213,30.382s55.184,19.246,70.421,18,52.3-29.179,81.539-16.763,55.6,98.092,9.06,152.105" transform="translate(0 1.694)" fill="#f0f1f2"/>
    <path id="Trazado_9000" data-name="Trazado 9000" d="M185.662,41.177H80.3a1.692,1.692,0,0,1-1.637-2.118L88.495,1.266A1.692,1.692,0,0,1,90.133,0H195.5a1.693,1.693,0,0,1,1.637,2.119L187.3,39.91a1.693,1.693,0,0,1-1.638,1.266" transform="translate(4.679)" fill="#b7e8f7"/>
    <path id="Trazado_9001" data-name="Trazado 9001" d="M141.093,31.3H121.579a.151.151,0,0,1-.145-.189l.873-3.354a.152.152,0,0,1,.146-.113h19.512a.15.15,0,0,1,.145.189l-.873,3.356A.15.15,0,0,1,141.093,31.3Z" transform="translate(7.229 1.646)" fill="none" stroke="#84aee5" stroke-miterlimit="10" stroke-width="1.149"/>
    <path id="Trazado_9002" data-name="Trazado 9002" d="M118.2,31.3H98.687a.151.151,0,0,1-.145-.189l.873-3.354a.152.152,0,0,1,.146-.113h19.512a.151.151,0,0,1,.146.189l-.874,3.356A.15.15,0,0,1,118.2,31.3Z" transform="translate(5.866 1.646)" fill="none" stroke="#84aee5" stroke-miterlimit="10" stroke-width="1.149"/>
    <path id="Trazado_9003" data-name="Trazado 9003" d="M173.837,27.669c-1-1.332-5.058-2.3-6.179-3.633a4.209,4.209,0,0,1-.435-3.021,4.187,4.187,0,0,0,.928-.747,18.034,18.034,0,0,0,1.1-1.935.634.634,0,0,0,.467.195c.533-.017,2.561-2.777,2.037-3.417-.3-.366-.782-.049-1.14.29.536-1.229.913-2.171.913-2.171h-.02c.051-.156.1-.312.138-.469.8-3.227-1.159-5.843-4.386-5.843a7.983,7.983,0,0,0-7.3,5.843c-.039.158-.07.314-.1.469h-.02s-.092.942-.168,2.171c-.19-.339-.515-.656-1-.29-.842.64-.191,3.4.334,3.417a1.015,1.015,0,0,0,.564-.195,11.869,11.869,0,0,0,.133,1.935,2.356,2.356,0,0,0,.747.916,6.567,6.567,0,0,1-1.878,2.851c-1.785,1.332-6.326,2.3-7.991,3.633-1.5,1.2-2.833,4.7-3.086,5.39h26.738c.092-.692.5-4.192-.4-5.39" transform="translate(8.781 0.412)" fill="#3eafdb"/>
    <path id="Trazado_9004" data-name="Trazado 9004" d="M166.5,66.908H61.131a1.692,1.692,0,0,1-1.637-2.118L69.33,27a1.692,1.692,0,0,1,1.638-1.266H176.334a1.693,1.693,0,0,1,1.637,2.119l-9.836,37.791a1.692,1.692,0,0,1-1.638,1.266" transform="translate(3.538 1.532)" fill="#1a67b3"/>
    <path id="Trazado_9005" data-name="Trazado 9005" d="M153.871,60.839h-23.69a1.491,1.491,0,0,1-1.482-1.974l5.977-23.973a2.7,2.7,0,0,1,2.467-1.974h23.69a1.491,1.491,0,0,1,1.482,1.974l-5.977,23.973a2.7,2.7,0,0,1-2.467,1.974" transform="translate(7.658 1.96)" fill="#b7deff"/>
    <path id="Trazado_9006" data-name="Trazado 9006" d="M153.842,53.031c-.261-.559-5.439-2.879-5.439-2.879l-4.116,1.44-.331,1.323-.081.005.331-1.329-3.4-1.44s-6.334,2.319-6.873,2.879c-.452.469-2.727,5.319-3.451,6.876h23.381a56.838,56.838,0,0,0-.022-6.876" transform="translate(7.768 2.986)" fill="#bebecf"/>
    <path id="Trazado_9007" data-name="Trazado 9007" d="M141.557,48.737l-1.518.96-1,2.4,1.213,1.544.668.855,1.66,2,2.218-1.839,3.493-2.8-.077-.317-.361-2.719-.86-.4Z" transform="translate(8.277 2.882)" fill="#dee0e8"/>
    <path id="Trazado_9008" data-name="Trazado 9008" d="M141.967,42.815a.967.967,0,0,0-1.556-.388c-1.046.771.178,3.75.936,2.853a3.883,3.883,0,0,0,.621-2.466" transform="translate(8.335 2.51)" fill="#fb8e74"/>
    <path id="Trazado_9009" data-name="Trazado 9009" d="M148.921,42.762s.994-1.229,1.744-.54-1.715,3.837-2.121,2.994.377-2.454.377-2.454" transform="translate(8.836 2.501)" fill="#fb8e74"/>
    <path id="Trazado_9010" data-name="Trazado 9010" d="M147.058,51.23l1.07-5.676-6.194.537-1.367,5.331a14.151,14.151,0,0,0,2.243,3.643s3.6-3.112,4.248-3.834" transform="translate(8.368 2.712)" fill="#fb8877"/>
    <path id="Trazado_9011" data-name="Trazado 9011" d="M152.008,40.88c-.231.691-.8.862-.841,1.266a3.992,3.992,0,0,1-.693,1.84,3.242,3.242,0,0,1-.6.518s-5.315,1.495-8.012-.575a4.622,4.622,0,0,1,.008-1.726c.182-.93-.268-1.093.255-1.553a1.73,1.73,0,0,0,.7-1.381,2.187,2.187,0,0,1,.591-1.669c.538-.518,1.021-.345,1.545-.805,0,0,.776-1.3,1.8-1.449s3.181-.69,4.465.889.693,2.959,1.063,3.453-.279,1.192-.279,1.192" transform="translate(8.441 2.092)" fill="#713336"/>
    <path id="Trazado_9012" data-name="Trazado 9012" d="M141.854,42.162s-2.507,6.906,2.215,7.424c4.172.1,5.654-4.995,6.251-7.606s.228-5.345-3.112-5.256-4.987,3.892-5.355,5.439" transform="translate(8.405 2.186)" fill="#fba990"/>
    <path id="Trazado_9013" data-name="Trazado 9013" d="M143.164,39.722a1.262,1.262,0,0,1,.022,1.111c-.286.558-1.063.773-1.179,1.511a7.007,7.007,0,0,1-.666,2.335c-.209.067-.06-1.5-.025-2.031a9.05,9.05,0,0,1,1.548-4.159,5.026,5.026,0,0,1,3.785-2.325,3.591,3.591,0,0,1,4.038,1.722c.552,1.21-.331,4.292-.331,4.292s.132-1.465-.358-1.809-.9-.6-.815-.8-1.57.528-3.22,0-2.184-.289-2.458-.119a1.139,1.139,0,0,0-.34.272" transform="translate(8.408 2.149)" fill="#713336"/>
    <path id="Trazado_9014" data-name="Trazado 9014" d="M153.871,60.839h-23.69a1.491,1.491,0,0,1-1.482-1.974l5.977-23.973a2.7,2.7,0,0,1,2.467-1.974h23.69a1.491,1.491,0,0,1,1.482,1.974l-5.977,23.973A2.7,2.7,0,0,1,153.871,60.839Z" transform="translate(7.658 1.96)" fill="none" stroke="#fff" stroke-miterlimit="10" stroke-width="1.149"/>
    <path id="Trazado_9015" data-name="Trazado 9015" d="M93.943,9.559h36.664a1.826,1.826,0,0,0,0-3.651H93.943a1.826,1.826,0,1,0,0,3.651" transform="translate(5.484 0.352)" fill="#1a67b3"/>
    <path id="Trazado_9016" data-name="Trazado 9016" d="M91.281,25.53h36.664a1.826,1.826,0,0,0,0-3.651H91.281a1.826,1.826,0,0,0,0,3.651" transform="translate(5.325 1.302)" fill="#1a67b3"/>
    <path id="Trazado_9017" data-name="Trazado 9017" d="M105.832,19.5H142.5a1.826,1.826,0,0,0,0-3.651H105.832a1.826,1.826,0,0,0,0,3.651" transform="translate(6.192 0.943)" fill="#1a67b3"/>
    <path id="Trazado_9018" data-name="Trazado 9018" d="M93.055,14.882h11a1.826,1.826,0,0,0,0-3.651h-11a1.826,1.826,0,1,0,0,3.651" transform="translate(5.431 0.669)" fill="#1a67b3"/>
    <path id="Trazado_9019" data-name="Trazado 9019" d="M91.636,19.5h11a1.826,1.826,0,1,0,0-3.651h-11a1.826,1.826,0,0,0,0,3.651" transform="translate(5.347 0.943)" fill="#1a67b3"/>
    <path id="Trazado_9020" data-name="Trazado 9020" d="M134.048,9.559h13.066a1.826,1.826,0,1,0,0-3.651H134.048a1.826,1.826,0,1,0,0,3.651" transform="translate(7.871 0.352)" fill="#1a67b3"/>
    <path id="Trazado_9021" data-name="Trazado 9021" d="M74.777,36.177h36.664a1.826,1.826,0,0,0,0-3.651H74.777a1.826,1.826,0,1,0,0,3.651" transform="translate(4.343 1.936)" fill="#fff"/>
    <path id="Trazado_9022" data-name="Trazado 9022" d="M72.116,52.148H108.78a1.826,1.826,0,0,0,0-3.651H72.116a1.826,1.826,0,1,0,0,3.651" transform="translate(4.184 2.887)" fill="#fff"/>
    <path id="Trazado_9023" data-name="Trazado 9023" d="M86.667,46.114h36.664a1.826,1.826,0,0,0,0-3.651H86.667a1.826,1.826,0,1,0,0,3.651" transform="translate(5.051 2.528)" fill="#fff"/>
    <path id="Trazado_9024" data-name="Trazado 9024" d="M73.89,41.5h11a1.826,1.826,0,0,0,0-3.651h-11a1.826,1.826,0,0,0,0,3.651" transform="translate(4.29 2.253)" fill="#fff"/>
    <path id="Trazado_9025" data-name="Trazado 9025" d="M72.471,46.114h11a1.826,1.826,0,0,0,0-3.651h-11a1.826,1.826,0,1,0,0,3.651" transform="translate(4.206 2.528)" fill="#fff"/>
    <path id="Trazado_9026" data-name="Trazado 9026" d="M114.882,36.177h13.067a1.826,1.826,0,1,0,0-3.651H114.882a1.826,1.826,0,1,0,0,3.651" transform="translate(6.73 1.936)" fill="#fff"/>
    <path id="Trazado_9027" data-name="Trazado 9027" d="M167.561,117.838H62.2a1.692,1.692,0,0,1-1.637-2.118l9.836-37.792a1.692,1.692,0,0,1,1.638-1.266H177.4a1.693,1.693,0,0,1,1.637,2.119L169.2,116.571a1.693,1.693,0,0,1-1.638,1.266" transform="translate(3.602 4.564)" fill="#b7e8f7"/>
    <path id="Trazado_9028" data-name="Trazado 9028" d="M155.737,104.329c-1-1.332-5.058-2.3-6.179-3.633a4.209,4.209,0,0,1-.435-3.021,4.187,4.187,0,0,0,.928-.747,18.031,18.031,0,0,0,1.1-1.935.634.634,0,0,0,.467.195c.533-.017,2.561-2.777,2.037-3.417-.3-.366-.782-.049-1.14.29.536-1.229.913-2.171.913-2.171h-.02c.051-.156.1-.312.138-.469.8-3.227-1.159-5.843-4.386-5.843a7.983,7.983,0,0,0-7.3,5.843c-.039.158-.07.314-.1.469h-.02s-.092.942-.168,2.171c-.19-.339-.515-.656-1-.29-.842.64-.191,3.4.334,3.417a1.015,1.015,0,0,0,.564-.195,11.868,11.868,0,0,0,.134,1.935,2.356,2.356,0,0,0,.747.916,6.567,6.567,0,0,1-1.877,2.851c-1.785,1.332-6.326,2.3-7.991,3.633-1.5,1.2-2.833,4.7-3.086,5.39h26.738c.092-.692.5-4.192-.4-5.39" transform="translate(7.703 4.976)" fill="#3eafdb"/>
    <path id="Trazado_9029" data-name="Trazado 9029" d="M157.269,165.395H51.9a1.692,1.692,0,0,1-1.637-2.118L60.1,125.484a1.692,1.692,0,0,1,1.638-1.266H167.106a1.692,1.692,0,0,1,1.637,2.119l-9.836,37.791a1.693,1.693,0,0,1-1.638,1.266" transform="translate(2.989 7.395)" fill="#b7e8f7"/>
    <path id="Trazado_9030" data-name="Trazado 9030" d="M75.842,86.219h36.664a1.826,1.826,0,1,0,0-3.651H75.842a1.826,1.826,0,0,0,0,3.651" transform="translate(4.406 4.915)" fill="#1a67b3"/>
    <path id="Trazado_9031" data-name="Trazado 9031" d="M73.18,102.19h36.664a1.826,1.826,0,1,0,0-3.651H73.18a1.826,1.826,0,1,0,0,3.651" transform="translate(4.248 5.866)" fill="#1a67b3"/>
    <path id="Trazado_9032" data-name="Trazado 9032" d="M87.732,96.157H124.4a1.826,1.826,0,0,0,0-3.651H87.732a1.826,1.826,0,1,0,0,3.651" transform="translate(5.114 5.507)" fill="#1a67b3"/>
    <path id="Trazado_9033" data-name="Trazado 9033" d="M74.955,91.543h11a1.826,1.826,0,1,0,0-3.651h-11a1.826,1.826,0,0,0,0,3.651" transform="translate(4.353 5.232)" fill="#1a67b3"/>
    <path id="Trazado_9034" data-name="Trazado 9034" d="M73.535,96.157h11a1.826,1.826,0,0,0,0-3.651h-11a1.826,1.826,0,0,0,0,3.651" transform="translate(4.269 5.507)" fill="#1a67b3"/>
    <path id="Trazado_9035" data-name="Trazado 9035" d="M115.947,86.219h13.067a1.826,1.826,0,0,0,0-3.651H115.947a1.826,1.826,0,1,0,0,3.651" transform="translate(6.794 4.915)" fill="#1a67b3"/>
    <path id="Trazado_9036" data-name="Trazado 9036" d="M65.55,133.777h36.664a1.826,1.826,0,0,0,0-3.651H65.55a1.826,1.826,0,1,0,0,3.651" transform="translate(3.794 7.747)" fill="#1a67b3"/>
    <path id="Trazado_9037" data-name="Trazado 9037" d="M62.888,149.748H99.552a1.826,1.826,0,0,0,0-3.651H62.888a1.826,1.826,0,1,0,0,3.651" transform="translate(3.635 8.697)" fill="#1a67b3"/>
    <path id="Trazado_9038" data-name="Trazado 9038" d="M77.439,143.715H114.1a1.826,1.826,0,0,0,0-3.651H77.439a1.826,1.826,0,0,0,0,3.651" transform="translate(4.501 8.338)" fill="#1a67b3"/>
    <path id="Trazado_9039" data-name="Trazado 9039" d="M64.663,139.1h11a1.826,1.826,0,1,0,0-3.651h-11a1.826,1.826,0,0,0,0,3.651" transform="translate(3.741 8.064)" fill="#1a67b3"/>
    <path id="Trazado_9040" data-name="Trazado 9040" d="M63.243,143.715h11a1.826,1.826,0,1,0,0-3.651h-11a1.826,1.826,0,0,0,0,3.651" transform="translate(3.656 8.338)" fill="#1a67b3"/>
    <path id="Trazado_9041" data-name="Trazado 9041" d="M105.655,133.777h13.067a1.826,1.826,0,1,0,0-3.651H105.655a1.826,1.826,0,1,0,0,3.651" transform="translate(6.181 7.747)" fill="#1a67b3"/>
    <path id="Trazado_9042" data-name="Trazado 9042" d="M145.444,151.887c-1-1.332-5.058-2.3-6.179-3.633a4.209,4.209,0,0,1-.435-3.021,4.186,4.186,0,0,0,.928-.747,18.035,18.035,0,0,0,1.1-1.935.634.634,0,0,0,.467.195c.533-.017,2.561-2.777,2.037-3.417-.3-.366-.782-.049-1.14.29.536-1.229.913-2.171.913-2.171h-.02c.051-.156.1-.311.138-.469.8-3.227-1.159-5.843-4.386-5.843a7.983,7.983,0,0,0-7.3,5.843c-.039.158-.07.314-.1.469h-.02s-.092.942-.168,2.171c-.19-.339-.515-.656-1-.29-.842.64-.191,3.4.334,3.417a1.015,1.015,0,0,0,.564-.195,11.868,11.868,0,0,0,.133,1.935,2.356,2.356,0,0,0,.747.917,6.567,6.567,0,0,1-1.877,2.851c-1.785,1.332-6.326,2.3-7.991,3.633-1.5,1.2-2.833,4.7-3.086,5.39h26.738c.092-.692.5-4.192-.4-5.39" transform="translate(7.09 7.807)" fill="#3eafdb"/>
    <path id="Trazado_9043" data-name="Trazado 9043" d="M168.394,69.6V69H63.028a1.069,1.069,0,0,1-.771-.323,1.084,1.084,0,0,1-.314-.758l.036-.275h0l9.837-37.791a1.082,1.082,0,0,1,1.049-.811H178.231a1.066,1.066,0,0,1,.771.322,1.086,1.086,0,0,1,.313.758l-.036.277-9.836,37.792a1.084,1.084,0,0,1-1.049.811v1.216a2.3,2.3,0,0,0,2.226-1.721L180.457,30.7a2.3,2.3,0,0,0-2.226-2.88H72.865a2.3,2.3,0,0,0-2.227,1.722L60.8,67.332a2.3,2.3,0,0,0,2.226,2.88H168.394Z" transform="translate(3.615 1.656)" fill="#002554"/>
    <path id="Trazado_9044" data-name="Trazado 9044" d="M92.243,65.237h52.739V64.019H92.243" transform="translate(5.491 3.811)" fill="#002554"/>
    <path id="Trazado_9045" data-name="Trazado 9045" d="M78.4,26.374h44.561V25.158H78.4" transform="translate(4.667 1.498)" fill="#002554"/>
    <path id="Trazado_9046" data-name="Trazado 9046" d="M119.127,22.381h22.845V21.164H119.127" transform="translate(7.092 1.26)" fill="#002554"/>
    <path id="Trazado_9047" data-name="Trazado 9047" d="M131.371,163.9h18.8v-1.217h-18.8" transform="translate(7.821 9.685)" fill="#002554"/>
    <path id="Trazado_9048" data-name="Trazado 9048" d="M71.037,116.344h44.748v-1.217H71.037" transform="translate(4.229 6.854)" fill="#002554"/>
    <path id="Trazado_9049" data-name="Trazado 9049" d="M122.942,116.344h10.9v-1.217h-10.9" transform="translate(7.319 6.854)" fill="#002554"/>
    <path id="Trazado_9050" data-name="Trazado 9050" d="M167.4,77.481h3.78a1.031,1.031,0,0,1,.744.312,1.042,1.042,0,0,1,.3.729,1.077,1.077,0,0,1-.047.31l-1.6,5.195,1.163.357,1.6-5.195a2.258,2.258,0,0,0-2.16-2.924H167.4Z" transform="translate(9.965 4.54)" fill="#002554"/>
    <path id="Trazado_9051" data-name="Trazado 9051" d="M54.554,14.329H52.625a.662.662,0,0,1-.658-.876l.481-1.928a1.2,1.2,0,0,1,1.094-.876h1.928a.662.662,0,0,1,.658.876l-.481,1.928a1.2,1.2,0,0,1-1.094.876" transform="translate(3.092 0.634)" fill="#a3adb7"/>
    <path id="Trazado_9052" data-name="Trazado 9052" d="M53.224,19.665H51.3a.662.662,0,0,1-.658-.876l.481-1.928a1.2,1.2,0,0,1,1.094-.876h1.928a.662.662,0,0,1,.658.876l-.481,1.928a1.2,1.2,0,0,1-1.094.876" transform="translate(3.013 0.952)" fill="#edf4ff"/>
    <path id="Trazado_9053" data-name="Trazado 9053" d="M59.014,19.665H57.085a.662.662,0,0,1-.658-.876l.481-1.928A1.2,1.2,0,0,1,58,15.984h1.928a.662.662,0,0,1,.658.876l-.481,1.928a1.2,1.2,0,0,1-1.094.876" transform="translate(3.358 0.952)" fill="#a3adb7"/>
    <path id="Trazado_9054" data-name="Trazado 9054" d="M64.8,19.665H62.876a.662.662,0,0,1-.658-.876L62.7,16.86a1.2,1.2,0,0,1,1.094-.876h1.928a.662.662,0,0,1,.658.876L65.9,18.789a1.2,1.2,0,0,1-1.095.876" transform="translate(3.702 0.952)" fill="#edf4ff"/>
    <path id="Trazado_9055" data-name="Trazado 9055" d="M51.862,25.124H49.933a.662.662,0,0,1-.658-.876l.481-1.928a1.2,1.2,0,0,1,1.094-.876h1.928a.662.662,0,0,1,.658.876l-.481,1.928a1.2,1.2,0,0,1-1.094.876" transform="translate(2.932 1.277)" fill="#edf4ff"/>
    <path id="Trazado_9056" data-name="Trazado 9056" d="M50.408,30.956H48.479a.662.662,0,0,1-.658-.876l.481-1.928a1.2,1.2,0,0,1,1.094-.876h1.928a.662.662,0,0,1,.658.876L51.5,30.08a1.2,1.2,0,0,1-1.094.876" transform="translate(2.845 1.624)" fill="#edf4ff"/>
    <path id="Trazado_9057" data-name="Trazado 9057" d="M57.653,25.124H55.724a.662.662,0,0,1-.658-.876l.481-1.928a1.2,1.2,0,0,1,1.094-.876H58.57a.662.662,0,0,1,.658.876l-.481,1.928a1.2,1.2,0,0,1-1.094.876" transform="translate(3.277 1.277)" fill="#edf4ff"/>
    <path id="Trazado_9058" data-name="Trazado 9058" d="M55.116,35.3H53.187a.662.662,0,0,1-.658-.876l.481-1.928a1.2,1.2,0,0,1,1.094-.876h1.928a.662.662,0,0,1,.658.876l-.481,1.928a1.2,1.2,0,0,1-1.094.876" transform="translate(3.126 1.882)" fill="#a3adb7"/>
    <path id="Trazado_9059" data-name="Trazado 9059" d="M84.389,3.529h-.029l-.088-.007v0c-.2-.012-.4-.021-.6-.021-5.717,0-11.5,4.584-13.027,10.276l-.068.272h0c-.007.029-.013.056-.019.085l-.043.175h.006C69.26,20.077,72.962,24.67,78.89,24.43c5.4-.218,10.855-4.532,12.477-9.879,1.76-5.8-1.443-10.635-6.978-11.022m3.944,10.826a10.186,10.186,0,0,1-8.871,6.991c-4.123.131-6.694-3.068-5.844-7.091l.12-.478h-.005A10.09,10.09,0,0,1,82.9,6.59c.208,0,.41.011.609.028,3.832.324,6.038,3.7,4.825,7.738" transform="translate(4.183 0.208)" fill="#edf4ff"/>
    <path id="Trazado_9060" data-name="Trazado 9060" d="M83.827,5.3h0a1.165,1.165,0,0,0,.8,1.5c3.126.826,4.793,3.917,3.7,7.545a10.186,10.186,0,0,1-8.871,6.992,5.487,5.487,0,0,1-5.993-6.051,1.136,1.136,0,0,0-1.2-1.247,2.081,2.081,0,0,0-1.974,1.805c-.34,5.021,3.213,8.8,8.6,8.577,5.4-.219,10.855-4.533,12.477-9.879,1.566-5.161-.8-9.562-5.239-10.74a2.043,2.043,0,0,0-2.3,1.5" transform="translate(4.183 0.223)" fill="#a3adb7"/>
    <path id="Trazado_9061" data-name="Trazado 9061" d="M108.969,2.534h0l-.028,0-.109-.005c-.193-.012-.386-.021-.584-.021-5.783,0-11.639,4.687-13.08,10.47s2.077,10.469,7.859,10.469c.2,0,.4-.008.592-.02.037,0,.074,0,.112-.006h.031a14.4,14.4,0,0,0,12.32-10.35c.007-.031.017-.06.024-.091,1.381-5.537-1.79-10.067-7.138-10.441m-4.651,17.8-.029,0c-.122.007-.244.013-.366.015-.042,0-.084,0-.126,0-4.075,0-6.555-3.3-5.539-7.38a10.081,10.081,0,0,1,9.22-7.381c.041,0,.082,0,.124,0q.181,0,.359.016l.031,0c3.767.267,6,3.458,5.025,7.36-.007.031-.017.06-.024.091a10.153,10.153,0,0,1-8.675,7.268" transform="translate(5.646 0.149)" fill="#fff"/>
    <path id="Trazado_9062" data-name="Trazado 9062" d="M112.054,13.76a10.345,10.345,0,0,1-7.3,5.865,2.157,2.157,0,0,0-1.661,1.521,1.191,1.191,0,0,0,1.465,1.516,14.67,14.67,0,0,0,10.4-8.352,1.208,1.208,0,0,0-1.06-1.838,2.136,2.136,0,0,0-1.845,1.288" transform="translate(6.134 0.742)" fill="#a3adb7"/>
    <path id="Trazado_9063" data-name="Trazado 9063" d="M83.065,37.51H63.551a.151.151,0,0,1-.145-.189l.873-3.354a.151.151,0,0,1,.146-.112H83.938a.15.15,0,0,1,.146.188L83.21,37.4a.15.15,0,0,1-.145.112" transform="translate(3.774 2.015)" fill="#edf4ff"/>
    <path id="Trazado_9064" data-name="Trazado 9064" d="M171.769,47.069a11.835,11.835,0,0,1-10.824,8.664c-4.784,0-7.7-3.879-6.5-8.664A11.835,11.835,0,0,1,165.265,38.4c4.785,0,7.7,3.879,6.5,8.664" transform="translate(9.178 2.286)" fill="#dc2f13"/>
    <path id="Trazado_9065" data-name="Trazado 9065" d="M160.668,51.169a.818.818,0,0,1-.675-.313l-2.239-2.982a1.139,1.139,0,0,1,.375-1.507,1.058,1.058,0,0,1,1.507,0l1.673,2.229,5.979-4.786a1.058,1.058,0,0,1,1.507,0,1.139,1.139,0,0,1-.376,1.507l-6.92,5.538a1.348,1.348,0,0,1-.831.313" transform="translate(9.382 2.59)" fill="#fff"/>
    <path id="Trazado_9066" data-name="Trazado 9066" d="M75.366,186.413c0,1.713-16.541,3.1-36.946,3.1s-36.946-1.389-36.946-3.1,16.541-3.1,36.946-3.1,36.946,1.389,36.946,3.1" transform="translate(0.088 10.913)" fill="#f0f1f2"/>
    <path id="Trazado_9067" data-name="Trazado 9067" d="M22.365,176.893s.784-1.679,3.695-1.231,3.247,1.008,3.583,2.462a5.956,5.956,0,0,0,2.015,3.36c.673.336,3.136,2.015,5.151,2.351s2.239,1.568,1.792,2.128-8.062,1.008-9.742.784c0,0-5.71-.112-7.053-.559s.447-8.735.559-9.294" transform="translate(1.268 10.453)" fill="#1a67b3"/>
    <path id="Trazado_9068" data-name="Trazado 9068" d="M19.311,140.048a5.515,5.515,0,0,1,4.045-6.194c4.9-1.556,5.824.707,7.307,4.936s-1.274,40.36-1.274,40.36-5.64.963-7.086.109c0,0-4.3-23.521-4-29.974a52.481,52.481,0,0,1,1-9.237" transform="translate(1.089 7.939)" fill="#1a67b3"/>
    <path id="Trazado_9069" data-name="Trazado 9069" d="M21.514,175.39s6.383-.559,8.4-.9l-.112,2.911a33.286,33.286,0,0,1-8.173.448Z" transform="translate(1.281 10.388)" fill="#1a67b3"/>
    <path id="Trazado_9070" data-name="Trazado 9070" d="M20.589,54.23s-4.03.224-6.494,9.405-4.032,20.379-3.136,23.291S21.485,97.675,25.068,97.675s3.807-2.687,3.135-4.927-7.614-8.286-7.614-8.286,5.6-17.916,5.375-22.619-2.912-7.614-5.375-7.614" transform="translate(0.637 3.228)" fill="#ffc60a"/>
    <path id="Trazado_9071" data-name="Trazado 9071" d="M67.71,51.809l-.669.068,1.5-2.967s3.809-.239,4.42,1.369l-1.747,3.875Z" transform="translate(3.991 2.911)" fill="#ff8d68"/>
    <path id="Trazado_9072" data-name="Trazado 9072" d="M69.693,43.89s-.148-3.031.93-3.463a2.775,2.775,0,0,1,2.286.409s1.746-.178,2.3.567a3.348,3.348,0,0,1,.512,1.872,1.753,1.753,0,0,1,1.241,1.156,7.411,7.411,0,0,1-.2,2.747s-1.14,1.4-2.458,1.052-4.612-4.341-4.612-4.341" transform="translate(4.149 2.399)" fill="#ff7759"/>
    <path id="Trazado_9073" data-name="Trazado 9073" d="M67.82,46.621s-.4-3.968.023-4.492,4.8-6.572,4.8-6.572a2.207,2.207,0,0,1,.386,2.206c-.521,1.176-2.58,4.742-2.58,4.742l-.011,3.048a6.7,6.7,0,0,1-2.617,1.068" transform="translate(4.027 2.117)" fill="#ff7759"/>
    <path id="Trazado_9074" data-name="Trazado 9074" d="M68.148,49.43s-1.045-6.372-.332-7.246,4.206-.364,4.874-.112a9.262,9.262,0,0,1,2.769,3.566c.255.937-1.484,4.321-2.53,5.069s-4.176-.055-4.781-1.277" transform="translate(4.022 2.482)" fill="#ff8d68"/>
    <path id="Trazado_9075" data-name="Trazado 9075" d="M65.794,53.1l1.343-2.463s3.135-.559,4.7,1.9c.448.9.224.9.224.9l-1.008,2.015Z" transform="translate(3.917 3.011)" fill="#dee0e8"/>
    <path id="Trazado_9076" data-name="Trazado 9076" d="M36.5,27.584s3.313.848,5.19,5.934.625,15.9-.625,17.169-5.052.785-10.322-.954C25.178,47.9,23.3,42.106,22.3,38.287c-1.905-7.312,4.453-14.837,14.2-10.7" transform="translate(1.308 1.572)" fill="#ff8d68"/>
    <path id="Trazado_9077" data-name="Trazado 9077" d="M24.473,54.579l2.687-9.63s5.375-1.567,8.734,2.016l1.12,1.567V54.8a35.865,35.865,0,0,1-12.541-.224" transform="translate(1.457 2.656)" fill="#ff8d68"/>
    <path id="Trazado_9078" data-name="Trazado 9078" d="M17.442,103.112a88.711,88.711,0,0,0,0,25.194c2.015,13.437,6.047,14.78,9.741,14.78s4.7-10.749,5.375-15.452,3.359-20.827-1.679-24.522-10.75-4.03-13.437,0" transform="translate(0.985 5.966)" fill="#1a67b3"/>
    <path id="Trazado_9079" data-name="Trazado 9079" d="M30.772,118.884s-4.032-10.749,3.023-15.452,12.429-4.03,14.109,3.7,2.015,34.263-.336,39.638-10.749-3.024-16.8-27.882" transform="translate(1.764 5.981)" fill="#1a67b3"/>
    <path id="Trazado_9080" data-name="Trazado 9080" d="M43.043,28.169a4.847,4.847,0,0,1,.636,4.451c-.955,2.384-4.451,3.339-4.451,3.339a3.829,3.829,0,0,1,0,3.814l-.795,1.272s1.111,2.543.795,3.179-1.43.477-1.43.477-1.271-3.5-1.748-3.179A5.1,5.1,0,0,0,34.3,44.86c0,1.431.477,2.544.16,3.5s-5.246.954-7.312.636-5.246-6.676-6.04-9.538a11.778,11.778,0,0,1,.477-7.312,7.754,7.754,0,0,1,2.384-5.723c2.7-2.862,11.286-1.908,12.716-.8,0,0-.158-1.589,1.431-1.271a7.609,7.609,0,0,1,4.928,3.815" transform="translate(1.234 1.447)" fill="#c53a45"/>
    <path id="Trazado_9081" data-name="Trazado 9081" d="M37.451,41.682s-.477-2.066-2.225-1.113.318,5.881,1.748,5.564.795-3.656.477-4.451" transform="translate(2.057 2.4)" fill="#ff7759"/>
    <path id="Trazado_9082" data-name="Trazado 9082" d="M23.131,54.15s.75-2.636,1.422-2.861S33.51,50.17,37.99,52.857c2.015,1.567,1.792,2.687,1.792,2.687S26.412,52.979,23.131,54.15" transform="translate(1.377 3.034)" fill="#dee0e8"/>
    <path id="Trazado_9083" data-name="Trazado 9083" d="M21.9,53.462s13.884-.9,23.738,3.359c4.48,2.24,14.724,12.373,14.724,12.373l8.062-16.8s4.536-1.623,6.326,2.632c0,0-5.094,19.819-9.349,26.089-2.687,2.24-15.508-5.038-15.508-5.038S51.9,102.058,51.233,113.7c-.9,2.24-18.363,3.36-21.5,3.135s-14.109-3.807-14.333-4.479,1.568-27.545,1.12-30.68S14.73,63.092,15.178,60.852s2.463-6.495,6.718-7.39" transform="translate(0.898 3.101)" fill="#ffc60a"/>
    <path id="Trazado_9084" data-name="Trazado 9084" d="M35.523,177.527s.784-1.679,3.695-1.231,3.247,1.008,3.583,2.462a5.951,5.951,0,0,0,2.016,3.36c.672.336,3.135,2.015,5.15,2.351s2.239,1.568,1.792,2.128-8.062,1.008-9.741.784c0,0-5.711-.112-7.054-.559s.447-8.735.559-9.294" transform="translate(2.052 10.491)" fill="#1a67b3"/>
    <path id="Trazado_9085" data-name="Trazado 9085" d="M36.863,140.694a5.516,5.516,0,0,1,4.7-5.711c5.038-1.008,5.71,1.343,6.717,5.711s-5.71,39.974-5.71,39.974S36.863,181,35.52,180c0,0-1.679-23.85-.672-30.233a52.461,52.461,0,0,1,2.015-9.07" transform="translate(2.055 8.022)" fill="#1a67b3"/>
    <path id="Trazado_9086" data-name="Trazado 9086" d="M35.047,178.127a21.024,21.024,0,0,0,8.062.559l.336-2.575-8.51-.561Z" transform="translate(2.08 10.451)" fill="#1a67b3"/>
    <path id="Trazado_9087" data-name="Trazado 9087" d="M29.44,115.472s4.7,15.116,8.23,22.507" transform="translate(1.753 6.874)" fill="none" stroke="#2a2e59" stroke-miterlimit="10" stroke-width="1.026"/>
    <path id="Trazado_9088" data-name="Trazado 9088" d="M38.475,139.609a5.975,5.975,0,0,1,5.711,0" transform="translate(2.29 8.267)" fill="none" stroke="#2a2e59" stroke-miterlimit="10" stroke-width="1.026"/>
    <path id="Trazado_9089" data-name="Trazado 9089" d="M38,141.329s2.351-1.343,6.383,1.512" transform="translate(2.262 8.395)" fill="none" stroke="#2a2e59" stroke-miterlimit="10" stroke-width="1.026"/>
    <path id="Trazado_9090" data-name="Trazado 9090" d="M21.355,137.7s1.848-1.679,6.047.168" transform="translate(1.271 8.156)" fill="none" stroke="#2a2e59" stroke-miterlimit="10" stroke-width="1.026"/>
    <path id="Trazado_9091" data-name="Trazado 9091" d="M22.623,139.275a5.051,5.051,0,0,1,5.207.672" transform="translate(1.347 8.265)" fill="none" stroke="#2a2e59" stroke-miterlimit="10" stroke-width="1.026"/>
    <line id="Línea_3" data-name="Línea 3" x1="1.008" y2="34.263" transform="translate(29.177 150.227)" fill="none" stroke="#2a2e59" stroke-miterlimit="10" stroke-width="1.026"/>
    <path id="Trazado_9092" data-name="Trazado 9092" d="M41.593,114.754s3.807,2.24,5.375-1.343" transform="translate(2.476 6.752)" fill="none" stroke="#2a2e59" stroke-miterlimit="10" stroke-width="1.026"/>
    <path id="Trazado_9093" data-name="Trazado 9093" d="M45.186,115.1s1.792,13.884,1.343,23.066" transform="translate(2.69 6.852)" fill="none" stroke="#2a2e59" stroke-miterlimit="10" stroke-width="1.026"/>
    <line id="Línea_4" data-name="Línea 4" x2="1.792" y2="19.259" transform="translate(16.076 69.775)" fill="none" stroke="#524b81" stroke-miterlimit="10" stroke-width="1.026"/>
    <path id="Trazado_9094" data-name="Trazado 9094" d="M44.182,72.2s13.269,9.574,19.483,7.726" transform="translate(2.63 4.298)" fill="none" stroke="#524b81" stroke-miterlimit="10" stroke-width="1.026"/>
    <path id="Trazado_9095" data-name="Trazado 9095" d="M59.083,69.976a5.542,5.542,0,0,1,2.52,5.039" transform="translate(3.517 4.166)" fill="none" stroke="#524b81" stroke-miterlimit="10" stroke-width="1.026"/>
    <path id="Trazado_9096" data-name="Trazado 9096" d="M58.449,68.714a4.042,4.042,0,0,1,4.535,2.015" transform="translate(3.48 4.084)" fill="none" stroke="#524b81" stroke-miterlimit="10" stroke-width="1.026"/>
    <path id="Trazado_9097" data-name="Trazado 9097" d="M43.93,57.77s-7.054,3.695-2.351,12.261" transform="translate(2.379 3.439)" fill="none" stroke="#524b81" stroke-miterlimit="10" stroke-width="1.026"/>
    <path id="Trazado_9098" data-name="Trazado 9098" d="M34.275,47.229s1.176,3.023,5.123,2.52" transform="translate(2.04 2.812)" fill="none" stroke="#e66657" stroke-miterlimit="10" stroke-width="1.026"/>
    <path id="Trazado_9099" data-name="Trazado 9099" d="M70.153,41.429l1.316-1.176a2.025,2.025,0,0,1,1.413.586" transform="translate(4.176 2.396)" fill="none" stroke="#e66657" stroke-miterlimit="10" stroke-width="1.026"/>
    <path id="Trazado_9100" data-name="Trazado 9100" d="M71.633,41.609c0-.084,1.875-1.091,1.875-1.091s1.708.42,1.96,1.315a2.275,2.275,0,0,1,.055,1.372" transform="translate(4.264 2.412)" fill="none" stroke="#e66657" stroke-miterlimit="10" stroke-width="1.026"/>
    <path id="Trazado_9101" data-name="Trazado 9101" d="M73.72,43.081c.084-.028,2.38.112,2.38.112a2.009,2.009,0,0,1,.812,1.651,8.581,8.581,0,0,1-.388,2.17,2.846,2.846,0,0,1-2.215,1.134" transform="translate(4.389 2.564)" fill="none" stroke="#e66657" stroke-miterlimit="10" stroke-width="1.026"/>
    <path id="Trazado_9102" data-name="Trazado 9102" d="M75.1,45.3a1.392,1.392,0,0,1-.084,1.26c-.364.812-.805,2.938-2.39,3.932" transform="translate(4.324 2.697)" fill="none" stroke="#e66657" stroke-miterlimit="10" stroke-width="1.026"/>
    <path id="Trazado_9103" data-name="Trazado 9103" d="M30.415,31.681c-3.275-1.6-7.474.336-7.474.336A4.349,4.349,0,0,1,25.8,29.078" transform="translate(1.366 1.731)" fill="none" stroke="#a03a45" stroke-miterlimit="10" stroke-width="1.368"/>
    <path id="Trazado_9104" data-name="Trazado 9104" d="M23.1,33.12s.84-.084,1.932,1.6" transform="translate(1.375 1.972)" fill="none" stroke="#a03a45" stroke-miterlimit="10" stroke-width="1.368"/>
    <path id="Trazado_9105" data-name="Trazado 9105" d="M36.732,26.013s4.143.672,4.255,4.815" transform="translate(2.187 1.549)" fill="none" stroke="#a03a45" stroke-miterlimit="10" stroke-width="1.368"/>
    <path id="Trazado_9106" data-name="Trazado 9106" d="M89.869,56.606l.231.467a1.214,1.214,0,0,0,.915.665l.516.075-.373.363a1.216,1.216,0,0,0-.35,1.078l.088.514-.462-.243a1.214,1.214,0,0,0-1.132,0l-.462.243.088-.514a1.216,1.216,0,0,0-.35-1.078l-.373-.363.516-.075a1.214,1.214,0,0,0,.915-.665Zm.138-2.749-1.46,2.678-2.68.389L87.73,59.05,87.1,61.69,89.869,60.6l2.682,1.612-.542-3.165,2.138-2.257-2.955-.257Z" transform="translate(5.112 3.206)" fill="#7094d8"/>
    <path id="Trazado_9107" data-name="Trazado 9107" d="M98.58,56.606l.231.467a1.214,1.214,0,0,0,.915.665l.516.075-.373.363a1.216,1.216,0,0,0-.35,1.078l.088.514-.462-.243a1.214,1.214,0,0,0-1.132,0l-.462.243.088-.514a1.216,1.216,0,0,0-.35-1.078l-.373-.363.516-.075a1.214,1.214,0,0,0,.915-.665Zm.138-2.749-1.46,2.678-2.68.389,1.863,2.125-.629,2.64L98.58,60.6l2.682,1.612-.542-3.165,2.138-2.257L99.9,56.535Z" transform="translate(5.63 3.206)" fill="#7094d8"/>
    <path id="Trazado_9108" data-name="Trazado 9108" d="M107.291,56.606l.231.467a1.214,1.214,0,0,0,.915.665l.516.075-.373.363a1.216,1.216,0,0,0-.35,1.078l.088.514-.462-.243a1.214,1.214,0,0,0-1.132,0l-.462.243.088-.514a1.216,1.216,0,0,0-.35-1.078l-.373-.363.516-.075a1.214,1.214,0,0,0,.915-.665Zm.138-2.749-1.46,2.678-2.68.389,1.863,2.125-.629,2.64,2.769-1.087,2.682,1.612-.542-3.165,2.138-2.257-2.955-.257Z" transform="translate(6.149 3.206)" fill="#7094d8"/>
    <path id="Trazado_9109" data-name="Trazado 9109" d="M116,56.606l.231.467a1.214,1.214,0,0,0,.915.665l.516.075-.373.363a1.216,1.216,0,0,0-.35,1.078l.088.514-.461-.243a1.214,1.214,0,0,0-1.132,0l-.463.243.088-.514a1.218,1.218,0,0,0-.349-1.078l-.374-.363.516-.075a1.214,1.214,0,0,0,.915-.665Zm.139-2.749-1.461,2.678-2.68.389,1.863,2.125-.629,2.64L116,60.6l2.682,1.612-.541-3.165,2.137-2.257-2.955-.257Z" transform="translate(6.667 3.206)" fill="#e8e8e8"/>
    <path id="Trazado_9110" data-name="Trazado 9110" d="M88.964,106.787l.231.467a1.214,1.214,0,0,0,.915.665l.516.075-.373.363a1.216,1.216,0,0,0-.35,1.078l.088.514-.462-.243a1.214,1.214,0,0,0-1.132,0l-.462.243.088-.514a1.216,1.216,0,0,0-.35-1.078L87.3,108l.516-.075a1.214,1.214,0,0,0,.915-.665Zm.138-2.749-1.46,2.678-2.68.389,1.863,2.125-.629,2.64,2.769-1.087,2.682,1.612-.542-3.165,2.138-2.257-2.955-.257Z" transform="translate(5.058 6.194)" fill="#7094d8"/>
    <path id="Trazado_9111" data-name="Trazado 9111" d="M97.675,106.787l.231.467a1.214,1.214,0,0,0,.915.665l.516.075-.373.363a1.216,1.216,0,0,0-.35,1.078l.088.514-.462-.243a1.214,1.214,0,0,0-1.132,0l-.462.243.088-.514a1.216,1.216,0,0,0-.35-1.078L96.012,108l.516-.075a1.214,1.214,0,0,0,.915-.665Zm.138-2.749-1.46,2.678-2.68.389,1.863,2.125-.629,2.64,2.769-1.087,2.682,1.612-.542-3.165,2.138-2.257L99,106.716Z" transform="translate(5.576 6.194)" fill="#3eafdb"/>
    <path id="Trazado_9112" data-name="Trazado 9112" d="M106.385,106.787l.231.467a1.214,1.214,0,0,0,.915.665l.516.075-.373.363a1.216,1.216,0,0,0-.35,1.078l.088.514-.462-.243a1.214,1.214,0,0,0-1.132,0l-.462.243.088-.514a1.216,1.216,0,0,0-.35-1.078l-.373-.363.516-.075a1.214,1.214,0,0,0,.915-.665Zm.138-2.749-1.46,2.678-2.68.389,1.863,2.125-.629,2.64,2.769-1.087,2.682,1.612-.542-3.165,2.138-2.257-2.955-.257Z" transform="translate(6.095 6.194)" fill="#3eafdb"/>
    <path id="Trazado_9113" data-name="Trazado 9113" d="M115.1,106.787l.231.467a1.214,1.214,0,0,0,.915.665l.516.075-.373.363a1.216,1.216,0,0,0-.35,1.078l.088.514-.462-.243a1.214,1.214,0,0,0-1.132,0l-.462.243.088-.514a1.216,1.216,0,0,0-.35-1.078l-.373-.363.516-.075a1.214,1.214,0,0,0,.915-.665Zm.138-2.749-1.46,2.678-2.68.389,1.863,2.125-.629,2.64,2.769-1.087,2.682,1.612-.542-3.165,2.138-2.257-2.955-.257Z" transform="translate(6.614 6.194)" fill="#3eafdb"/>
    <path id="Trazado_9114" data-name="Trazado 9114" d="M82.463,155.25l.231.467a1.214,1.214,0,0,0,.915.665l.516.075-.373.363a1.216,1.216,0,0,0-.35,1.078l.088.514-.462-.243a1.214,1.214,0,0,0-1.132,0l-.462.243.088-.514a1.216,1.216,0,0,0-.35-1.078l-.373-.363.516-.075a1.214,1.214,0,0,0,.915-.665ZM82.6,152.5l-1.46,2.678-2.68.389,1.863,2.125-.629,2.64,2.769-1.087,2.682,1.612-.542-3.165,2.138-2.257-2.955-.257Z" transform="translate(4.671 9.079)" fill="#3eafdb"/>
    <path id="Trazado_9115" data-name="Trazado 9115" d="M91.174,155.25l.231.467a1.214,1.214,0,0,0,.915.665l.516.075-.373.363a1.216,1.216,0,0,0-.35,1.078l.088.514-.462-.243a1.214,1.214,0,0,0-1.132,0l-.462.243.088-.514a1.216,1.216,0,0,0-.35-1.078l-.373-.363.516-.075a1.214,1.214,0,0,0,.915-.665Zm.138-2.749-1.46,2.678-2.68.389,1.863,2.125-.629,2.64,2.769-1.087,2.682,1.612-.542-3.165,2.138-2.257-2.955-.257Z" transform="translate(5.189 9.079)" fill="#3eafdb"/>
    <path id="Trazado_9116" data-name="Trazado 9116" d="M99.884,155.25l.231.467a1.214,1.214,0,0,0,.915.665l.516.075-.373.363a1.216,1.216,0,0,0-.35,1.078l.088.514-.462-.243a1.214,1.214,0,0,0-1.132,0l-.462.243.088-.514a1.216,1.216,0,0,0-.35-1.078l-.373-.363.516-.075a1.214,1.214,0,0,0,.915-.665Zm.138-2.749-1.46,2.678-2.68.389,1.863,2.125-.629,2.64,2.769-1.087,2.682,1.612-.542-3.165,2.138-2.257-2.955-.257Z" transform="translate(5.708 9.079)" fill="#3eafdb"/>
    <path id="Trazado_9117" data-name="Trazado 9117" d="M108.595,155.25l.231.467a1.214,1.214,0,0,0,.915.665l.516.075-.373.363a1.216,1.216,0,0,0-.35,1.078l.088.514-.462-.243a1.214,1.214,0,0,0-1.132,0l-.462.243.088-.514a1.216,1.216,0,0,0-.35-1.078l-.373-.363.516-.075a1.214,1.214,0,0,0,.915-.665Zm.138-2.749-1.46,2.678-2.68.389,1.863,2.125-.629,2.64,2.769-1.087,2.682,1.612-.542-3.165,2.138-2.257-2.955-.257Z" transform="translate(6.227 9.079)" fill="#3eafdb"/>
    <path id="Trazado_9118" data-name="Trazado 9118" d="M81.3,53.857l-1.46,2.679-2.68.389,1.863,2.125-.629,2.64L81.159,60.6l2.682,1.612L83.3,59.05l2.138-2.257-2.955-.257Z" transform="translate(4.593 3.206)" fill="#ffc60a"/>
    <path id="Trazado_9119" data-name="Trazado 9119" d="M90.007,53.857l-1.46,2.679-2.68.389L87.73,59.05,87.1,61.69,89.869,60.6l2.682,1.612-.542-3.165,2.138-2.257-2.955-.257Z" transform="translate(5.112 3.206)" fill="#ffc60a"/>
    <path id="Trazado_9120" data-name="Trazado 9120" d="M98.718,53.857l-1.46,2.679-2.68.389,1.863,2.125-.629,2.64L98.58,60.6l2.682,1.612-.542-3.165,2.138-2.257L99.9,56.536Z" transform="translate(5.63 3.206)" fill="#ffc60a"/>
    <path id="Trazado_9121" data-name="Trazado 9121" d="M107.428,53.857l-1.46,2.679-2.68.389,1.863,2.125-.629,2.64,2.769-1.087,2.682,1.612-.542-3.165,2.138-2.257-2.955-.257Z" transform="translate(6.149 3.206)" fill="#ffc60a"/>
    <path id="Trazado_9122" data-name="Trazado 9122" d="M80.391,104.038l-1.46,2.678-2.68.389,1.863,2.125-.629,2.64,2.769-1.087,2.682,1.612-.542-3.165,2.138-2.257-2.955-.257Z" transform="translate(4.539 6.194)" fill="#ffc60a"/>
    <path id="Trazado_9123" data-name="Trazado 9123" d="M89.1,104.038l-1.46,2.678-2.68.389,1.863,2.125-.629,2.64,2.769-1.087,2.682,1.612L91.1,109.23l2.138-2.257-2.955-.257Z" transform="translate(5.058 6.194)" fill="#ffc60a"/>
    <path id="Trazado_9124" data-name="Trazado 9124" d="M73.89,152.5l-1.46,2.678-2.68.389,1.863,2.125-.629,2.64,2.769-1.087,2.682,1.612-.542-3.165,2.138-2.257-2.955-.257Z" transform="translate(4.152 9.079)" fill="#ffc60a"/>
  </g>
</svg>
