<svg id="Grupo_8526" data-name="Grupo 8526" xmlns="http://www.w3.org/2000/svg" xmlns:xlink="http://www.w3.org/1999/xlink" width="205.215" height="206.043" viewBox="0 0 205.215 206.043">
  <defs>
    <clipPath id="clip-path">
      <rect id="Rectángulo_4991" data-name="Rectángulo 4991" width="205.215" height="206.043" fill="none"/>
    </clipPath>
    <clipPath id="clip-path-2">
      <path id="Trazado_8888" data-name="Trazado 8888" d="M195.492,97a.255.255,0,0,0,.026.359,18.255,18.255,0,0,1,5.007,9.463c2.187,10.407-3.889,20.981-9.373,28.02a.255.255,0,0,0,.044.358l.157.054.2-.1c10.055-12.907,10.7-22.589,9.47-28.439a18.441,18.441,0,0,0-5.172-9.743.256.256,0,0,0-.36.026" fill="none"/>
    </clipPath>
    <linearGradient id="linear-gradient" x1="-16.405" y1="2.846" x2="-16.319" y2="2.846" gradientUnits="objectBoundingBox">
      <stop offset="0" stop-color="#dae3fe"/>
      <stop offset="1" stop-color="#e9effd"/>
    </linearGradient>
    <clipPath id="clip-path-4">
      <path id="Trazado_8954" data-name="Trazado 8954" d="M30.525,205.4a9.141,9.141,0,0,1-3.626-.354l.007.2a.654.654,0,0,0,.621.618c2.34.131,4.494.177,6.349.178h.116c2.823,0,4.94-.1,5.955-.166a.466.466,0,0,0,.38-.7,3.9,3.9,0,0,0-.316-.439c-2.311.2-6.323.524-9.486.663" fill="none"/>
    </clipPath>
    <linearGradient id="linear-gradient-2" x1="-1.977" y1="1" x2="-1.903" y2="1" gradientUnits="objectBoundingBox">
      <stop offset="0" stop-color="#4f52ff"/>
      <stop offset="1" stop-color="#4042e2"/>
    </linearGradient>
    <clipPath id="clip-path-5">
      <path id="Trazado_8955" data-name="Trazado 8955" d="M28.489,200.071a8.543,8.543,0,0,0-1.59,4.976,9.141,9.141,0,0,0,3.626.354c3.163-.139,7.175-.463,9.486-.663-2.272-2.788-9.486-4.667-9.486-4.667Z" fill="none"/>
    </clipPath>
    <linearGradient id="linear-gradient-3" x1="-2.048" y1="1.104" x2="-1.972" y2="1.104" gradientUnits="objectBoundingBox">
      <stop offset="0" stop-color="#09005d"/>
      <stop offset="1" stop-color="#1a0f91"/>
    </linearGradient>
    <clipPath id="clip-path-6">
      <path id="Trazado_8956" data-name="Trazado 8956" d="M28.145,196.744l.191,3.773a.86.86,0,0,0,.735.81A3.348,3.348,0,0,0,30.6,201.2a1.017,1.017,0,0,0,.685-.783l.658-3.673Z" fill="none"/>
    </clipPath>
    <linearGradient id="linear-gradient-4" x1="-7.407" y1="2.001" x2="-7.143" y2="2.001" gradientUnits="objectBoundingBox">
      <stop offset="0" stop-color="#febbba"/>
      <stop offset="1" stop-color="#ff928e"/>
    </linearGradient>
    <clipPath id="clip-path-7">
      <path id="Trazado_8957" data-name="Trazado 8957" d="M.034,204.171a1.3,1.3,0,0,0,.878,1.485,5.469,5.469,0,0,0,2.1.387h.047c.1,0,.194,0,.287-.006a2.417,2.417,0,0,0,1.822-.841l.006-.007a6.12,6.12,0,0,1-3.487.184,1.828,1.828,0,0,1-1.646-1.217Z" fill="none"/>
    </clipPath>
    <linearGradient id="linear-gradient-5" x1="0.021" y1="1" x2="0.211" y2="1" xlink:href="#linear-gradient-2"/>
    <clipPath id="clip-path-8">
      <path id="Trazado_8958" data-name="Trazado 8958" d="M.038,204.156a1.828,1.828,0,0,0,1.646,1.217,6.12,6.12,0,0,0,3.487-.184,16.058,16.058,0,0,0,2.4-6.04A2.119,2.119,0,0,0,6.41,196.72H4.693c-2.538,0-4.132,5.356-4.655,7.436" fill="none"/>
    </clipPath>
    <linearGradient id="linear-gradient-6" x1="-0.005" y1="1.05" x2="0.122" y2="1.05" xlink:href="#linear-gradient-3"/>
    <clipPath id="clip-path-9">
      <path id="Trazado_8959" data-name="Trazado 8959" d="M4.013,196.929a1.009,1.009,0,0,0,.524,1.142,3.576,3.576,0,0,0,1.932.467.84.84,0,0,0,.686-.561l1.37-3.9-3.58-.854Z" fill="none"/>
    </clipPath>
    <linearGradient id="linear-gradient-7" x1="-0.843" y1="2.376" x2="-0.627" y2="2.376" xlink:href="#linear-gradient-4"/>
    <clipPath id="clip-path-11">
      <path id="Trazado_8963" data-name="Trazado 8963" d="M38.371,104.555a2.332,2.332,0,0,0,.821,3.351A35.065,35.065,0,0,0,42.68,109.5a1.731,1.731,0,0,0,2.314-1.152l2.419-8.894-4.012-2.4Z" fill="none"/>
    </clipPath>
    <linearGradient id="linear-gradient-8" x1="-2.799" y1="10.88" x2="-2.721" y2="10.88" xlink:href="#linear-gradient-4"/>
    <clipPath id="clip-path-13">
      <path id="Trazado_8979" data-name="Trazado 8979" d="M45.531,91.8l-.526,9.762,5.684,1.286s2.039-10,2.018-10.149c-.161-1.113-1.542-1.428-3.05-1.428a20.41,20.41,0,0,0-4.126.529" fill="none"/>
    </clipPath>
    <linearGradient id="linear-gradient-9" x1="-3.024" y1="9.32" x2="-2.952" y2="9.32" xlink:href="#linear-gradient-4"/>
    <clipPath id="clip-path-14">
      <path id="Trazado_8980" data-name="Trazado 8980" d="M50.244,89.211a.708.708,0,0,1-1.005.305.573.573,0,0,0-.649-.022.723.723,0,0,1-.92-.108,2.641,2.641,0,0,0-3.152-.76,1.874,1.874,0,0,0-1.05,2.589.72.72,0,0,1-.456.933,1.869,1.869,0,0,0-1.258,2.725.71.71,0,0,0,.394.4c.552.223,1.82.841,1.939,1.875.126,1.1-.024,5.027-.079,6.319a.72.72,0,0,0,.352.649,23.216,23.216,0,0,0,5.01,2.05.72.72,0,0,0,.873-.425,31.267,31.267,0,0,0,1.308-4.658.721.721,0,0,0-.5-.834,6.481,6.481,0,0,0-3.19.417c-1.378.391-1.677-.976-1.735-1.376v-.2l.679-5.118a.718.718,0,0,1,.338-.52c.589-.354,1.942-1.019,2.985-.385,1.371.834,4.106,1.463,4.778-.19s.383-4.476-2.164-4.912a3.064,3.064,0,0,0-.522-.047,2.119,2.119,0,0,0-1.98,1.293" fill="none"/>
    </clipPath>
    <linearGradient id="linear-gradient-10" x1="-1.917" y1="7.055" x2="-1.867" y2="7.055" xlink:href="#linear-gradient-3"/>
    <clipPath id="clip-path-15">
      <path id="Trazado_8981" data-name="Trazado 8981" d="M41.512,97.138c.435,2.642,2.346,1.872,2.346,1.872s1.047-2.933-.029-3.651a1.919,1.919,0,0,0-1.046-.334c-.813,0-1.517.63-1.271,2.113" fill="none"/>
    </clipPath>
    <linearGradient id="linear-gradient-11" x1="-6.698" y1="19.429" x2="-6.531" y2="19.429" xlink:href="#linear-gradient-4"/>
    <clipPath id="clip-path-16">
      <path id="Trazado_8982" data-name="Trazado 8982" d="M21.694,140.837l-1.152.6c.032,2.186,2.624,1.018,2.624,1.018a26.886,26.886,0,0,1,4.449.594c1.877.477,2.478-.353,2.478-.353l-2.539-2.34Z" fill="none"/>
    </clipPath>
    <linearGradient id="linear-gradient-12" x1="-2.218" y1="7.797" x2="-2.11" y2="7.797" xlink:href="#linear-gradient-4"/>
    <clipPath id="clip-path-17">
      <path id="Trazado_8983" data-name="Trazado 8983" d="M67.092,131.7c.507.4,2.243-.43,3.306-1a1.222,1.222,0,0,0,.591-1.444c-.256-.806-.682-1.847-1.207-1.978a.393.393,0,0,0-.1-.011c-1.034,0-4.606,2.861-2.59,4.436" fill="none"/>
    </clipPath>
    <linearGradient id="linear-gradient-13" x1="-10.684" y1="16.307" x2="-10.52" y2="16.307" xlink:href="#linear-gradient-4"/>
  </defs>
  <g id="Grupo_8491" data-name="Grupo 8491">
    <g id="Grupo_8490" data-name="Grupo 8490" clip-path="url(#clip-path)">
      <path id="Trazado_8883" data-name="Trazado 8883" d="M192.627,138.979c-19.478,45.863-71.363,71.556-116.358,64.625-7.322-1.127-27.394-4.487-45.166-20.335C-3.108,152.76-10.424,92.348,17.173,49.774,37.259,18.787,73.264,1.222,107.477,2.1c7.369.189,35.612,1.356,60.432,21.822A93.068,93.068,0,0,1,186.842,45.4c17.017,26.61,18.479,63.684,5.785,93.574" fill="#f0f1f2"/>
      <path id="Trazado_8884" data-name="Trazado 8884" d="M146.011,197.842c9.99,2,22.748-8.894,26.858-20.793,4.229-12.245-3.526-17.375-3.466-34.366.068-19.3,10.109-22.211,16.75-48.228,1.5-5.87,10.17-39.84-.578-46.207-9.937-5.887-37.849,11.009-42.741,32.634-3.488,15.419,7.295,21.893,3.177,39.853-3.614,15.758-13.111,15.986-16.75,31.189-4.43,18.509,3.633,43.295,16.75,45.918" fill="#b7e8f7"/>
      <path id="Trazado_8885" data-name="Trazado 8885" d="M146.737,202.518c-2.693-20.8,2.561-52.879,7.442-76.133,5.285-25.174,11.283-45.71,11.343-45.913l.832.243c-.06.205-6.05,20.711-11.328,45.855-4.867,23.186-10.107,55.163-7.43,75.837Z" fill="#7d97f4"/>
      <path id="Trazado_8886" data-name="Trazado 8886" d="M148.638,197.01c-13.1-6.828-17.59-30.275-10.141-37.895,5.033-5.149,12.251.267,19.214-5.07,8.891-6.815,2.351-19.649,9.341-36.294,5.948-14.165,20.216-27.568,28.554-24.818,8.728,2.879,13.325,24.239,5.871,37.094-4.847,8.36-12.267,8.771-13.877,16.546-1.868,9.022,7.156,13.136,7.2,21.882.089,15.712-28.831,37.588-46.167,28.555" fill="#a1d8e5"/>
      <path id="Trazado_8887" data-name="Trazado 8887" d="M155.71,203.014l-.233-.054a.533.533,0,0,1-.247-.713c17.373-35.8,22.467-77.328,22.517-77.743a.534.534,0,0,1,1.06.126c-.05.417-5.166,42.125-22.616,78.083a.536.536,0,0,1-.481.3" fill="#7d97f4"/>
    </g>
  </g>
  <g id="Grupo_8493" data-name="Grupo 8493">
    <g id="Grupo_8492" data-name="Grupo 8492" clip-path="url(#clip-path-2)">
      <rect id="Rectángulo_4992" data-name="Rectángulo 4992" width="11.647" height="38.342" transform="translate(191.065 96.917)" fill="url(#linear-gradient)"/>
    </g>
  </g>
  <g id="Grupo_8495" data-name="Grupo 8495">
    <g id="Grupo_8494" data-name="Grupo 8494" clip-path="url(#clip-path)">
      <path id="Trazado_8889" data-name="Trazado 8889" d="M147.457,193.883l-.211-.111c-8.427-12.3-11.3-21.8-8.541-28.246,2.454-5.728,8.649-6.795,8.711-6.805a.255.255,0,0,1,.082.5c-.06.01-5.987,1.037-8.327,6.508-2.681,6.273.177,15.609,8.5,27.751a.254.254,0,0,1-.066.354Z" fill="#f0f0f0"/>
      <path id="Trazado_8890" data-name="Trazado 8890" d="M161.953,11.036c-.031,32.758-.281,145.75-2.242,185.75-.207,4.237-3.188,7.576-6.816,7.635-17.941.289-83.694.573-112.983-1.515-6.1-.435-10.829-6.329-10.8-13.481.151-34.381.947-131.075,5.122-175.285.5-5.3,4.154-9.444,8.694-9.873C62.5,2.414,128.626-1.709,153.914.774c4.561.448,8.044,4.9,8.039,10.262" fill="#002554"/>
      <path id="Trazado_8891" data-name="Trazado 8891" d="M153.732,20.905c.38,26.45,1.477,114.438-.209,146.927-.246,4.749-3.533,8.521-7.6,8.709-16.731.774-73.784,2.033-98.236-.8-4.4-.511-7.773-4.763-7.9-9.939-.645-26.989-2.4-108.935-.76-141.061.261-5.125,3.75-9.238,8.128-9.6,18.116-1.5,78.781-4.675,99.574-2.885,3.9.337,6.931,4.074,7,8.653" fill="#6ccff6"/>
      <path id="Trazado_8892" data-name="Trazado 8892" d="M147.169,28.6c.336,23.423,1.308,101.339-.185,130.111-.218,4.205-3.129,7.545-6.727,7.711-14.817.685-65.339,1.8-86.993-.712-3.9-.453-6.884-4.217-6.993-8.8C45.7,133.013,44.148,60.447,45.6,32c.231-4.537,3.32-8.181,7.2-8.5,16.042-1.328,69.764-4.14,88.177-2.554,3.457.3,6.138,3.606,6.2,7.661" fill="#3eafdb"/>
      <path id="Trazado_8893" data-name="Trazado 8893" d="M111.345,3.64c-6.536,0-13.95.57-16.806.813a1.733,1.733,0,0,0-1.47,1.491l-.039.205a1.819,1.819,0,0,0,1.562,2.282l.065,0c5.339-.243,17.282-.713,21.522-.879A1.783,1.783,0,0,0,117.747,5.7a1.777,1.777,0,0,0-1.5-1.922c-1.5-.1-3.17-.136-4.9-.136" fill="#8092aa"/>
      <path id="Trazado_8894" data-name="Trazado 8894" d="M92.167,63.7a3.8,3.8,0,0,1-3.98,3.59h-34a3.8,3.8,0,0,1-3.98-3.59V28.427a3.8,3.8,0,0,1,3.98-3.59h34a3.8,3.8,0,0,1,3.98,3.59Z" fill="#1a67b3"/>
      <path id="Trazado_8895" data-name="Trazado 8895" d="M142.576,63.7a3.8,3.8,0,0,1-3.98,3.59h-34a3.8,3.8,0,0,1-3.98-3.59V28.427a3.8,3.8,0,0,1,3.98-3.59h34a3.8,3.8,0,0,1,3.98,3.59Z" fill="#1a67b3"/>
      <path id="Trazado_8896" data-name="Trazado 8896" d="M92.167,113.762a3.8,3.8,0,0,1-3.98,3.59h-34a3.8,3.8,0,0,1-3.98-3.59V78.486a3.8,3.8,0,0,1,3.98-3.59h34a3.8,3.8,0,0,1,3.98,3.59Z" fill="#1a67b3"/>
      <path id="Trazado_8897" data-name="Trazado 8897" d="M142.576,113.762a3.8,3.8,0,0,1-3.98,3.59h-34a3.8,3.8,0,0,1-3.98-3.59V78.486a3.8,3.8,0,0,1,3.98-3.59h34a3.8,3.8,0,0,1,3.98,3.59Z" fill="#1a67b3"/>
      <path id="Trazado_8898" data-name="Trazado 8898" d="M92.167,163.82a3.8,3.8,0,0,1-3.98,3.59h-34a3.8,3.8,0,0,1-3.98-3.59V128.544a3.8,3.8,0,0,1,3.98-3.59h34a3.8,3.8,0,0,1,3.98,3.59Z" fill="#1a67b3"/>
      <path id="Trazado_8899" data-name="Trazado 8899" d="M142.576,163.82a3.8,3.8,0,0,1-3.98,3.59h-34a3.8,3.8,0,0,1-3.98-3.59V128.544a3.8,3.8,0,0,1,3.98-3.59h34a3.8,3.8,0,0,1,3.98,3.59Z" fill="#1a67b3"/>
      <path id="Trazado_8900" data-name="Trazado 8900" d="M106.844,58.708v2.225h29.507V39.1H123.791v5.284h-1.205a.349.349,0,0,0,0,.7h7.136v4.582h-4.6a.35.35,0,0,0,0,.7h10.534v4.583H124.13a.349.349,0,1,0,0,.7h5.592v4.586H118.558V57.488a.349.349,0,1,0-.7,0v2.746H107.543v-.608l.26.041a.975.975,0,0,0,.308-.051l14.058-4.695A3.025,3.025,0,0,0,123.43,50l-3.323-3.581-9.221,8.834a.35.35,0,0,0,.484.505l8.707-8.342,2.84,3.06a2.324,2.324,0,0,1-.971,3.783L107.89,58.953a.262.262,0,0,1-.275-.07.25.25,0,0,1-.05-.274l6.393-15.868a.919.919,0,0,1,1.525-.282l3.556,3.834,2.143-2.053-.974-4.876,1.61-1.542a.349.349,0,1,0-.484-.5l-1.886,1.807L120.421,44l-1.353,1.3L116,41.984a1.619,1.619,0,0,0-2.687.5l-6.392,15.866a.979.979,0,0,0-.073.362M124.49,39.8h11.163v4.585H124.49Zm11.162,20.433h-5.231V55.647h5.231Zm-5.231-15.149h5.231v4.582h-5.231Z" fill="#fff"/>
      <path id="Trazado_8901" data-name="Trazado 8901" d="M106.845,58.708h-.375v2.6h30.256V38.727H123.416v5.284h-.829a.724.724,0,1,0,0,1.449h6.76v3.832h-4.229a.725.725,0,0,0,0,1.449h10.159v3.832H124.13a.724.724,0,0,0,0,1.449h5.217v3.837H118.934V57.488a.724.724,0,0,0-1.449,0v2.371h-9.566v-.234h-.375l-.059.371.26.041.029.005h.029a1.34,1.34,0,0,0,.427-.07l14.058-4.7a3.4,3.4,0,0,0,1.417-5.531h0l-3.582-3.86-9.5,9.1a.725.725,0,1,0,1,1.046l8.432-8.078,2.582,2.783,0,0a1.95,1.95,0,0,1-.815,3.173L107.771,58.6h0l.031.1v-.1l-.031,0,.031.1V58.7l.083-.078-.083-.033V58.7l.083-.078v0l-.089.083h.119l-.03-.083-.089.083h.012l.1.041.007-.041h-.107l.1.041,6.394-15.87a.537.537,0,0,1,.406-.331h0l.1-.01a.538.538,0,0,1,.394.173h0l3.814,4.114,2.567-2.459-.974-4.876,1.461-1.4a.724.724,0,0,0,.022-1.025l-.006-.005.006.005a.727.727,0,0,0-1.024-.022h0L119.04,39l.973,4.876-.929.891-2.812-3.034a1.984,1.984,0,0,0-1.458-.638,1.947,1.947,0,0,0-.363.034,1.986,1.986,0,0,0-1.49,1.215l-6.392,15.866v0a1.335,1.335,0,0,0-.1.5h.75l.044-.221,6.393-15.867a1.238,1.238,0,0,1,.929-.758l.228-.021a1.231,1.231,0,0,1,.907.4l3.332,3.594,1.776-1.7-.973-4.876,1.738-1.665h0l-.017-.018V37.6l.017-.007-.017-.018v0l-.018.018.018.008V37.57l-.018.018h0l.018-.017h-.025l.007.017.018-.017h0l-.018-.019-.007.019h.025l-.018-.019L119.8,39.236l.974,4.876-1.719,1.647-3.3-3.555h0a1.288,1.288,0,0,0-.945-.414l-.238.022h0a1.292,1.292,0,0,0-.967.789l-6.393,15.867v0l-.049.244a.634.634,0,0,0,.172.429h0a.634.634,0,0,0,.462.2l.2-.033h0l14.058-4.695a2.7,2.7,0,0,0,1.126-4.394h0l-3.1-3.339-8.982,8.606.017.019v-.026l-.017.007.017.019v0l.019-.018-.019-.008v.026l.019-.018-.019.017h.026l-.007-.017-.019.017h0l.018.019.008-.019h-.026l.018.019,8.945-8.57,3.064,3.3a2.649,2.649,0,0,1-1.106,4.311L107.993,59.26l-.19.032v.375l.059-.371-.26-.041-.433-.069v1.423h11.066V57.488h-.026v.026l.026-.026h-.026v0h-.025l.025.026v-.026h-.025v3.121H130.1V55.272H124.13V55.3h.026l-.026-.026V55.3h0v.025l.026-.025h-.026v.025h11.9V49.991H125.118v.025h.026l-.026-.025v.025h0v.026l.026-.026h-.026v.026H130.1V44.71h-7.51v.025h.025l-.025-.025v.025h0v.026l.025-.026h-.025v.026h1.579V39.477h11.811V60.558H107.22v-1.85ZM124.49,39.8v.375h10.788v3.835H124.865V39.8h-.375v0h-.375v4.96h11.913V39.426H124.115V39.8Zm11.162,20.433v-.375H130.8V56.022h4.481v4.212h.375v0h.375V55.272h-5.981v5.337h5.981v-.375Zm-5.231-10.567h.375V45.46h4.481v3.832h-4.856v.375h0v.375h5.606V44.71h-5.981v5.332h.375Z" fill="#fff"/>
      <path id="Trazado_8902" data-name="Trazado 8902" d="M122.243,36.818a1.451,1.451,0,0,0,1.016.649l.2.014a1.454,1.454,0,0,0,.953-.356l3.376-2.937a1.706,1.706,0,0,0-2.239-2.574L122.23,34.5a1.458,1.458,0,0,0-.266,1.884Zm.446-1.787,3.322-2.889a1.007,1.007,0,0,1,1.321,1.519L123.956,36.6a.755.755,0,0,1-1.127-.159l-.278-.431a.757.757,0,0,1,.138-.977" fill="#fff"/>
      <path id="Trazado_8903" data-name="Trazado 8903" d="M122.243,36.818l-.315.2a1.822,1.822,0,0,0,1.279.816l.013,0,.216.015h.026a1.827,1.827,0,0,0,1.2-.448l3.376-2.937a2.09,2.09,0,0,0,.714-1.5V32.9a2.083,2.083,0,0,0-3.447-1.571l-3.321,2.89a1.832,1.832,0,0,0-.334,2.371l.278.43.315-.2.315-.2-.279-.431a1.082,1.082,0,0,1,.2-1.4L125.8,31.9a1.335,1.335,0,0,1,1.814.063,1.344,1.344,0,0,1,.39.942v.046h0a1.336,1.336,0,0,1-.456.958l-3.377,2.937a1.072,1.072,0,0,1-.706.264v.375l.026-.374-.2-.014-.026.374.052-.371a1.076,1.076,0,0,1-.753-.481Zm.446-1.787.246.283,3.322-2.889a.634.634,0,0,1,.861.03.618.618,0,0,1,.185.445v.024h0a.619.619,0,0,1-.216.455l-3.376,2.937h0a.375.375,0,0,1-.246.093l-.054,0a.381.381,0,0,1-.265-.169l-.278-.431-.06-.2a.377.377,0,0,1,.129-.287l-.246-.283-.246-.283a1.131,1.131,0,0,0-.207,1.464l.279.43a1.122,1.122,0,0,0,.789.5l.159.012a1.125,1.125,0,0,0,.739-.278l3.376-2.936a1.373,1.373,0,0,0,.474-.995h0V32.9a1.383,1.383,0,0,0-2.289-1.041l-3.321,2.889Z" fill="#fff"/>
      <path id="Trazado_8904" data-name="Trazado 8904" d="M83.9,104.368l-7.121-7.122a.666.666,0,0,0-.941,0L74.71,98.38l-3.636-3.635a1.169,1.169,0,0,1,0-1.649l7.474-7.473a1.768,1.768,0,0,0,0-2.5l-1.674-1.674a1.81,1.81,0,0,0-2.5,0l-.159.16-1.224-1.223-1.195.487a1.282,1.282,0,0,0-1.529.177L56.907,94.408a1.25,1.25,0,0,0,0,1.766l3.211,3.211a1.248,1.248,0,0,0,1.766,0L75.243,86.026a1.248,1.248,0,0,0,.179-1.532l.485-1.192-1.223-1.223.161-.16a1.129,1.129,0,0,1,1.557,0l1.674,1.675a1.1,1.1,0,0,1,0,1.557L70.6,92.624a1.835,1.835,0,0,0,0,2.593l3.635,3.635L73.1,99.986a.665.665,0,0,0,0,.941l7.121,7.121a.668.668,0,0,0,.941,0l2.739-2.739a.665.665,0,0,0,0-.941M61.412,98.913a.594.594,0,0,1-.822,0L57.379,95.7a.581.581,0,0,1,0-.822L70.738,81.521a.581.581,0,0,1,.821,0l3.212,3.211a.584.584,0,0,1,0,.823L61.412,98.913m13.513-14.97-2.577-2.577.483-.2,2.291,2.291-.2.482M76.314,97.72l.59.589-2.738,2.738-.59-.589,2.738-2.738m4.383,9.856-6.059-6.057,2.737-2.738,6.058,6.056L80.7,107.576" fill="#fff"/>
      <path id="Trazado_8905" data-name="Trazado 8905" d="M83.9,104.368l.265-.265-7.121-7.122a1.041,1.041,0,0,0-1.471,0l-.868.868-3.37-3.37a.793.793,0,0,1,0-1.119l7.473-7.473a2.143,2.143,0,0,0,0-3.031l-1.674-1.674a2.184,2.184,0,0,0-3.032,0l-.16.159.266.266.265-.266-1.4-1.4-1.426.581.141.348.19-.324a1.668,1.668,0,0,0-.841-.225A1.614,1.614,0,0,0,70,80.784L56.642,94.143a1.625,1.625,0,0,0,0,2.3l3.211,3.211a1.622,1.622,0,0,0,2.3,0L75.508,86.292a1.618,1.618,0,0,0,.473-1.144,1.634,1.634,0,0,0-.239-.85l-.32.2.347.141.58-1.422-1.4-1.4-.266.265.266.266.16-.16a.751.751,0,0,1,1.027,0l1.674,1.674a.728.728,0,0,1,0,1.027l-7.473,7.473a2.21,2.21,0,0,0,0,3.123l3.369,3.37-.868.869a1.039,1.039,0,0,0,0,1.471l7.121,7.121a1.042,1.042,0,0,0,1.471,0l2.739-2.739a1.041,1.041,0,0,0,0-1.472l-.265.266-.265.265.085.2-.085.205-2.739,2.74-.205.084-.205-.084-7.122-7.122-.085-.205.085-.205,1.4-1.4-3.9-3.9a1.461,1.461,0,0,1,0-2.062l7.473-7.474a1.477,1.477,0,0,0,0-2.088l-1.674-1.674a1.5,1.5,0,0,0-2.088,0l-.16.16-.265.265,1.312,1.312L75,84.527l.1.162a.888.888,0,0,1,.129.459.863.863,0,0,1-.254.613L61.619,99.12a.874.874,0,0,1-1.236,0l-3.211-3.212a.875.875,0,0,1,0-1.235L70.531,81.314a.866.866,0,0,1,.612-.241.919.919,0,0,1,.462.122l.159.094,1.136-.463,1.313,1.312.425-.425a1.435,1.435,0,0,1,1.971,0l1.673,1.674a1.392,1.392,0,0,1,0,1.971l-7.473,7.473a1.544,1.544,0,0,0,0,2.179l3.9,3.9,1.4-1.4.205-.085.2.084,7.121,7.122ZM61.412,98.913l-.266-.264L61,98.7l-.146-.055-3.211-3.211-.06-.147.06-.145L71,81.786l.145-.06.146.06L74.5,85l.061.146-.06.146L61.147,98.648h0l.266.264.265.265L75.036,85.82a.957.957,0,0,0,0-1.353l-3.212-3.211a.956.956,0,0,0-1.352,0L57.113,94.614a.96.96,0,0,0,0,1.353l3.212,3.211a.97.97,0,0,0,1.353,0h0l-.265-.265m13.513-14.97.266-.265L72.614,81.1l-.266.265.142.348.252-.1,1.939,1.939-.1.252.347.141.266-.265-.266.265.348.142.2-.483.094-.23L72.92,80.728l-.713.291-.523.213,3.375,3.376.214-.523-.348-.142M76.314,97.72l-.265.265.324.324-2.207,2.208-.06-.059,2.473-2.473-.265-.265-.265.265.265-.265-.265-.265-3,3,1.12,1.119,3.268-3.268-1.12-1.119-.265.265.265.265m4.383,9.856.265-.265-5.794-5.792,2.208-2.208,5.527,5.526-2.471,2.474.265.265.265-.265-.265.265.265.265,3-3-6.589-6.586-3.268,3.268,6.59,6.587.265-.265-.265-.265" fill="#fff"/>
      <rect id="Rectángulo_4993" data-name="Rectángulo 4993" width="14.006" height="0.667" transform="matrix(0.707, -0.707, 0.707, 0.707, 58.35, 95.136)" fill="#fff"/>
      <path id="Trazado_8906" data-name="Trazado 8906" d="M58.35,95.136l-.265.265.472.472.265.265L69.256,85.7l-1-1L57.82,95.136l.265.265.265-.265.265.265,9.639-9.638.206.206.265-.265-.265-.265-9.638,9.638-.207-.206-.265.265.265.265Z" fill="#fff"/>
      <rect id="Rectángulo_4994" data-name="Rectángulo 4994" width="0.581" height="0.668" transform="matrix(0.707, -0.707, 0.707, 0.707, 68.959, 84.527)" fill="#fff"/>
      <path id="Trazado_8907" data-name="Trazado 8907" d="M68.959,84.527l-.265.265.472.472.265.265.941-.941-1-1-.941.941.265.265.265-.265.265.265.146-.146.207.207.265-.265-.265-.265-.146.145-.207-.206-.265.265.265.265Z" fill="#fff"/>
      <path id="Trazado_8908" data-name="Trazado 8908" d="M78.879,87.277v2.834a1.149,1.149,0,0,1-1.145,1.15h-.57a1.406,1.406,0,0,0-1.406,1.4V93.1a3.178,3.178,0,0,1-1.584,2.745.334.334,0,0,0,.167.623l.166-.045A3.846,3.846,0,0,0,76.425,93.1v-.437a.738.738,0,0,1,.739-.734h.57a1.817,1.817,0,0,0,1.812-1.817V87.277a.334.334,0,1,0-.667,0" fill="#fff"/>
      <path id="Trazado_8909" data-name="Trazado 8909" d="M78.879,87.277H78.5v2.834a.777.777,0,0,1-.77.775h-.57a1.78,1.78,0,0,0-1.781,1.776V93.1a2.8,2.8,0,0,1-1.4,2.42.709.709,0,0,0,.355,1.323h.049l.215-.058.047-.012.043-.025A4.22,4.22,0,0,0,76.8,93.1v-.437a.364.364,0,0,1,.364-.359h.57a2.191,2.191,0,0,0,2.187-2.192V87.277a.709.709,0,1,0-1.417,0h.709v.041l.041-.041h-.041v0h-.042l.042.041v-.041h-.042v2.834a1.443,1.443,0,0,1-1.437,1.442h-.57a1.113,1.113,0,0,0-1.114,1.109V93.1a3.469,3.469,0,0,1-1.73,3l.187.325-.1-.362-.166.045.1.362v-.334l.035-.021-.035-.02v.041l.035-.021-.036.021h.042l-.006-.02-.036.02h0l.02.036.021-.036h-.041l.02.036a3.554,3.554,0,0,0,1.772-3.07v-.437a1.032,1.032,0,0,1,1.031-1.026h.57a1.524,1.524,0,0,0,1.52-1.525V87.277Z" fill="#fff"/>
      <path id="Trazado_8910" data-name="Trazado 8910" d="M71.109,97.579a4.83,4.83,0,0,0-1.3,3.3v6.268a1.016,1.016,0,0,1-1.017,1.017,1.013,1.013,0,0,1-1.011-1.012v-6.941A1.22,1.22,0,0,0,66.548,99a1.187,1.187,0,0,0-1.186,1.186v4.071a1.016,1.016,0,0,1-1.011,1.011,1.015,1.015,0,0,1-1.017-1.011v-2.115a1.212,1.212,0,0,0-2.423,0v4.045a1.015,1.015,0,0,1-.3.722.989.989,0,0,1-.712.295,1.018,1.018,0,0,1-1.016-1.017V100.3a.334.334,0,0,0-.668,0v5.889a1.686,1.686,0,0,0,1.684,1.684,1.683,1.683,0,0,0,1.679-1.684v-4.045a.545.545,0,0,1,1.089,0v2.115a1.683,1.683,0,0,0,1.684,1.679,1.643,1.643,0,0,0,1.183-.491,1.668,1.668,0,0,0,.5-1.188v-4.071a.524.524,0,0,1,.539-.519.548.548,0,0,1,.55.544v6.941a1.681,1.681,0,0,0,2.872,1.184,1.7,1.7,0,0,0,.491-1.189v-6.268A4.164,4.164,0,0,1,71.6,98.034a.334.334,0,1,0-.488-.455" fill="#fff"/>
      <path id="Trazado_8911" data-name="Trazado 8911" d="M71.109,97.579l-.274-.256a5.206,5.206,0,0,0-1.4,3.559v6.268a.645.645,0,0,1-.188.454l.268.263-.263-.268a.653.653,0,0,1-.459.193.64.64,0,0,1-.636-.637v-6.941a1.6,1.6,0,0,0-1.612-1.586,1.562,1.562,0,0,0-1.561,1.561v4.071a.612.612,0,0,1-.187.448l0,0,0,0a.612.612,0,0,1-.443.182.641.641,0,0,1-.642-.636v-2.115a1.587,1.587,0,0,0-3.173,0v4.045a.638.638,0,0,1-.191.457l0,0a.611.611,0,0,1-.444.183.644.644,0,0,1-.641-.642V100.3a.709.709,0,0,0-1.418,0v5.889a2.056,2.056,0,0,0,3.513,1.453l-.268-.262.265.265a2.044,2.044,0,0,0,.6-1.456v-4.045a.17.17,0,0,1,.339,0v2.115a2.059,2.059,0,0,0,2.059,2.054,2.022,2.022,0,0,0,1.451-.6l-.268-.262.262.268a2.04,2.04,0,0,0,.608-1.456v-4.071c0-.076.052-.139.164-.144a.174.174,0,0,1,.175.169v6.941a2.055,2.055,0,0,0,3.509,1.451l0,0,0,0a2.07,2.07,0,0,0,.6-1.451v-6.268a3.787,3.787,0,0,1,1.016-2.593.708.708,0,0,0-.036-1,.709.709,0,0,0-1,.036h0l.274.256.275.255-.031-.029v.043l.031-.014-.031-.029v0l-.028.03.028.012v-.042l-.028.03.028-.03h-.041l.013.031.028-.031h0l-.03-.028-.011.028h.041l-.03-.028a4.537,4.537,0,0,0-1.217,3.1v6.268a1.318,1.318,0,0,1-.384.926l.268.263-.263-.268a1.305,1.305,0,0,1-2.234-.916v-6.941a.929.929,0,0,0-1.571-.661.888.888,0,0,0-.268.636v4.071a1.293,1.293,0,0,1-.382.92l0,0,0,0a1.272,1.272,0,0,1-.915.378,1.311,1.311,0,0,1-1.309-1.3v-2.115a.92.92,0,0,0-1.839,0v4.045a1.3,1.3,0,0,1-.383.926h0v0a1.294,1.294,0,0,1-.918.38,1.314,1.314,0,0,1-1.309-1.309V100.3h-.041v.042l.041-.042h-.041v0h-.041l.041.042V100.3h-.041v5.889a1.392,1.392,0,0,0,1.391,1.392,1.364,1.364,0,0,0,.98-.408l0,0a1.388,1.388,0,0,0,.41-.987v-4.045a.837.837,0,0,1,1.673,0v2.115a1.39,1.39,0,0,0,1.392,1.386,1.359,1.359,0,0,0,.979-.408l-.268-.262.262.268a1.365,1.365,0,0,0,.413-.984v-4.071a.813.813,0,0,1,.811-.811.843.843,0,0,1,.862.836v6.941a1.388,1.388,0,0,0,1.386,1.387,1.406,1.406,0,0,0,.985-.408l0,0,0,0a1.4,1.4,0,0,0,.4-.979v-6.268a4.451,4.451,0,0,1,1.195-3.047h0Z" fill="#fff"/>
      <path id="Trazado_8912" data-name="Trazado 8912" d="M114.5,98.469l-1.048,1.048a2.677,2.677,0,0,0,0,3.781l3.856,3.856.728-.729a3.126,3.126,0,0,0,0-4.42Zm3.023,7.444-.215.215-3.343-3.343a1.951,1.951,0,0,1,0-2.755l.535-.535,3.023,3.023a2.4,2.4,0,0,1,0,3.4" fill="#fff"/>
      <path id="Trazado_8913" data-name="Trazado 8913" d="M114.5,98.469l-.265-.265-1.048,1.048a3.053,3.053,0,0,0,0,4.311l4.121,4.121.993-.993a3.5,3.5,0,0,0,0-4.951l-3.8-3.8-.265.265.265.265-.265.266,3.536,3.535a2.752,2.752,0,0,1,0,3.89l-.463.463-3.59-3.591a2.3,2.3,0,0,1,0-3.249l1.047-1.048-.265-.266-.265.266Zm3.023,7.444-.265-.265-.215.215.265.265.265-.265-3.342-3.343a1.575,1.575,0,0,1,0-2.225l.269-.27,2.758,2.758a2.024,2.024,0,0,1,0,2.865l.265.265.265.265a2.773,2.773,0,0,0,0-3.925L114.5,98.965l-.8.8a2.326,2.326,0,0,0,0,3.285l3.608,3.609.48-.481-.265-.265" fill="#fff"/>
      <path id="Trazado_8914" data-name="Trazado 8914" d="M136.908,85.7l-5.676-5.676L116.065,95.195a1.155,1.155,0,0,0-1.335.211l-6.476,6.476a1.581,1.581,0,0,0,1.676,2.6,1.767,1.767,0,0,1,1.871.4l2.95,2.951a.6.6,0,0,1,0,.852,1.365,1.365,0,0,0,.965,2.329,1.353,1.353,0,0,0,.965-.4l5.73-5.73a1.151,1.151,0,0,0,.287-1.163l-.161-.518,1.786-2.109a.368.368,0,0,0,.086-.25l-.088-2.024,1.841-.078a.361.361,0,0,0,.346-.377l-.084-2.028,1.835-.078a.363.363,0,0,0,.347-.377l-.082-2.031,1.841-.078a.362.362,0,0,0,.347-.377l-.084-2.028,1.841-.078a.362.362,0,0,0,.347-.377l-.085-2.028,1.835-.078a.363.363,0,0,0,.347-.376l-.079-2.029,1.835-.078a.362.362,0,0,0,.347-.378.374.374,0,0,0-.108-.243M121.9,104.372l-5.731,5.73a.655.655,0,0,1-.9,0,.642.642,0,0,1,0-.9,1.327,1.327,0,0,0,0-1.876l-2.95-2.951a2.5,2.5,0,0,0-2.64-.57.856.856,0,0,1-.907-1.406l6.476-6.475a.432.432,0,0,1,.611,0l5.231,5.23.108.178.813,2.61a.433.433,0,0,1-.107.435m12.543-18.679a.363.363,0,0,0-.347.376l.079,2.029-1.836.078a.363.363,0,0,0-.347.377l.085,2.028-1.841.078a.363.363,0,0,0-.347.377l.085,2.028-1.841.078a.362.362,0,0,0-.347.377l.082,2.031-1.836.078a.362.362,0,0,0-.346.377l.084,2.028-1.841.078a.36.36,0,0,0-.252.117.364.364,0,0,0-.1.261l.1,2.245-1.4,1.649-.4-1.273a1.183,1.183,0,0,0-.287-.473l-4.975-4.975,14.609-14.609,4.582,4.582-1.372.058" fill="#fff"/>
      <path id="Trazado_8915" data-name="Trazado 8915" d="M136.908,85.7l.265-.265L131.232,79.5,115.8,94.929l.265.266.167-.336a1.552,1.552,0,0,0-.691-.163,1.521,1.521,0,0,0-1.076.445l-6.476,6.475a1.956,1.956,0,0,0,1.385,3.339,1.933,1.933,0,0,0,.688-.126,1.426,1.426,0,0,1,.488-.089,1.4,1.4,0,0,1,.986.407l2.95,2.951.067.161-.067.161a1.739,1.739,0,1,0,2.461,2.459l5.729-5.73a1.526,1.526,0,0,0,.38-1.539l-.1-.322,1.653-1.952a.735.735,0,0,0,.175-.477v-.029h0l-.071-1.65,1.465-.062a.738.738,0,0,0,.707-.737v-.03h0l-.069-1.653,1.461-.062a.738.738,0,0,0,.706-.737v-.029l-.066-1.658,1.467-.062a.74.74,0,0,0,.707-.737v-.028h0l-.069-1.655,1.467-.062a.738.738,0,0,0,.706-.737V90.9l-.07-1.655,1.461-.062a.738.738,0,0,0,.706-.737v-.028l-.064-1.656,1.462-.062a.74.74,0,0,0,.707-.737v-.03h0a.751.751,0,0,0-.215-.49h0l0,0-.265.265-.268.263,0,0,.015-.007h-.016v.006l.015-.007h-.016v0h.012v-.013l-.011.013h.012v-.013l-2.209.094.094,2.4v0h.012v-.013l-.012.013h.012v-.013l-2.209.094.1,2.4v0h.013v-.013l-.012.013h.013v-.013l-2.215.094.1,2.4v0h.012V93.4l-.012.013h.012V93.4l-2.216.094.1,2.406v0h.012v-.012l-.012.012h.012v-.012l-2.209.093.1,2.4h.012v-.012l-.012.012h.012v-.012l-2.216.093.1,2.4v0h.012l-.009-.007,0,.007h.012l-.009-.007-1.92,2.266.223.715.036.234a.778.778,0,0,1-.23.552l-5.73,5.73a.989.989,0,0,1-1.4-1.4.978.978,0,0,0,0-1.382l-2.951-2.951a2.147,2.147,0,0,0-1.516-.627,2.12,2.12,0,0,0-.753.138,1.189,1.189,0,0,1-.423.077,1.2,1.2,0,0,1-.854-2.058L115,95.671a.77.77,0,0,1,.546-.225.8.8,0,0,1,.356.084l.242.121,15.093-15.093,5.411,5.41,0,0ZM121.9,104.372l-.265-.266-5.731,5.731-.187.071-.186-.071-.078-.187.078-.187a1.707,1.707,0,0,0,0-2.408l-2.951-2.95a2.871,2.871,0,0,0-3.037-.656h0l-.168.03a.481.481,0,0,1-.34-.14h0a.48.48,0,0,1,0-.68l6.476-6.475h0l.04-.016.04.016,5.2,5.2.061.1.8,2.566,0,.018-.017.04.265.266.265.265a.81.81,0,0,0,.237-.571l-.037-.241-.827-2.654-.131-.216-.024-.039-5.263-5.263a.808.808,0,0,0-1.142,0l-6.475,6.475a1.23,1.23,0,0,0,0,1.741h0a1.231,1.231,0,0,0,1.305.282h0a2.122,2.122,0,0,1,2.243.484l2.95,2.951a.954.954,0,0,1,0,1.346,1.015,1.015,0,0,0,1.435,1.435l5.73-5.73-.265-.265m12.543-18.679-.016-.375a.738.738,0,0,0-.706.737v.029l.065,1.655-1.462.062a.738.738,0,0,0-.707.737v.033l.069,1.651-1.466.062a.738.738,0,0,0-.707.737v.031l.069,1.653-1.467.062a.737.737,0,0,0-.706.736v.035l.375-.019-.375.015.067,1.657-1.462.063a.737.737,0,0,0-.706.736v.031l.069,1.653-1.467.062a.745.745,0,0,0-.513.239h0a.734.734,0,0,0-.2.5V98.5l.091,2.1-.861,1.017-.193-.621v0a1.551,1.551,0,0,0-.379-.625l-4.71-4.71,14.079-14.079,3.714,3.713-.52.022.016.375.016.375,2.225-.1-5.451-5.451-15.14,15.14,5.241,5.24a.808.808,0,0,1,.194.321h0l.6,1.924,1.933-2.282-.1-2.392v0l-.065,0h.065v0l-.065,0h.051l.011.009,0-.009h-.014l.011.009,0,0,0,0-.01-.009v.014l.009,0-.01-.009v.014l2.215-.094-.1-2.4v0l-.079,0h.079v0l-.079,0h.067V96l.012-.013h-.012V96l2.209-.094-.1-2.407v0l-.077,0h.078v0l-.077,0h.065v.013l.012-.013h-.013v.013l2.215-.093-.1-2.4v0l-.065,0h.065v0l-.065,0h.053v.012l.012-.012h-.012v.012l2.216-.093-.1-2.4h0l-.062,0h.062v0l-.062,0h.05v.013l.012-.013h-.012v.013l2.209-.094-.093-2.4h0l-.081,0h.081v0l-.081,0h.068v.013l.012-.013h-.013v.013l-.016-.375" fill="#fff"/>
      <path id="Trazado_8916" data-name="Trazado 8916" d="M130.4,82.557a1.132,1.132,0,0,0,0,1.6h0a1.131,1.131,0,1,0,1.6-1.6,1.157,1.157,0,0,0-1.6,0m1.087,1.087a.417.417,0,0,1-.575,0,.408.408,0,0,1,0-.575.418.418,0,0,1,.576,0,.408.408,0,0,1,0,.575" fill="#fff"/>
      <path id="Trazado_8917" data-name="Trazado 8917" d="M130.4,82.557l-.266-.265a1.509,1.509,0,0,0,0,2.13l.045.044.057.028.164-.337-.265.265a1.505,1.505,0,0,0,2.13,0l0,0-.006.006a1.506,1.506,0,0,0-2.129-2.131h0l.266.265.265.265a.757.757,0,0,1,1.292.535h0a.749.749,0,0,1-.222.535h0a.757.757,0,0,1-1.069,0l-.044-.045-.057-.028-.164.337.265-.265a.758.758,0,0,1,0-1.07h0Zm1.087,1.087-.265-.265-.022.005-.023-.006h0l-.01-.023.009-.022h0l.023-.006.023.006h0l.009.023-.009.021h0l.265.265.265.266a.783.783,0,0,0,0-1.106h0a.782.782,0,0,0-1.106,1.1h0a.791.791,0,0,0,1.105,0h0Z" fill="#fff"/>
      <path id="Trazado_8918" data-name="Trazado 8918" d="M134.665,134.559c-2.972-2.972-8.618-1.937-11.493.937l-5.262,5.262,3.426,3.426a1.342,1.342,0,0,0,.057,1.836l-5.082,5.082-3.42-1.176a2.465,2.465,0,0,0-2.527.584l-2.048,2.049a2.452,2.452,0,0,0,0,3.462l4.885,4.885a2.452,2.452,0,0,0,3.463,0l2.048-2.049a2.463,2.463,0,0,0,.584-2.526l-1.175-3.42,5.081-5.081a1.345,1.345,0,0,0,.952.392h.027a1.35,1.35,0,0,0,.858-.335l3.427,3.427,5.262-5.263c2.873-2.874,3.909-8.52.937-11.492m-16.01,21.992a1.783,1.783,0,0,1-.422,1.827l-2.049,2.049a1.773,1.773,0,0,1-2.5,0l-4.885-4.886a1.772,1.772,0,0,1,0-2.5l2.048-2.048a1.783,1.783,0,0,1,1.827-.423l3.82,1.313,5.381-5.38.85.851-5.38,5.38Zm6.624-9.383a.354.354,0,0,0-.49.011l-.132.145a.684.684,0,0,1-.489.22.627.627,0,0,1-.491-.2l-1.8-1.8a.677.677,0,0,1,.02-.978l4.86-4.467a1.563,1.563,0,0,1,2.167.046l.148.147a1.579,1.579,0,0,1,.307.436.339.339,0,1,0,.613-.29,2.221,2.221,0,0,0-.441-.625l-.147-.147a2.241,2.241,0,0,0-3.1-.066l-4.474,4.112-2.957-2.957,4.783-4.783c2.6-2.6,7.875-3.594,10.533-.937s1.661,7.936-.937,10.534l-4.782,4.783Z" fill="#fff"/>
      <path id="Trazado_8919" data-name="Trazado 8919" d="M134.665,134.559l.265-.265a6.935,6.935,0,0,0-5-1.9,10.277,10.277,0,0,0-7.025,2.832l-5.527,5.527,3.691,3.692.265-.266-.282-.246a1.711,1.711,0,0,0-.428,1.089v.041a1.718,1.718,0,0,0,.5,1.216l.266-.264-.265-.265-4.916,4.916-3.2-1.1a2.8,2.8,0,0,0-.91-.151,2.839,2.839,0,0,0-2,.825l-2.048,2.049a2.827,2.827,0,0,0,0,3.992l4.885,4.885a2.826,2.826,0,0,0,3.993,0l2.049-2.048a2.842,2.842,0,0,0,.824-2,2.8,2.8,0,0,0-.151-.911l-1.1-3.2,4.915-4.916-.265-.265-.264.266a1.718,1.718,0,0,0,1.216.5h.034a1.724,1.724,0,0,0,1.1-.427l-.245-.283-.265.265,3.692,3.692,5.527-5.528a10.27,10.27,0,0,0,2.831-7.025,6.933,6.933,0,0,0-1.894-5l-.265.265-.265.265a6.182,6.182,0,0,1,1.674,4.467,9.538,9.538,0,0,1-2.611,6.495l-5,5-3.409-3.408-.263.228a.971.971,0,0,1-.621.244h-.019a.968.968,0,0,1-.688-.284l-.265-.262-5.511,5.511,1.251,3.641a2.038,2.038,0,0,1,.111.667,2.092,2.092,0,0,1-.605,1.472l-2.049,2.049a2.075,2.075,0,0,1-2.931,0l-4.885-4.886a2.076,2.076,0,0,1,0-2.931l2.048-2.048a2.093,2.093,0,0,1,1.474-.606,2.036,2.036,0,0,1,.666.111l3.642,1.251,5.511-5.511-.262-.265a.962.962,0,0,1-.284-.688v-.023h0a.959.959,0,0,1,.243-.613l.23-.264-3.408-3.409,5-5a9.545,9.545,0,0,1,6.5-2.612,6.188,6.188,0,0,1,4.468,1.675Zm-16.01,21.992-.355.122a1.381,1.381,0,0,1,.074.449,1.4,1.4,0,0,1-.407.991l-2.048,2.049a1.4,1.4,0,0,1-1.973,0l-4.885-4.885a1.4,1.4,0,0,1,0-1.973l2.048-2.048a1.408,1.408,0,0,1,.992-.407,1.375,1.375,0,0,1,.448.074l4.042,1.389,5.281-5.281.32.32-5.281,5.281,1.389,4.042.355-.122.354-.121-1.236-3.6,5.48-5.479-1.381-1.381-5.48,5.48-3.6-1.238a2.16,2.16,0,0,0-2.214.513l-2.048,2.048a2.145,2.145,0,0,0,0,3.033l4.885,4.886a2.147,2.147,0,0,0,3.033,0l2.049-2.049a2.16,2.16,0,0,0,.512-2.213Zm6.624-9.383.253-.277a.737.737,0,0,0-.5-.191.7.7,0,0,0-.523.226l-.133.146,0,0-.221.1h-.026l-.193-.089-1.8-1.8-.089-.214v-.009l.1-.214,4.861-4.467a1.188,1.188,0,0,1,1.648.035l.148.147a1.189,1.189,0,0,1,.233.331h0a.714.714,0,0,0,1.291-.611,2.61,2.61,0,0,0-.515-.731l-.147-.146a2.615,2.615,0,0,0-3.623-.078l-4.211,3.869-2.437-2.437,4.518-4.517a8.907,8.907,0,0,1,6.03-2.4,5.034,5.034,0,0,1,5.431,5.43,8.914,8.914,0,0,1-2.4,6.031l-4.517,4.517-2.928-2.927-.006-.006-.253.277-.265.265,3.452,3.452,5.047-5.048a9.641,9.641,0,0,0,2.615-6.561,5.779,5.779,0,0,0-6.181-6.18,9.638,9.638,0,0,0-6.56,2.614l-5.049,5.048,3.477,3.476,4.739-4.355a1.865,1.865,0,0,1,2.586.055l.147.147a1.852,1.852,0,0,1,.367.52l.033-.015h-.037l0,.015.033-.015h0l-.015-.032-.021.032h.036l-.015-.032.016.035v-.039l-.017,0,.017.035v-.005l.031-.015-.031-.019v.034l.031-.015h0a1.944,1.944,0,0,0-.381-.54l-.148-.147a1.937,1.937,0,0,0-2.685-.057l-4.861,4.467h0a1.044,1.044,0,0,0-.341.751l.375.008-.375-.012v.029a1.047,1.047,0,0,0,.308.744l1.8,1.8a1,1,0,0,0,.723.309l.049,0-.016-.374.007.375a1.06,1.06,0,0,0,.757-.34l0,0,.132-.144h0l-.03-.028v.046l.03-.018-.03-.028v.032l-.009.009.009,0v-.014l-.009.009.253-.277-.265.265Z" fill="#fff"/>
      <path id="Trazado_8920" data-name="Trazado 8920" d="M128.545,143.089l-2.691,2.93a.34.34,0,0,0,.021.479l.229.089a.338.338,0,0,0,.25-.11l2.69-2.93a.339.339,0,0,0-.5-.458" fill="#fff"/>
      <path id="Trazado_8921" data-name="Trazado 8921" d="M128.545,143.089l-.276-.254-2.691,2.93a.714.714,0,0,0,.043,1.009l.052.047.3.115.065.026h.071a.717.717,0,0,0,.526-.231l2.69-2.93a.714.714,0,1,0-1.052-.965h0l.276.254.277.253-.028-.026v.038l.028-.012-.028-.026v0l-.023.025.023.009v-.034l-.023.025.024-.027h-.037l.012.027.025-.027h0l-.027-.025-.01.025h.037l-.027-.025-2.691,2.931.027.024v-.036l-.027.012.027.024v.339l.136-.349-.229-.09-.136.35.253-.277-.024.027h.036l-.012-.027-.024.027h0l.027.025.01-.025H126.1l.027.025,2.691-2.93h0Z" fill="#fff"/>
      <path id="Trazado_8922" data-name="Trazado 8922" d="M112.281,151.705a.56.56,0,0,0-.586.135l-2.049,2.049a.569.569,0,0,0,0,.8l4.886,4.886a.565.565,0,0,0,.8,0l2.048-2.048a.563.563,0,0,0,.135-.585l-1.339-3.9Zm2.652,7.313-4.729-4.727,1.921-1.923,3.519,1.21,1.21,3.519Z" fill="#fff"/>
      <path id="Trazado_8923" data-name="Trazado 8923" d="M112.281,151.705l.123-.354a.949.949,0,0,0-.311-.052.936.936,0,0,0-.665.277l-2.047,2.049a.938.938,0,0,0-.275.664.949.949,0,0,0,.274.666v0l4.886,4.884h0a.939.939,0,0,0,1.333,0l2.048-2.048a.929.929,0,0,0,.276-.664.944.944,0,0,0-.051-.309l-1.4-4.07-4.07-1.4h0l-.123.354-.122.355,3.724,1.28,1.279,3.724.011.065-.056.135-2.048,2.048-.136.056-.135-.056h0l-4.886-4.886h0l-.056-.137.055-.135,2.052-2.051h0l.132-.055.065.01h0Zm2.652,7.313.265-.265-4.463-4.462,1.49-1.492,3.124,1.075L116.423,157l-1.755,1.756.265.265.265-.265-.265.265.265.266,2.086-2.087-1.345-3.913-3.913-1.346-2.352,2.353,5.259,5.258.265-.265Z" fill="#fff"/>
      <path id="Trazado_8924" data-name="Trazado 8924" d="M69.008,142.94c-.131.044-.26.094-.387.148a.331.331,0,0,0,.131.635l.131-.027c.11-.047.222-.091.337-.129a.331.331,0,0,0-.212-.627" fill="#fff"/>
      <path id="Trazado_8925" data-name="Trazado 8925" d="M69.008,142.94l-.12-.355c-.141.047-.28.1-.415.159a.705.705,0,0,0-.369.928h0a.706.706,0,0,0,.648.427h.039l.168-.035.037-.007.035-.015c.1-.044.2-.084.309-.119a.707.707,0,0,0,.48-.669l-.037-.225h0a.708.708,0,0,0-.67-.479l-.227.037h0l.12.355.122.355-.017-.049v.051l.017,0-.017-.049v.008l-.041.014.041.029v-.043l-.041.014h0l.042-.014H69.07l0,.014.042-.014h0l-.014-.042-.03.042h.044l-.014-.042c-.125.043-.246.089-.365.141l.148.344-.076-.367-.131.027.076.367v-.33l.041-.018-.041-.027v.045l.041-.018h0l-.041.018H68.8l0-.018-.041.018h0l.018.041.026-.041h-.044l.018.041c.117-.051.237-.1.358-.138h0Z" fill="#fff"/>
      <path id="Trazado_8926" data-name="Trazado 8926" d="M67.6,143.686a4.988,4.988,0,0,0-2.006,4.017.331.331,0,0,0,.662,0,4.33,4.33,0,0,1,1.742-3.488.331.331,0,0,0-.4-.529" fill="#fff"/>
      <path id="Trazado_8927" data-name="Trazado 8927" d="M67.6,143.686l-.226-.3a5.365,5.365,0,0,0-2.155,4.317.706.706,0,0,0,1.412,0,3.956,3.956,0,0,1,1.592-3.189.7.7,0,0,0,.14-.988h0a.707.707,0,0,0-.987-.139h0l.226.3.225.3-.026-.035v.044l.026-.009-.026-.035v0l-.035.026.035.018v-.044l-.035.026h0l.036-.027H67.75l.008.027.036-.027h0l-.026-.035-.017.035h.043l-.026-.035a4.709,4.709,0,0,0-1.891,3.788h.044v-.044l-.044.044h.044v0h.044l-.044-.044v.044h.044a4.608,4.608,0,0,1,1.857-3.717h0Z" fill="#fff"/>
      <path id="Trazado_8928" data-name="Trazado 8928" d="M60.1,145.331a.331.331,0,0,0-.331.331v4.084a.331.331,0,0,0,.662,0v-4.084a.331.331,0,0,0-.331-.331" fill="#fff"/>
      <path id="Trazado_8929" data-name="Trazado 8929" d="M60.1,145.331v-.375a.706.706,0,0,0-.706.706v4.084a.706.706,0,0,0,1.412,0v-4.084a.706.706,0,0,0-.706-.706v.706h-.044l.044.044v-.044h-.044v4.084H60.1V149.7l-.044.044H60.1v0h.044L60.1,149.7v.044h.044v-4.084H60.1v.044l.044-.044H60.1v-.331Z" fill="#fff"/>
      <path id="Trazado_8930" data-name="Trazado 8930" d="M84.356,142.109a3.536,3.536,0,0,0-2.513,1.038,3.257,3.257,0,0,0-.455.556H76.351a6.974,6.974,0,0,0-3.182-2.516v-1.344h.753v-.662H72.03V138.06H76.7v-.331a2.473,2.473,0,0,0-2.47-2.47H71.9v-.145a1.283,1.283,0,0,0-2.565,0v.145H67a2.473,2.473,0,0,0-2.47,2.47v.331H69.2v1.121H67.309v.662h.753V141.2a7.031,7.031,0,0,0-3.187,2.505H59.84a3.229,3.229,0,0,0-.452-.552,3.513,3.513,0,0,0-2.512-1.042h-.331V153.3h.331a3.559,3.559,0,0,0,2.962-1.6h5.048a6.958,6.958,0,0,0,5.73,3,7.034,7.034,0,0,0,5.737-3H81.39a3.564,3.564,0,0,0,2.966,1.6h.331V142.109ZM70,135.114a.62.62,0,1,1,1.241,0v.145H70Zm-3,.806h7.237a1.811,1.811,0,0,1,1.778,1.478H65.219A1.812,1.812,0,0,1,67,135.92m2.866,2.14h1.5v1.121h-1.5Zm-1.139,1.783h3.783v1.131a7.05,7.05,0,0,0-1.891-.266,6.955,6.955,0,0,0-1.892.265Zm-3.673,11.2H59.464l-.1.164a2.9,2.9,0,0,1-2.161,1.412v-9.828a2.85,2.85,0,0,1,1.715.832,2.586,2.586,0,0,1,.444.577l.1.167h5.005c-.053.1-.106.192-.154.291a.331.331,0,0,0,.155.442l.143.033a.332.332,0,0,0,.3-.188,6.346,6.346,0,0,1,11-.725.328.328,0,0,0,.274.147h5.58l.1-.167a2.61,2.61,0,0,1,.447-.58,2.874,2.874,0,0,1,1.717-.829v9.828a2.9,2.9,0,0,1-2.166-1.412l-.1-.164h-5c.053-.1.106-.192.154-.291a.331.331,0,1,0-.6-.288,6.332,6.332,0,0,1-10.993.726.328.328,0,0,0-.274-.147" fill="#fff"/>
      <path id="Trazado_8931" data-name="Trazado 8931" d="M84.356,142.109v-.375a3.908,3.908,0,0,0-2.778,1.148l.265.265-.262-.269a3.663,3.663,0,0,0-.508.621l.315.2v-.375H76.351v.375l.308-.214a7.351,7.351,0,0,0-3.354-2.652l-.136.35h.375v-.969H74.3v-1.412H72.4v-.371h4.674v-.706a2.847,2.847,0,0,0-2.845-2.845H71.9v.375h.375v-.145a1.658,1.658,0,0,0-3.315,0v.145h.375v-.375H67a2.847,2.847,0,0,0-2.845,2.845v.706h4.674v.371H66.934v1.412h.753v.98h.375l-.137-.349a7.41,7.41,0,0,0-3.358,2.639l.308.215v-.375H59.84v.375l.314-.2a3.576,3.576,0,0,0-.5-.616l-.262.268.266-.264a3.886,3.886,0,0,0-2.778-1.153H56.17v11.938h.706a3.932,3.932,0,0,0,3.275-1.763l-.313-.207v.375h5.048V151.7l-.308.215a7.354,7.354,0,0,0,12.082,0l-.307-.215v.375H81.39V151.7l-.313.207a3.937,3.937,0,0,0,3.279,1.763h.706V141.734h-.706v.749h.331v-.374h-.375V153.3h.375v-.375h-.331A3.187,3.187,0,0,1,81.7,151.5l-.111-.169H76.157l-.112.161a6.657,6.657,0,0,1-5.429,2.839,6.583,6.583,0,0,1-5.422-2.839l-.112-.161H59.636l-.111.169a3.185,3.185,0,0,1-2.649,1.426h-.331v.375h.375V142.109h-.375v.374h.331a3.137,3.137,0,0,1,2.246.932v0l0,0a2.838,2.838,0,0,1,.4.489l.111.17H65.07l.112-.16a6.666,6.666,0,0,1,3.017-2.371l.238-.094v-1.985h-.753v-.287h-.375v.375h2.267v-1.871H64.527v.375H64.9v-.331a2.1,2.1,0,0,1,2.1-2.1h2.711v-.52a.908.908,0,0,1,1.815,0v.52h2.711a2.1,2.1,0,0,1,2.1,2.1v.331H76.7v-.375H71.655v1.871h1.892v.287h.375v-.375H72.794v1.975l.239.093a6.6,6.6,0,0,1,3.011,2.382l.112.16h5.436l.11-.171a2.819,2.819,0,0,1,.4-.491l0,0v0a3.159,3.159,0,0,1,2.248-.929ZM70,135.114h.375a.245.245,0,1,1,.491,0v.145h.375v-.375H70v.375h.375v-.145h-.75v.52h1.991v-.52a1,1,0,1,0-1.991,0Zm-3,.806v.375h7.237a1.436,1.436,0,0,1,1.409,1.172l.369-.069v-.375H65.219v.375l.369.069A1.436,1.436,0,0,1,67,136.295v-.75a2.188,2.188,0,0,0-2.147,1.785l-.082.443H76.463l-.082-.443a2.188,2.188,0,0,0-2.147-1.785H67Zm2.866,2.14v.375h1.13v.371h-.755v-.746h-.375v0h-.375v1.5h2.255v-1.871H69.488v.375Zm-1.139,1.783v.375h3.408v.756h.375l.1-.361a7.4,7.4,0,0,0-1.992-.28,7.325,7.325,0,0,0-1.994.279l.1.361H69.1v-1.13h-.375v0h-.375v1.625l.477-.134a6.483,6.483,0,0,1,3.58,0l.476.133v-2H68.349v.375Zm-3.673,11.2v-.375h-5.8l-.205.35a2.519,2.519,0,0,1-1.881,1.228l.044.373h.375v-9.828h-.375l-.042.372a2.477,2.477,0,0,1,1.491.724h0l0,0a2.2,2.2,0,0,1,.38.494h0l.1.167.108.189h5.223v-.375l-.33-.179c-.051.093-.107.194-.162.307a.705.705,0,0,0,.33.942l.037.019.185.042.042.01h.042a.706.706,0,0,0,.636-.4,5.971,5.971,0,0,1,10.352-.681.707.707,0,0,0,.584.315h5.8l.2-.357h0a2.208,2.208,0,0,1,.382-.5h0l0,0a2.5,2.5,0,0,1,1.494-.722l-.042-.372H83.65v9.828h.375l.043-.373a2.524,2.524,0,0,1-1.885-1.228l-.1-.164-.108-.186H76.76v.375l.33.179c.051-.094.107-.2.162-.308l.005-.01-.005.01a.706.706,0,0,0-1.272-.613,5.957,5.957,0,0,1-10.342.683h0a.7.7,0,0,0-.584-.317h0v.375l0,.375v-.047l-.037.024.036.023v-.047l-.037.024h0a6.708,6.708,0,0,0,11.645-.769l-.04-.019v.044l.04-.025-.04-.019v0l-.019.041.019,0V150.6l-.019.041.019-.04h-.044l.025.04.019-.04h0l-.039-.019,0,.019h.043l-.039-.019c-.041.086-.091.176-.145.275l-.3.554h5.634v-.375l-.324.189.1.164a3.272,3.272,0,0,0,2.446,1.6l.418.049V142.369l-.417.047a3.245,3.245,0,0,0-1.94.937l.265.265-.262-.269a3.024,3.024,0,0,0-.511.663l-.1.167.326.186v-.375H76.189v.046l.036-.024-.036-.022v.046l.036-.024a6.721,6.721,0,0,0-11.654.769l.04.018v-.043l-.039.024.039.019v.332l.084-.366-.143-.033-.084.366.162-.338-.019.039h.044l-.025-.039-.019.039h0l.04.019,0-.019h-.044l.04.019c.041-.085.091-.175.145-.274l.3-.554H59.462v.375l.325-.186-.095-.167a2.973,2.973,0,0,0-.507-.66l-.263.269.267-.265a3.235,3.235,0,0,0-1.94-.94l-.417-.047v10.669l.418-.049a3.271,3.271,0,0,0,2.442-1.6l.1-.164-.324-.189v.375h5.587v-.375l0,.375Z" fill="#fff"/>
      <path id="Trazado_8932" data-name="Trazado 8932" d="M81.132,145.331a.331.331,0,0,0-.331.331v4.084a.331.331,0,0,0,.662,0v-4.084a.331.331,0,0,0-.331-.331" fill="#fff"/>
      <path id="Trazado_8933" data-name="Trazado 8933" d="M81.132,145.331v-.375a.706.706,0,0,0-.706.706v4.084a.706.706,0,0,0,1.412,0v-4.084a.706.706,0,0,0-.706-.706v.706h-.044l.044.044v-.044h-.044v4.084h.044V149.7l-.044.044h.044v0h.044l-.044-.044v.044h.044v-4.084h-.044v.044l.044-.044h-.044v-.331Z" fill="#fff"/>
      <path id="Trazado_8934" data-name="Trazado 8934" d="M70.616,155.407l-.239.25c-.084.087-2.051,2.163-2.051,3.979a2.29,2.29,0,0,0,4.58,0c0-1.816-1.967-3.892-2.051-3.979Zm0,5.857a1.629,1.629,0,0,1-1.628-1.628,6.178,6.178,0,0,1,1.628-3.253,6.16,6.16,0,0,1,1.628,3.253,1.629,1.629,0,0,1-1.628,1.628" fill="#fff"/>
      <path id="Trazado_8935" data-name="Trazado 8935" d="M70.616,155.407l-.271-.259-.239.249h0a10.748,10.748,0,0,0-1.1,1.393,5.509,5.509,0,0,0-1.057,2.845,2.665,2.665,0,0,0,5.33,0,5.509,5.509,0,0,0-1.057-2.845,10.846,10.846,0,0,0-1.1-1.393h0l-.239-.249-.271-.283-.271.283.271.259-.271.26.239.249,0,0,0,0a10.282,10.282,0,0,1,1.015,1.289,4.827,4.827,0,0,1,.932,2.431,1.915,1.915,0,0,1-3.83,0,4.827,4.827,0,0,1,.932-2.431,10.281,10.281,0,0,1,1.015-1.289l.239-.249-.271-.26-.271.26Zm0,5.857v-.375a1.258,1.258,0,0,1-1.253-1.253,3.587,3.587,0,0,1,.574-1.669,9.738,9.738,0,0,1,.964-1.341l-.285-.243-.285.243a9.7,9.7,0,0,1,.964,1.34,3.583,3.583,0,0,1,.574,1.67,1.258,1.258,0,0,1-1.253,1.253v.75a2.006,2.006,0,0,0,2-2,4.282,4.282,0,0,0-.677-2.049,10.4,10.4,0,0,0-1.041-1.448l-.285-.334-.285.334a10.484,10.484,0,0,0-1.041,1.449,4.271,4.271,0,0,0-.677,2.048,2.006,2.006,0,0,0,2,2Z" fill="#fff"/>
      <path id="Trazado_8936" data-name="Trazado 8936" d="M84.889,53.478a5.261,5.261,0,0,0-3.984-1.53c.067-.137.133-.275.194-.413l-.657-.287c-.077.178-.174.349-.263.524l-5.865-5.865,4.729-4.981c.14.174.286.346.412.526l.587-.411c-.154-.22-.322-.435-.5-.646l2.213-2.332,2.2-.158,2.1-4.293-1.257-1.257-4.293,2.1-.159,2.2L72.51,44.1l-5.864-5.864a9.993,9.993,0,0,1,1.519-.636l-.214-.683a10.562,10.562,0,0,0-1.483.607,5.256,5.256,0,0,0-6.878-5.282l-.559.179,3.537,3.537-.56,2.086-2.086.56L56.385,35.07l-.179.559a5.256,5.256,0,0,0,5.275,6.879A10.758,10.758,0,0,0,61,43.642l.676.238a9.783,9.783,0,0,1,.523-1.2l4.481,4.481-4.518,4.519a9.885,9.885,0,0,1-.62-1.523l-.686.209a10.657,10.657,0,0,0,.771,1.848l-5.12,5.12-.077.078-.021.107c-.024.123-.185,1.249,1.528,2.963a4.191,4.191,0,0,0,2.777,1.543.972.972,0,0,0,.186-.015L61,61.991l5.2-5.2a10.657,10.657,0,0,0,1.848.771l.209-.685a9.907,9.907,0,0,1-1.523-.621l4.518-4.518,4.482,4.481a9.944,9.944,0,0,1-1.2.524l.238.676a10.766,10.766,0,0,0,1.134-.485,5.253,5.253,0,0,0,5.245,5.532,5.333,5.333,0,0,0,1.633-.257l.559-.179L79.81,58.5l.56-2.086,2.086-.559,3.537,3.536.179-.559a5.263,5.263,0,0,0-1.283-5.35M81.048,36.986l.149-2.069,3.464-1.693.533.533L83.5,37.22l-2.069.149L72.88,46.378a3.625,3.625,0,0,0-.384-.456,3.485,3.485,0,0,0-.457-.384ZM62.222,41.7l-.185.033a4.545,4.545,0,0,1-5.3-5.291l2.968,2.968,2.884-.774.774-2.885L60.4,32.78a4.544,4.544,0,0,1,5.29,5.3l-.034.186L71.99,44.6l-.6.567a5.54,5.54,0,0,0-2.069-.5l-.15,0-1.99,1.99ZM60.674,61.308A3.476,3.476,0,0,1,58.7,60.222L69.934,48.991l-.507-.507L58.2,59.715a3.484,3.484,0,0,1-1.087-1.97l11.879-11.88,2.23,2.23a.358.358,0,1,0,.507-.506L69.537,45.4a4.153,4.153,0,0,1,2.452,1.027,4.224,4.224,0,0,1,1.035,2.53Zm24.964-3.289L82.67,55.051l-2.884.774-.774,2.885,2.967,2.968a4.546,4.546,0,0,1-5.29-5.3l.034-.185-4.962-4.962,1.99-1.989,0-.151a5.54,5.54,0,0,0-.5-2.069l.567-.6,6.335,6.335.185-.034a4.546,4.546,0,0,1,5.3,5.291" fill="#fff"/>
      <path id="Trazado_8937" data-name="Trazado 8937" d="M84.889,53.478l.265-.265a5.633,5.633,0,0,0-3.986-1.646c-.094,0-.188,0-.282.007l.019.374.337.165c.068-.138.136-.281.2-.429l.149-.343-1.343-.586-.15.343c-.068.155-.16.32-.254.5l.334.17.265-.265L74.838,45.9l4.477-4.716-.272-.258-.292.235c.144.179.285.345.4.506l.215.307,1.2-.841-.215-.307c-.161-.231-.335-.453-.512-.669l-.29.238.272.258,2.113-2.226,2.273-.163,2.312-4.728L84.882,31.9l-4.728,2.313-.164,2.273L72.517,43.58l-5.606-5.607-.265.266.17.334a9.55,9.55,0,0,1,1.462-.612l.357-.112-.438-1.4-.358.112a10.918,10.918,0,0,0-1.536.629l.165.336.374.02c.006-.1.008-.2.008-.3a5.625,5.625,0,0,0-5.627-5.635,5.74,5.74,0,0,0-1.748.274l-.559.179-.585.188,3.818,3.818L61.7,37.741l-1.668.448L56.216,34.37l-.367,1.145a5.707,5.707,0,0,0-.275,1.748,5.627,5.627,0,0,0,5.637,5.627c.1,0,.193,0,.289-.008l-.019-.374-.337-.165a11.087,11.087,0,0,0-.5,1.175l-.125.353,1.384.487L62.027,44a9.53,9.53,0,0,1,.5-1.152l-.334-.17-.265.266,4.215,4.215-4.253,4.253.266.266.335-.167a9.56,9.56,0,0,1-.6-1.465l-.109-.358-1.4.426.109.359a11.08,11.08,0,0,0,.8,1.913l.332-.174-.265-.265-5.12,5.12-.078.078-.08.081-.043.219h0a1.388,1.388,0,0,0-.022.259,4.543,4.543,0,0,0,1.653,3.042A4.547,4.547,0,0,0,60.711,62.4a1.43,1.43,0,0,0,.26-.022h0l.108-.021.112-.022,5.279-5.278-.265-.265-.175.332a11.044,11.044,0,0,0,1.914.8l.358.109.428-1.4-.359-.109a9.53,9.53,0,0,1-1.465-.6l-.167.336.265.265,4.253-4.253,4.217,4.216.265-.265-.17-.334a9.551,9.551,0,0,1-1.153.5l-.353.124.486,1.384.354-.125a11.071,11.071,0,0,0,1.174-.5l-.164-.337-.375-.019c-.005.1-.007.194-.007.29a5.625,5.625,0,0,0,5.626,5.636v-.35l-.015.349h.015v-.35l-.015.349h.016a5.711,5.711,0,0,0,1.748-.275l.559-.179.585-.187-3.818-3.819.447-1.668,1.668-.447,3.819,3.818.367-1.144a5.747,5.747,0,0,0,.274-1.749,5.621,5.621,0,0,0-1.65-3.981l-.265.265-.265.265a4.87,4.87,0,0,1,1.43,3.451,4.972,4.972,0,0,1-.239,1.52l-.179.559.357.114.265-.265-3.69-3.69-2.5.672-.672,2.5,3.69,3.69.265-.265-.114-.357-.559.179a4.966,4.966,0,0,1-1.519.239v.375l.015-.375h-.016a4.877,4.877,0,0,1-4.876-4.886l.006-.252.033-.636-.572.28a10.276,10.276,0,0,1-1.094.468l.125.354.353-.125-.238-.676-.353.125.124.353a10.256,10.256,0,0,0,1.244-.543l.46-.234-5.112-5.111L66.1,56.363l.467.232a10.223,10.223,0,0,0,1.581.643l.109-.358-.359-.11-.209.686.359.109.109-.358a10.363,10.363,0,0,1-1.783-.745l-.244-.129-5.393,5.393.265.265-.071-.368-.107.021h0l-.113.008c-.3,0-1.185-.111-2.512-1.434a3.843,3.843,0,0,1-1.433-2.511l.008-.114v-.006l.02-.1-.368-.072.266.264.077-.077,0,0,5.311-5.311-.128-.244a10.345,10.345,0,0,1-.744-1.783l-.359.109.109.359.686-.209-.109-.359-.359.109a10.212,10.212,0,0,0,.643,1.58l.232.468,5.152-5.153L62.1,42.052l-.234.46a10.256,10.256,0,0,0-.543,1.244l.354.124.124-.354-.676-.238L61,43.642l.353.125a10.189,10.189,0,0,1,.468-1.094L62.1,42.1l-.635.032-.251.007a4.877,4.877,0,0,1-4.887-4.877,4.961,4.961,0,0,1,.239-1.519l.179-.559-.357-.115-.265.265,3.69,3.69,2.5-.672.672-2.5-3.69-3.69-.265.265.114.357L59.7,32.6a5,5,0,0,1,1.519-.238A4.876,4.876,0,0,1,66.1,37.249l-.007.259-.033.636.573-.28a10.1,10.1,0,0,1,1.431-.586l-.113-.358-.358.112.215.684.357-.113-.112-.357a10.354,10.354,0,0,0-1.577.658l-.461.234L72.5,44.627l8.215-7.8.153-2.132,3.859-1.888.878.879-1.887,3.858-2.133.154-2.541,2.677.21.256c.17.206.332.414.478.623l.307-.215-.215-.308-.587.412.215.307.307-.216c-.139-.2-.29-.376-.427-.546l-.269-.334-5.275,5.558L80.279,52.4l.235-.46c.083-.165.184-.343.272-.544l-.344-.15-.15.344.657.286.15-.343-.344-.15c-.057.13-.12.263-.187.4l-.279.571.635-.032.244-.006a4.882,4.882,0,0,1,3.456,1.426ZM81.048,36.986l.374.027.134-1.853,3.029-1.482.154.154-1.481,3.029-2,.144L72.608,46.12l.272.258.305-.217a3.815,3.815,0,0,0-.928-.929l-.218.306.258.272,9.115-8.652.01-.145-.374-.027-.258-.272-9.339,8.865.371.264a3.079,3.079,0,0,1,.752.753l.264.371L81.6,37.732l2.139-.154,1.907-3.9-.913-.912-3.9,1.906-.165,2.284.374.027-.258-.272ZM62.222,41.7l-.067-.369-.185.034a4.228,4.228,0,0,1-.757.068,4.173,4.173,0,0,1-4.1-4.923l-.369-.068-.265.266,3.121,3.12,3.3-.886.886-3.3-3.12-3.12-.266.265.067.369a4.209,4.209,0,0,1,.756-.068,4.172,4.172,0,0,1,4.1,4.928l-.034.185-.035.194,6.2,6.2-.318.3.258.272.159-.34a5.891,5.891,0,0,0-2.224-.53h0l-.151,0-.158,0-1.836,1.836-4.836-4.835-.193.036.067.369-.265.265,5.227,5.226,2.255-2.255-.265-.265-.005.375h.152a5.183,5.183,0,0,1,1.913.459l.231.109L72.528,44.6,65.921,38l-.266.266.369.067.034-.185a4.918,4.918,0,0,0-4.836-5.813,4.959,4.959,0,0,0-.89.08l-.7.128,3.32,3.32-.662,2.467-2.466.662L56.5,35.667l-.128.7a4.978,4.978,0,0,0-.08.891A4.924,4.924,0,0,0,62.1,42.1l.185-.034-.068-.368-.265.265ZM60.674,61.308l.02-.375a3.14,3.14,0,0,1-1.738-.988l-.253.277.265.265,11.5-11.5-1.037-1.037-11.5,11.5.265.265.277-.253a3.153,3.153,0,0,1-.99-1.738l-.374.021.265.265L68.988,46.4l1.964,1.964a.733.733,0,0,0,1.252-.518.728.728,0,0,0-.215-.519L69.8,45.136l-.265.265-.036.373a3.812,3.812,0,0,1,2.223.919,3.872,3.872,0,0,1,.926,2.294l.374-.029-.265-.266L60.409,61.043l.265.265.02-.375-.02.375.265.265L73.412,49.1l-.014-.172a4.583,4.583,0,0,0-1.144-2.765,4.5,4.5,0,0,0-2.682-1.135l-1.038-.1,2.929,2.93,0,0,.012-.012h-.017l0,.012.012-.012h0l-.012-.012,0,.012h.016l-.012-.012.012.012v-.017l-.012.005.012.012v0l.012-.012-.012-.005v.017l.012-.012-2.5-2.5L56.725,57.6l.009.167a3.824,3.824,0,0,0,1.186,2.2l.264.289L69.427,49.014l.242.242.265-.265-.265-.265L58.16,60.234l.29.264a3.808,3.808,0,0,0,2.2,1.184l.167.009.118-.118Zm24.964-3.289.265-.265-3.121-3.121-3.3.886-.887,3.3,3.121,3.121.265-.265-.067-.369a4.211,4.211,0,0,1-.757.068,4.172,4.172,0,0,1-4.1-4.928l.034-.186.035-.193-4.836-4.836L74.128,49.4l0-.308h0a5.918,5.918,0,0,0-.531-2.223l-.339.159.272.258.3-.319,6.2,6.2.379-.069a4.176,4.176,0,0,1,3.708,1.153,4.156,4.156,0,0,1,1.22,2.946,4.208,4.208,0,0,1-.068.756l.369.067.265-.265-.265.265.369.067a4.959,4.959,0,0,0,.08-.89,4.918,4.918,0,0,0-4.921-4.918,5,5,0,0,0-.893.081l-.185.034.068.369.265-.265L73.814,45.89l-1.009,1.062.109.232a5.194,5.194,0,0,1,.46,1.915h0l0,.15.375,0-.265-.266-2.255,2.255,5.227,5.227.265-.265-.369-.068-.034.185a4.92,4.92,0,0,0,4.835,5.814,5.072,5.072,0,0,0,.891-.08l.7-.128L79.43,58.6l.662-2.467,2.466-.661,3.321,3.32.128-.7Z" fill="#fff"/>
      <path id="Trazado_8938" data-name="Trazado 8938" d="M64.643,40.175a.358.358,0,1,0-.507.506l3.627,3.628a.359.359,0,0,0,.507-.507Z" fill="#fff"/>
      <path id="Trazado_8939" data-name="Trazado 8939" d="M64.643,40.175l.265-.265a.733.733,0,1,0-1.037,1.037L67.5,44.574a.734.734,0,0,0,1.038-1.037L64.908,39.91l-.265.265-.265.265L68,44.068l.012-.012H68l0,.012.012-.012h0L68,44.044l0,.012h.017L68,44.044l.012.011v-.016l-.012,0,.012.011v0l.012-.012-.012,0v.017l.012-.012L64.4,40.416l-.012.012h.017l0-.012-.012.012h0l.012.012,0-.012h-.017l.012.012-.012-.012v.017l.012-.005-.012-.012v0l-.011.011.011.005v-.016l-.011.011Z" fill="#fff"/>
      <path id="Trazado_8940" data-name="Trazado 8940" d="M74.592,50.125a.358.358,0,0,0-.507.506l3.651,3.651a.358.358,0,1,0,.507-.506Z" fill="#fff"/>
      <path id="Trazado_8941" data-name="Trazado 8941" d="M74.592,50.125l.265-.265A.733.733,0,1,0,73.82,50.9l3.65,3.65a.733.733,0,0,0,1.038-1.036L74.857,49.86l-.265.265-.265.265,3.65,3.651.012-.012h-.016l0,.012.012-.012h0l-.012-.012,0,.012h.016l-.012-.012.012.012v-.017l-.012,0,.012.012v0L78,54.017l-.012,0v.017L78,54.017,74.35,50.366l-.012.012h.017l-.005-.012-.012.012h0l.012.012.005-.012h-.017l.012.012-.012-.012V50.4l.012-.005-.012-.012v0l-.011.011.011.005v-.016l-.011.011Z" fill="#fff"/>
      <path id="Trazado_8942" data-name="Trazado 8942" d="M72.376,37.212l.083-.711a11.033,11.033,0,0,0-2.276-.028l.066.714a10.289,10.289,0,0,1,2.127.025" fill="#fff"/>
      <path id="Trazado_8943" data-name="Trazado 8943" d="M72.376,37.212l.372.043.083-.711.044-.373-.373-.043a11.287,11.287,0,0,0-1.314-.076c-.348,0-.7.016-1.039.048l-.373.034.1,1.087.034.374.374-.035c.3-.028.6-.041.905-.041a10.136,10.136,0,0,1,1.144.065l.372.044.043-.373-.372-.043.043-.372a10.5,10.5,0,0,0-1.23-.071c-.327,0-.652.014-.975.044l.035.374.373-.035-.065-.713-.374.034.035.373c.32-.029.644-.044.97-.044a10.674,10.674,0,0,1,1.227.071l.044-.372-.373-.044L72,37.169l.372.043.043-.372Z" fill="#fff"/>
      <path id="Trazado_8944" data-name="Trazado 8944" d="M76.743,37.962A10.723,10.723,0,0,0,74.678,37l-.231.679a9.881,9.881,0,0,1,1.926.9Z" fill="#fff"/>
      <path id="Trazado_8945" data-name="Trazado 8945" d="M76.743,37.962l.192-.321a11.172,11.172,0,0,0-2.136-.993l-.355-.121-.473,1.388.355.121a9.694,9.694,0,0,1,1.854.862l.321.194.756-1.257-.322-.194-.192.321-.322-.192-.37.613.322.194.193-.321a10.36,10.36,0,0,0-2-.929l-.121.355.355.121.231-.679L74.678,37l-.121.354a10.45,10.45,0,0,1,1.992.927l.194-.322-.322-.192Z" fill="#fff"/>
      <path id="Trazado_8946" data-name="Trazado 8946" d="M70.345,57.279l-.059.714c.3.025.6.037.9.037a11,11,0,0,0,1.371-.085l-.089-.711a10.286,10.286,0,0,1-2.126.045" fill="#fff"/>
      <path id="Trazado_8947" data-name="Trazado 8947" d="M70.345,57.279l-.374-.031-.059.714-.031.374.374.031c.309.026.623.038.934.038a11.366,11.366,0,0,0,1.418-.088l.372-.047-.136-1.083-.047-.372-.372.047a9.936,9.936,0,0,1-1.234.077c-.273,0-.546-.012-.814-.034L70,56.874l-.031.374.374.031-.031.374c.289.024.582.036.876.036a10.7,10.7,0,0,0,1.328-.083l-.047-.372-.372.047.089.71.372-.046-.047-.372a10.625,10.625,0,0,1-1.324.082c-.291,0-.585-.012-.872-.036l-.031.374.374.031.059-.714-.374-.031-.031.374Z" fill="#fff"/>
      <path id="Trazado_8948" data-name="Trazado 8948" d="M60.474,45.858a10.947,10.947,0,0,0-.086,1.371c0,.3.013.6.038.9l.713-.059c-.022-.278-.034-.56-.034-.844a10.465,10.465,0,0,1,.079-1.281Z" fill="#fff"/>
      <path id="Trazado_8949" data-name="Trazado 8949" d="M60.474,45.858l-.372-.047a11.306,11.306,0,0,0-.089,1.418c0,.309.013.623.039.934l.031.374,1.087-.09.373-.03-.03-.374q-.033-.4-.033-.814a9.888,9.888,0,0,1,.077-1.234l.046-.372-1.082-.137-.372-.047-.047.372.372.047-.047.372.71.09.047-.372-.372-.047a10.835,10.835,0,0,0-.082,1.328c0,.295.012.586.035.875l.374-.031-.031-.373-.713.058.031.374L60.8,48.1c-.024-.291-.036-.585-.036-.872a10.577,10.577,0,0,1,.083-1.324l-.372-.047-.047.372Z" fill="#fff"/>
      <path id="Trazado_8950" data-name="Trazado 8950" d="M81.114,42.96l-.658.284a9.982,9.982,0,0,1,.615,1.958l.7-.144a10.76,10.76,0,0,0-.659-2.1" fill="#fff"/>
      <path id="Trazado_8951" data-name="Trazado 8951" d="M81.114,42.96l-.149-.344-.657.283-.344.149.148.344a9.685,9.685,0,0,1,.592,1.885l.075.367,1.069-.219.367-.075-.075-.367a11.056,11.056,0,0,0-.682-2.171l-.148-.345-.345.149.149.344-.344.148a10.324,10.324,0,0,1,.635,2.025l.368-.075L81.7,44.69l-.7.144.075.368.367-.076A10.454,10.454,0,0,0,80.8,43.1l-.345.149.149.344.658-.284-.149-.344-.344.148Z" fill="#fff"/>
      <path id="Trazado_8952" data-name="Trazado 8952" d="M81.991,47.245h-.717a10.124,10.124,0,0,1-.209,2.043l.7.144a10.949,10.949,0,0,0,.224-2.186" fill="#fff"/>
      <path id="Trazado_8953" data-name="Trazado 8953" d="M81.991,47.245V46.87H80.9v.376a9.732,9.732,0,0,1-.2,1.967l-.077.367,1.07.221.367.075.076-.367a11.331,11.331,0,0,0,.232-2.261v-.375h-.375v.375h-.375a10.5,10.5,0,0,1-.217,2.112l.368.075.075-.367-.7-.145-.076.368.367.076a10.437,10.437,0,0,0,.217-2.119h-.375v.375h.716v-.375h0Z" fill="#fff"/>
    </g>
  </g>
  <g id="Grupo_8497" data-name="Grupo 8497">
    <g id="Grupo_8496" data-name="Grupo 8496" clip-path="url(#clip-path-4)">
      <rect id="Rectángulo_4996" data-name="Rectángulo 4996" width="13.607" height="1.305" transform="translate(26.899 204.738)" fill="url(#linear-gradient-2)"/>
    </g>
  </g>
  <g id="Grupo_8499" data-name="Grupo 8499">
    <g id="Grupo_8498" data-name="Grupo 8498" clip-path="url(#clip-path-5)">
      <rect id="Rectángulo_4997" data-name="Rectángulo 4997" width="13.127" height="5.414" transform="translate(26.884 200.071)" fill="url(#linear-gradient-3)"/>
    </g>
  </g>
  <g id="Grupo_8501" data-name="Grupo 8501">
    <g id="Grupo_8500" data-name="Grupo 8500" clip-path="url(#clip-path-6)">
      <rect id="Rectángulo_4998" data-name="Rectángulo 4998" width="3.8" height="4.649" transform="translate(28.145 196.744)" fill="url(#linear-gradient-4)"/>
    </g>
  </g>
  <g id="Grupo_8503" data-name="Grupo 8503">
    <g id="Grupo_8502" data-name="Grupo 8502" clip-path="url(#clip-path-7)">
      <rect id="Rectángulo_4999" data-name="Rectángulo 4999" width="5.284" height="1.887" transform="translate(-0.113 204.156)" fill="url(#linear-gradient-5)"/>
    </g>
  </g>
  <g id="Grupo_8505" data-name="Grupo 8505">
    <g id="Grupo_8504" data-name="Grupo 8504" clip-path="url(#clip-path-8)">
      <rect id="Rectángulo_5000" data-name="Rectángulo 5000" width="7.905" height="8.888" transform="translate(0.038 196.719)" fill="url(#linear-gradient-6)"/>
    </g>
  </g>
  <g id="Grupo_8507" data-name="Grupo 8507">
    <g id="Grupo_8506" data-name="Grupo 8506" clip-path="url(#clip-path-9)">
      <rect id="Rectángulo_5001" data-name="Rectángulo 5001" width="4.626" height="5.401" transform="translate(3.899 193.219)" fill="url(#linear-gradient-7)"/>
    </g>
  </g>
  <g id="Grupo_8509" data-name="Grupo 8509">
    <g id="Grupo_8508" data-name="Grupo 8508" clip-path="url(#clip-path)">
      <path id="Trazado_8960" data-name="Trazado 8960" d="M3.833,194.291c1.161,1.03,4.936,1.166,4.936,1.166,13.6-32.641,19.163-37.278,19.163-37.278-1.964,12.32-.317,39.6-.317,39.6a8.164,8.164,0,0,0,5.138,0A210.238,210.238,0,0,1,39.7,146.148c-9.191-.207-14.079-3.352-15.675-4.615C16.36,153.886,3.833,194.291,3.833,194.291" fill="#1a67b3"/>
      <path id="Trazado_8961" data-name="Trazado 8961" d="M28.86,157.406l-.226-.064a.435.435,0,0,1-.146-.6,13.675,13.675,0,0,1,5.392-4.681.435.435,0,1,1,.379.784,13.053,13.053,0,0,0-5.027,4.35.432.432,0,0,1-.372.209" fill="#91b3fa"/>
      <path id="Trazado_8962" data-name="Trazado 8962" d="M65.977,129.988a10.55,10.55,0,0,1-9.19-3.03c-4.823-4.979-4.757-14.179-4.757-14.179l-.643,1.385c.411-.909.643-1.385.643-1.385C45.005,101.56,26.356,104,26.356,104S13.372,113.922,15.443,128.9a29.848,29.848,0,0,0,5.513,13.136l1.255-1.023a38.782,38.782,0,0,1-.625-12.555,23.269,23.269,0,0,1,3.626-10.287c-.087,6.564.208,13.16.437,17.118.115,1.991-1.275,4.752-2.4,6.635a.591.591,0,0,0,.239.831,40.972,40.972,0,0,0,15.639,4.336,1.053,1.053,0,0,0,1.06-.787c2.353-8.786,4.868-16.2,6.973-21.815,1.015,5.86,4.353,8.467,7.943,9.494,10.07,3.908,12.734-3.67,12.734-3.67Z" fill="#dc2f13"/>
    </g>
  </g>
  <g id="Grupo_8511" data-name="Grupo 8511">
    <g id="Grupo_8510" data-name="Grupo 8510" clip-path="url(#clip-path-11)">
      <rect id="Rectángulo_5003" data-name="Rectángulo 5003" width="12.885" height="9.883" transform="translate(37.53 109.883) rotate(-89.665)" fill="url(#linear-gradient-8)"/>
    </g>
  </g>
  <g id="Grupo_8513" data-name="Grupo 8513">
    <g id="Grupo_8512" data-name="Grupo 8512" clip-path="url(#clip-path)">
      <path id="Trazado_8964" data-name="Trazado 8964" d="M72.454,124.364l-62,22.564a4.747,4.747,0,0,0-2.7,6.426l.188.414a4.412,4.412,0,0,0,5.869,2.178l60.2-27.848Z" fill="#002554"/>
      <path id="Trazado_8965" data-name="Trazado 8965" d="M100.62,80.74a31.154,31.154,0,0,0-8.453,1.254v31.768a3.8,3.8,0,0,1-3.979,3.59H71.077a29.541,29.541,0,0,0,2.873,7.6H88.188a3.8,3.8,0,0,1,3.979,3.59v11.043a31.076,31.076,0,0,0,8.453,1.254v-12.3a3.8,3.8,0,0,1,3.98-3.59h23.349a29.543,29.543,0,0,0,2.874-7.6H104.6a3.8,3.8,0,0,1-3.98-3.59Z" fill="#65bfe2"/>
      <path id="Trazado_8966" data-name="Trazado 8966" d="M77.376,99.311l-2.208,2.207,5.529,5.527,2.206-2.209ZM76.314,98.25l-2.208,2.207.06.059,2.207-2.207-.059-.059m2.116-7.811c-.107.115-.212.229-.318.345a.776.776,0,0,0,.318-.345m13.737-8.445a30.718,30.718,0,0,0-12.246,6.961V90.11A2.192,2.192,0,0,1,77.734,92.3h-.57a.364.364,0,0,0-.364.359V93.1a4.219,4.219,0,0,1-2.105,3.648l-.043.025-.047.013-.215.057h-.051a.709.709,0,0,1-.427-.144l-.124.231.922.921.868-.868a1.04,1.04,0,0,1,.734-.305h0a1.034,1.034,0,0,1,.733.305L84.17,104.1a1.039,1.039,0,0,1,0,1.471l-2.739,2.739a1.037,1.037,0,0,1-.734.305h0a1.039,1.039,0,0,1-.734-.3l-7.121-7.122a1.039,1.039,0,0,1,0-1.471l.869-.868-.586-.586a29.359,29.359,0,0,0-2.267,7.033v1.851a2.069,2.069,0,0,1-.413,1.236q-.1,1.189-.1,2.4a29.629,29.629,0,0,0,.732,6.561h17.11a3.8,3.8,0,0,0,3.98-3.59V81.994" fill="#4885c2"/>
      <path id="Trazado_8967" data-name="Trazado 8967" d="M114.5,100.026l-.27.269a1.576,1.576,0,0,0,0,2.225l3.076,3.077a2.026,2.026,0,0,0-.049-2.814Zm-.265-1.821.265-.265,3.8,3.8a3.5,3.5,0,0,1,0,4.95l-.993.993-4.121-4.121a3.052,3.052,0,0,1,0-4.31l1.048-1.048m1.313-2.037-.039.016h0l-6.476,6.476a.479.479,0,0,0,0,.679h0a.479.479,0,0,0,.339.141l.168-.031h0a2.871,2.871,0,0,1,3.037.656l2.95,2.951a1.7,1.7,0,0,1,0,2.407l-.077.187.077.187.187.071.187-.071,5.73-5.73.265.265-.265-.266.017-.04,0-.018-.8-2.565-.06-.1-5.2-5.2-.04-.016m7.385-6.286-5.78,5.78,4.71,4.711a1.538,1.538,0,0,1,.379.625h0l.194.621.861-1.016-.091-2.1v0h0v-.034a.738.738,0,0,1,.195-.5h0a.737.737,0,0,1,.513-.238l1.466-.062-.069-1.654V95.99a.737.737,0,0,1,.706-.736l1.108-.047a30.266,30.266,0,0,0-4.19-5.325M100.95,80.739l-.33,0v33.021a3.8,3.8,0,0,0,3.98,3.591h26.223a29.684,29.684,0,0,0-2.863-20.7l-1.146.048.069,1.654h0v.029a.737.737,0,0,1-.706.737l-1.466.062.072,1.65v.03a.74.74,0,0,1-.175.477l-1.653,1.952.1.322a1.528,1.528,0,0,1-.38,1.54l-5.73,5.73a1.731,1.731,0,0,1-1.227.509h-.005a1.739,1.739,0,0,1-1.228-2.969l.066-.161-.066-.161-2.95-2.95a1.4,1.4,0,0,0-.986-.407,1.38,1.38,0,0,0-.488.089,1.956,1.956,0,0,1-2.073-3.213l6.476-6.476a1.519,1.519,0,0,1,1.074-.445h0a1.567,1.567,0,0,1,.43.061l5.9-5.9a30.8,30.8,0,0,0-20.921-8.119" fill="#4885c2"/>
      <path id="Trazado_8968" data-name="Trazado 8968" d="M88.188,124.954H73.951a30.565,30.565,0,0,0,18.217,14.634V128.544a3.8,3.8,0,0,0-3.98-3.59" fill="#4885c2"/>
      <path id="Trazado_8969" data-name="Trazado 8969" d="M127.949,124.954H104.6a3.8,3.8,0,0,0-3.979,3.59v12.3h.33a30.677,30.677,0,0,0,27-15.889" fill="#4885c2"/>
      <path id="Trazado_8970" data-name="Trazado 8970" d="M83.906,104.367l-.205.205Z" fill="#fff"/>
      <path id="Trazado_8971" data-name="Trazado 8971" d="M83.906,104.368h0l-.205.205h0ZM80.7,107.046l-5.529-5.527,2.208-2.208,5.528,5.526L80.7,107.046m-6.531-6.529-.059-.059,2.208-2.208.059.059-2.208,2.208m1.883-2.532.266-.265-.266.265m.267-1.309h0a1.037,1.037,0,0,0-.734.305l-.869.869-.921-.921q-.35.658-.667,1.337l.586.586-.868.869a1.039,1.039,0,0,0,0,1.471l7.121,7.121a1.035,1.035,0,0,0,.734.3h0a1.039,1.039,0,0,0,.734-.3l2.739-2.739a1.039,1.039,0,0,0,0-1.471L77.05,96.98a1.044,1.044,0,0,0-.734-.3" fill="#fff"/>
      <path id="Trazado_8972" data-name="Trazado 8972" d="M79.922,88.956q-.771.715-1.491,1.484a.781.781,0,0,1-.318.345,30.158,30.158,0,0,0-4.2,5.913.711.711,0,0,0,.427.144h.051l.214-.058.048-.013.042-.024A4.223,4.223,0,0,0,76.8,93.1v-.437a.363.363,0,0,1,.364-.359h.57a2.192,2.192,0,0,0,2.187-2.192Z" fill="#fff"/>
      <path id="Trazado_8973" data-name="Trazado 8973" d="M70.855,105.3a29.619,29.619,0,0,0-.413,3.088,2.062,2.062,0,0,0,.413-1.236Z" fill="#fff"/>
      <path id="Trazado_8974" data-name="Trazado 8974" d="M117.307,105.6l-3.076-3.077a1.576,1.576,0,0,1,0-2.225l.27-.27,2.758,2.758a2.026,2.026,0,0,1,.049,2.814m-3.072-6.862.265-.266-.265.266m.265-.8-.265.265-1.048,1.048a3.053,3.053,0,0,0,0,4.311l4.121,4.121.993-.993a3.5,3.5,0,0,0,0-4.951l-3.8-3.8" fill="#fff"/>
      <path id="Trazado_8975" data-name="Trazado 8975" d="M116.092,95.627l.018.017,0-.006Z" fill="#fff"/>
      <path id="Trazado_8976" data-name="Trazado 8976" d="M123.205,98.5v0h0Zm-13.833,4.975a.479.479,0,0,1-.34-.141h0a.478.478,0,0,1,0-.679l6.476-6.475h0l.04-.016.04.016,5.2,5.2.061.1.8,2.566,0,.018-.017.04.265.265-.265-.265-5.731,5.73-.187.072-.186-.072-.077-.187.077-.187a1.7,1.7,0,0,0,0-2.407l-2.951-2.951a2.867,2.867,0,0,0-3.037-.655h0l-.168.031m6.737-7.836-.017-.017.023.012-.006,0m5.762-6.787-5.9,5.9a1.53,1.53,0,0,0-.43-.061h0a1.518,1.518,0,0,0-1.074.445l-6.476,6.475a1.956,1.956,0,0,0,2.074,3.213,1.372,1.372,0,0,1,.488-.089,1.4,1.4,0,0,1,.985.407l2.95,2.951.067.161-.067.16a1.741,1.741,0,0,0,1.228,2.97h.005a1.731,1.731,0,0,0,1.228-.51l5.73-5.73a1.528,1.528,0,0,0,.379-1.539l-.1-.322,1.654-1.952a.739.739,0,0,0,.174-.477v-.029h0l-.071-1.65,1.466-.062a.738.738,0,0,0,.706-.737v-.03h0l-.069-1.653,1.146-.049q-.4-.734-.837-1.441l-1.107.047a.738.738,0,0,0-.707.737v.031l.069,1.653-1.467.062a.732.732,0,0,0-.512.239v0a.737.737,0,0,0-.195.5v.035l.091,2.1-.862,1.017-.193-.622h0a1.536,1.536,0,0,0-.378-.625l-4.711-4.71,5.78-5.78q-.518-.525-1.061-1.025" fill="#fff"/>
      <path id="Trazado_8977" data-name="Trazado 8977" d="M100.95,77.351c-18.808,0-34.055,14.972-34.055,33.44s15.247,33.44,34.055,33.44,34.055-14.971,34.055-33.44-15.247-33.44-34.055-33.44m0,61.968c-16.045,0-29.052-12.772-29.052-28.528S84.9,82.263,100.95,82.263,130,95.035,130,110.791,117,139.319,100.95,139.319" fill="#002554"/>
      <path id="Trazado_8978" data-name="Trazado 8978" d="M69.484,114.909a.2.2,0,0,1-.2-.179c-.1-.792-.173-1.6-.212-2.4a.2.2,0,0,1,.194-.214.2.2,0,0,1,.214.194c.039.787.109,1.582.209,2.364a.2.2,0,0,1-.177.229Zm.234-9.351-.036,0a.2.2,0,0,1-.165-.237,30.783,30.783,0,0,1,1.835-6.283h0a31.8,31.8,0,0,1,29.6-19.589,32.241,32.241,0,0,1,17.139,4.9.2.2,0,1,1-.217.346,31.832,31.832,0,0,0-16.922-4.835A31.4,31.4,0,0,0,71.73,99.191a30.317,30.317,0,0,0-1.811,6.2.2.2,0,0,1-.2.168" fill="#bdd0fb"/>
    </g>
  </g>
  <g id="Grupo_8515" data-name="Grupo 8515">
    <g id="Grupo_8514" data-name="Grupo 8514" clip-path="url(#clip-path-13)">
      <rect id="Rectángulo_5005" data-name="Rectángulo 5005" width="13.867" height="12.353" transform="translate(40.109 100.145) rotate(-61.125)" fill="url(#linear-gradient-9)"/>
    </g>
  </g>
  <g id="Grupo_8517" data-name="Grupo 8517">
    <g id="Grupo_8516" data-name="Grupo 8516" clip-path="url(#clip-path-14)">
      <rect id="Rectángulo_5006" data-name="Rectángulo 5006" width="20.014" height="16.623" transform="translate(38.864 105.977) rotate(-82.794)" fill="url(#linear-gradient-10)"/>
    </g>
  </g>
  <g id="Grupo_8519" data-name="Grupo 8519">
    <g id="Grupo_8518" data-name="Grupo 8518" clip-path="url(#clip-path-15)">
      <rect id="Rectángulo_5007" data-name="Rectángulo 5007" width="5.986" height="5.741" transform="matrix(0.589, -0.808, 0.808, 0.589, 39.003, 98.133)" fill="url(#linear-gradient-11)"/>
    </g>
  </g>
  <g id="Grupo_8521" data-name="Grupo 8521">
    <g id="Grupo_8520" data-name="Grupo 8520" clip-path="url(#clip-path-16)">
      <rect id="Rectángulo_5008" data-name="Rectángulo 5008" width="9.316" height="8.778" transform="translate(18.92 141.795) rotate(-41.526)" fill="url(#linear-gradient-12)"/>
    </g>
  </g>
  <g id="Grupo_8523" data-name="Grupo 8523">
    <g id="Grupo_8522" data-name="Grupo 8522" clip-path="url(#clip-path-17)">
      <rect id="Rectángulo_5009" data-name="Rectángulo 5009" width="6.091" height="4.833" transform="translate(65.076 127.265)" fill="url(#linear-gradient-13)"/>
    </g>
  </g>
  <g id="Grupo_8525" data-name="Grupo 8525">
    <g id="Grupo_8524" data-name="Grupo 8524" clip-path="url(#clip-path)">
      <path id="Trazado_8984" data-name="Trazado 8984" d="M11.68,155.054l-.067-.011c-2.409-.833-2.969-2.254-3.014-3.3a3.663,3.663,0,0,1,2.389-3.53l7.444-2.9a.2.2,0,1,1,.149.381l-7.444,2.9a3.254,3.254,0,0,0-2.13,3.131c.058,1.336.98,2.322,2.74,2.931a.2.2,0,0,1,.126.259Z" fill="#bdd0fb"/>
      <path id="Trazado_8985" data-name="Trazado 8985" d="M20.8,144.812l-.19-.13a.2.2,0,0,1,.116-.265l.965-.376a.2.2,0,0,1,.148.381l-.965.376Z" fill="#bdd0fb"/>
      <rect id="Rectángulo_5010" data-name="Rectángulo 5010" width="185.392" height="27.548" rx="5.033" transform="translate(1.239 18.079)" fill="#ffc60a"/>
      <path id="Trazado_8986" data-name="Trazado 8986" d="M18,25.217a5.5,5.5,0,0,0-7.374,8.162,5.636,5.636,0,0,0,6.9.352l1.507,1.361a1.721,1.721,0,0,0,.475,1.205l5.023,4.538a1.54,1.54,0,0,0,2.165-.266l.034-.037a1.384,1.384,0,0,0-.076-2.048l-5.022-4.537c-.344-.31-.844-.374-1.054-.564l-1.508-1.361A5.606,5.606,0,0,0,18,25.217m-6.353,7.41a4.21,4.21,0,1,1,5.946-.3,4.211,4.211,0,0,1-5.946.3" fill="#fff"/>
      <path id="Trazado_8987" data-name="Trazado 8987" d="M12.632,31.275l-.042.041a.432.432,0,0,1-.609-.051,3.141,3.141,0,0,1,.07-4.117.432.432,0,0,1,.641.579,2.272,2.272,0,0,0-.051,2.98.432.432,0,0,1-.009.568" fill="#fff"/>
      <rect id="Rectángulo_5011" data-name="Rectángulo 5011" width="146.427" height="15.883" rx="3.15" transform="translate(34.744 23.788)" fill="#fff"/>
      <path id="Rectángulo_5012" data-name="Rectángulo 5012" d="M.681,0H.808a.681.681,0,0,1,.681.681V9.742a.682.682,0,0,1-.682.682H.681A.681.681,0,0,1,0,9.743V.681A.681.681,0,0,1,.681,0Z" transform="translate(38.962 26.517)" fill="#ffc60a"/>
      <path id="Trazado_8988" data-name="Trazado 8988" d="M46.338,34.1V28.527h3.6v.664H47.129v1.746h2.647V31.6H47.129v1.833h2.813V34.1Z" fill="#002554"/>
      <path id="Trazado_8989" data-name="Trazado 8989" d="M50.393,34.1,52,32.108l-1.5-1.866h.932l1.036,1.32,1.035-1.32h.933l-1.51,1.873L54.534,34.1h-.948l-1.131-1.423L51.333,34.1Z" fill="#002554"/>
      <path id="Trazado_8990" data-name="Trazado 8990" d="M55.127,35.522v-5.28h.782V30.9a1.256,1.256,0,0,1,.506-.529,1.528,1.528,0,0,1,.782-.2,1.635,1.635,0,0,1,.9.245,1.613,1.613,0,0,1,.592.691,2.808,2.808,0,0,1,0,2.131,1.573,1.573,0,0,1-.592.691,1.65,1.65,0,0,1-.9.241,1.547,1.547,0,0,1-.762-.186,1.244,1.244,0,0,1-.51-.509v2.047ZM57,33.554a.98.98,0,0,0,.794-.356,1.919,1.919,0,0,0,0-2.051,1.074,1.074,0,0,0-1.588,0,1.919,1.919,0,0,0,0,2.051.98.98,0,0,0,.794.356" fill="#002554"/>
      <path id="Trazado_8991" data-name="Trazado 8991" d="M61.608,34.17a2.042,2.042,0,0,1-1.494-.534,1.944,1.944,0,0,1-.545-1.458,2.2,2.2,0,0,1,.241-1.047,1.766,1.766,0,0,1,.667-.708,1.894,1.894,0,0,1,.98-.252,1.606,1.606,0,0,1,1.257.51,2.017,2.017,0,0,1,.458,1.4v.269H60.343a1.144,1.144,0,0,0,1.272,1.2,2.131,2.131,0,0,0,.652-.1,1.8,1.8,0,0,0,.605-.34l.237.553a1.837,1.837,0,0,1-.672.372,2.668,2.668,0,0,1-.829.134m-.119-3.438a1.042,1.042,0,0,0-.791.308,1.407,1.407,0,0,0-.355.822H62.5a1.309,1.309,0,0,0-.284-.834.919.919,0,0,0-.727-.3" fill="#002554"/>
      <path id="Trazado_8992" data-name="Trazado 8992" d="M64.042,34.1V30.242h.774v.688a1.352,1.352,0,0,1,1.249-.767l.261-.016.055.68-.482.047a1,1,0,0,0-1.051,1.083V34.1Z" fill="#002554"/>
      <path id="Trazado_8993" data-name="Trazado 8993" d="M68.847,34.17a1.437,1.437,0,0,1-1.083-.371,1.5,1.5,0,0,1-.356-1.075V30.859h-.75v-.617h.75V29.08h.8v1.162H69.4v.617H68.207v1.8a.965.965,0,0,0,.178.633.716.716,0,0,0,.581.213,1.031,1.031,0,0,0,.244-.028,2.2,2.2,0,0,0,.237-.067l.127.6a1.053,1.053,0,0,1-.328.114,1.971,1.971,0,0,1-.4.044" fill="#002554"/>
      <path id="Trazado_8994" data-name="Trazado 8994" d="M71.724,34.17a2,2,0,0,1-1.012-.245,1.667,1.667,0,0,1-.66-.691,2.544,2.544,0,0,1,0-2.127,1.679,1.679,0,0,1,.66-.691,2,2,0,0,1,1.012-.245,1.971,1.971,0,0,1,1,.245,1.7,1.7,0,0,1,.663.691,2.5,2.5,0,0,1,0,2.127,1.686,1.686,0,0,1-.663.691,1.971,1.971,0,0,1-1,.245m0-.616a.984.984,0,0,0,.79-.356,1.9,1.9,0,0,0,0-2.051,1.074,1.074,0,0,0-1.588,0,1.9,1.9,0,0,0,0,2.051.992.992,0,0,0,.8.356" fill="#002554"/>
      <path id="Trazado_8995" data-name="Trazado 8995" d="M79.176,34.17a2.836,2.836,0,0,1-1.446-.348,2.287,2.287,0,0,1-.921-.992,3.765,3.765,0,0,1,0-3.038,2.3,2.3,0,0,1,.921-.989,2.845,2.845,0,0,1,1.446-.347,3.1,3.1,0,0,1,1.063.178,2.2,2.2,0,0,1,.826.509l-.284.657a2.42,2.42,0,0,0-.747-.47,2.314,2.314,0,0,0-.834-.147,1.71,1.71,0,0,0-1.375.554,2.852,2.852,0,0,0,0,3.149,1.706,1.706,0,0,0,1.375.557,2.313,2.313,0,0,0,.834-.146,2.458,2.458,0,0,0,.747-.47l.284.655a2.277,2.277,0,0,1-.826.506,3.032,3.032,0,0,1-1.063.182" fill="#002554"/>
      <path id="Trazado_8996" data-name="Trazado 8996" d="M83.334,34.17a2,2,0,0,1-1.012-.245,1.673,1.673,0,0,1-.66-.691,2.544,2.544,0,0,1,0-2.127,1.685,1.685,0,0,1,.66-.691,2,2,0,0,1,1.012-.245,1.971,1.971,0,0,1,1,.245,1.7,1.7,0,0,1,.663.691,2.5,2.5,0,0,1,0,2.127,1.686,1.686,0,0,1-.663.691,1.971,1.971,0,0,1-1,.245m0-.616a.983.983,0,0,0,.79-.356,1.9,1.9,0,0,0,0-2.051,1.074,1.074,0,0,0-1.588,0,1.9,1.9,0,0,0,0,2.051.992.992,0,0,0,.8.356" fill="#002554"/>
      <path id="Trazado_8997" data-name="Trazado 8997" d="M86.211,34.1V28.527h3.6v.664H87v1.746h2.647V31.6H87v1.833h2.813V34.1Z" fill="#002554"/>
      <path id="Trazado_8998" data-name="Trazado 8998" d="M90.265,34.1l1.6-1.991-1.5-1.866H91.3l1.036,1.32,1.035-1.32H94.3l-1.51,1.873L94.406,34.1h-.948l-1.131-1.423L91.2,34.1Z" fill="#002554"/>
    </g>
  </g>
</svg>
