<svg xmlns="http://www.w3.org/2000/svg" xmlns:xlink="http://www.w3.org/1999/xlink" width="225.1" height="200.991" viewBox="0 0 225.1 200.991">
  <defs>
    <clipPath id="clip-path">
      <rect id="Rectángulo_5016" data-name="Rectángulo 5016" width="225.1" height="200.99" fill="none"/>
    </clipPath>
    <clipPath id="clip-path-2">
      <path id="Trazado_9207" data-name="Trazado 9207" d="M93.961,4.1V41.179h35.971l-.367-26.886a24.883,24.883,0,0,0-5.919,4.908l.849,15.215-25.436,1.7-1.007-28.3,18.789-1.045c.825-.974,1.665-1.867,2.494-2.675ZM128.481,0S113.476,7.734,111.37,23.958c-.548-1.131-5.672-5.518-9.607-5.235,1.236.9,7.275,6.321,8.144,12.593h5.4s2.379-16.507,19.49-21.789A85.289,85.289,0,0,0,128.481,0Z" fill="none"/>
    </clipPath>
    <linearGradient id="linear-gradient" x1="-1.473" y1="3.612" x2="-1.455" y2="3.612" gradientUnits="objectBoundingBox">
      <stop offset="0" stop-color="#56af00"/>
      <stop offset="1" stop-color="#97ce00"/>
    </linearGradient>
  </defs>
  <g id="Grupo_8533" data-name="Grupo 8533" transform="translate(0 0.001)">
    <g id="Grupo_8530" data-name="Grupo 8530">
      <g id="Grupo_8529" data-name="Grupo 8529" clip-path="url(#clip-path)">
        <path id="Trazado_9125" data-name="Trazado 9125" d="M193.533,193.716H24.421A24.422,24.422,0,0,1,0,169.295V47.216A24.422,24.422,0,0,1,24.421,22.8H193.533a24.421,24.421,0,0,1,24.421,24.421V169.295a24.421,24.421,0,0,1-24.421,24.421" fill="#f0f1f2"/>
        <path id="Trazado_9126" data-name="Trazado 9126" d="M30.829,69.041,6.282,195.946a4.184,4.184,0,0,0,4.107,4.978H23.335Z" fill="#1a67b3"/>
        <path id="Trazado_9127" data-name="Trazado 9127" d="M31.124,68.528l-16.27,124.6a6.9,6.9,0,0,0,6.843,7.795H45.566L32.109,68.078Z" fill="#78acea"/>
        <path id="Trazado_9128" data-name="Trazado 9128" d="M31.124,68.528,23.841,192.334a8.113,8.113,0,0,0,8.1,8.59h35.6Z" fill="#699dee"/>
        <path id="Trazado_9129" data-name="Trazado 9129" d="M30.851,69.538l3.541,122.8a8.113,8.113,0,0,0,8.1,8.589h35.6Z" fill="#5288d8"/>
        <path id="Trazado_9130" data-name="Trazado 9130" d="M201.286,200.924H60.926a7.256,7.256,0,0,1-7.138-5.952L32.43,78.174a8.635,8.635,0,0,1,8.494-10.188H179.631a7.257,7.257,0,0,1,7.139,5.952l21.655,118.424a7.257,7.257,0,0,1-7.139,8.562" fill="#d9f3f9"/>
        <path id="Trazado_9131" data-name="Trazado 9131" d="M35.208,93.342H190.415L186.436,71.29a4.02,4.02,0,0,0-3.955-3.305H32.145a1.316,1.316,0,0,0-1.294,1.553Z" fill="#1a67b3"/>
        <path id="Trazado_9132" data-name="Trazado 9132" d="M38.837,61.35a6.735,6.735,0,0,0-6.729,6.728H33.4a5.437,5.437,0,1,1,10.874,0,5.384,5.384,0,0,1-.28,1.721,5.455,5.455,0,0,1-3.38,3.416,5.373,5.373,0,0,1-1.468.291V74.8a6.648,6.648,0,0,0,1.719-.305A6.729,6.729,0,0,0,38.837,61.35" fill="#78acea"/>
        <path id="Trazado_9133" data-name="Trazado 9133" d="M40.918,74.105a1.509,1.509,0,0,1-.052.389,1.465,1.465,0,1,1,.052-.389" fill="#78acea"/>
        <path id="Trazado_9134" data-name="Trazado 9134" d="M62.963,61.35a6.735,6.735,0,0,0-6.729,6.728h1.291a5.438,5.438,0,1,1,7.216,5.137,5.388,5.388,0,0,1-1.47.291V74.8a6.656,6.656,0,0,0,1.72-.305A6.728,6.728,0,0,0,62.963,61.35" fill="#78acea"/>
        <path id="Trazado_9135" data-name="Trazado 9135" d="M65.043,74.105a1.509,1.509,0,0,1-.052.389,1.468,1.468,0,1,1,.052-.389" fill="#78acea"/>
        <path id="Trazado_9136" data-name="Trazado 9136" d="M87.089,61.35a6.735,6.735,0,0,0-6.73,6.728H81.65A5.437,5.437,0,1,1,87.4,73.506V74.8a6.671,6.671,0,0,0,1.721-.305A6.729,6.729,0,0,0,87.089,61.35" fill="#78acea"/>
        <path id="Trazado_9137" data-name="Trazado 9137" d="M89.168,74.105a1.509,1.509,0,0,1-.052.389,1.468,1.468,0,1,1,.052-.389" fill="#78acea"/>
        <path id="Trazado_9138" data-name="Trazado 9138" d="M111.213,61.35a6.734,6.734,0,0,0-6.728,6.728h1.292a5.437,5.437,0,1,1,10.874,0,5.384,5.384,0,0,1-.28,1.721,5.455,5.455,0,0,1-3.38,3.416,5.373,5.373,0,0,1-1.468.291V74.8a6.663,6.663,0,0,0,1.719-.305,6.729,6.729,0,0,0-2.029-13.144" fill="#78acea"/>
        <path id="Trazado_9139" data-name="Trazado 9139" d="M113.294,74.105a1.509,1.509,0,0,1-.052.389,1.465,1.465,0,1,1,.052-.389" fill="#78acea"/>
        <path id="Trazado_9140" data-name="Trazado 9140" d="M135.338,61.35a6.735,6.735,0,0,0-6.729,6.728H129.9a5.438,5.438,0,1,1,7.214,5.137,5.358,5.358,0,0,1-1.468.291V74.8a6.648,6.648,0,0,0,1.72-.305,6.728,6.728,0,0,0-2.028-13.144" fill="#78acea"/>
        <path id="Trazado_9141" data-name="Trazado 9141" d="M137.418,74.105a1.509,1.509,0,0,1-.052.389,1.465,1.465,0,1,1,.052-.389" fill="#78acea"/>
        <path id="Trazado_9142" data-name="Trazado 9142" d="M159.464,61.35a6.735,6.735,0,0,0-6.729,6.728h1.291a5.438,5.438,0,1,1,7.214,5.137,5.359,5.359,0,0,1-1.468.291V74.8a6.648,6.648,0,0,0,1.72-.305,6.729,6.729,0,0,0-2.028-13.144" fill="#78acea"/>
        <path id="Trazado_9143" data-name="Trazado 9143" d="M161.544,74.105a1.554,1.554,0,0,1-.052.389,1.462,1.462,0,1,1,.052-.389" fill="#78acea"/>
        <path id="Trazado_9144" data-name="Trazado 9144" d="M183.588,61.35a6.734,6.734,0,0,0-6.728,6.728h1.292a5.437,5.437,0,1,1,10.874,0,5.385,5.385,0,0,1-.28,1.721,5.455,5.455,0,0,1-3.38,3.416,5.373,5.373,0,0,1-1.468.291V74.8a6.648,6.648,0,0,0,1.719-.305,6.729,6.729,0,0,0-2.029-13.144" fill="#78acea"/>
        <path id="Trazado_9145" data-name="Trazado 9145" d="M185.669,74.105a1.509,1.509,0,0,1-.052.389,1.465,1.465,0,1,1,.052-.389" fill="#78acea"/>
        <path id="Trazado_9146" data-name="Trazado 9146" d="M124.963,134.77h-7.846a2.1,2.1,0,0,1-1.967-1.649l-1.514-7.846a1.325,1.325,0,0,1,1.331-1.649h7.846a2.1,2.1,0,0,1,1.968,1.649l1.513,7.846a1.325,1.325,0,0,1-1.331,1.649" fill="#6ccff6"/>
        <path id="Trazado_9147" data-name="Trazado 9147" d="M144.762,134.77h-7.846a2.1,2.1,0,0,1-1.967-1.649l-1.514-7.846a1.325,1.325,0,0,1,1.331-1.649h7.846a2.1,2.1,0,0,1,1.968,1.649l1.513,7.846a1.325,1.325,0,0,1-1.331,1.649" fill="#6ccff6"/>
        <path id="Trazado_9148" data-name="Trazado 9148" d="M164.56,134.77h-7.846a2.1,2.1,0,0,1-1.967-1.649l-1.514-7.846a1.325,1.325,0,0,1,1.331-1.649h7.846a2.1,2.1,0,0,1,1.967,1.649l1.514,7.846a1.325,1.325,0,0,1-1.331,1.649" fill="#6ccff6"/>
        <path id="Trazado_9149" data-name="Trazado 9149" d="M65.568,134.77H57.722a2.1,2.1,0,0,1-1.967-1.649l-1.514-7.846a1.325,1.325,0,0,1,1.331-1.649h7.846a2.1,2.1,0,0,1,1.968,1.649l1.513,7.846a1.325,1.325,0,0,1-1.331,1.649" fill="#6ccff6"/>
        <path id="Trazado_9150" data-name="Trazado 9150" d="M56.969,111.214H53.6a.9.9,0,0,1-.845-.709l-.65-3.371a.569.569,0,0,1,.572-.709h3.371a.905.905,0,0,1,.846.709l.65,3.371a.57.57,0,0,1-.572.709" fill="#6ccff6"/>
        <path id="Trazado_9151" data-name="Trazado 9151" d="M85.366,134.77H77.52a2.1,2.1,0,0,1-1.967-1.649l-1.514-7.846a1.325,1.325,0,0,1,1.331-1.649h7.846a2.1,2.1,0,0,1,1.968,1.649l1.513,7.846a1.325,1.325,0,0,1-1.331,1.649" fill="#6ccff6"/>
        <path id="Trazado_9152" data-name="Trazado 9152" d="M105.165,134.77H97.319a2.1,2.1,0,0,1-1.967-1.649l-1.514-7.846a1.325,1.325,0,0,1,1.331-1.649h7.846a2.1,2.1,0,0,1,1.967,1.649l1.514,7.846a1.325,1.325,0,0,1-1.331,1.649" fill="#6ccff6"/>
        <path id="Trazado_9153" data-name="Trazado 9153" d="M184.359,134.77h-7.846a2.1,2.1,0,0,1-1.967-1.649l-1.514-7.846a1.325,1.325,0,0,1,1.331-1.649h7.846a2.1,2.1,0,0,1,1.967,1.649l1.514,7.846a1.325,1.325,0,0,1-1.331,1.649" fill="#6ccff6"/>
        <path id="Trazado_9154" data-name="Trazado 9154" d="M121.676,117.729H113.83a2.1,2.1,0,0,1-1.967-1.649l-1.514-7.846a1.325,1.325,0,0,1,1.331-1.649h7.846a2.1,2.1,0,0,1,1.968,1.649l1.513,7.846a1.325,1.325,0,0,1-1.331,1.649" fill="#6ccff6"/>
        <path id="Trazado_9155" data-name="Trazado 9155" d="M141.475,117.729h-7.846a2.1,2.1,0,0,1-1.967-1.649l-1.514-7.846a1.325,1.325,0,0,1,1.331-1.649h7.846a2.1,2.1,0,0,1,1.967,1.649l1.514,7.846a1.325,1.325,0,0,1-1.331,1.649" fill="#73b50e"/>
        <path id="Trazado_9156" data-name="Trazado 9156" d="M161.273,117.729h-7.846a2.1,2.1,0,0,1-1.967-1.649l-1.514-7.846a1.325,1.325,0,0,1,1.331-1.649h7.846a2.1,2.1,0,0,1,1.967,1.649l1.514,7.846a1.325,1.325,0,0,1-1.331,1.649" fill="#6ccff6"/>
        <path id="Trazado_9157" data-name="Trazado 9157" d="M181.072,117.729h-7.846a2.1,2.1,0,0,1-1.967-1.649l-1.514-7.846a1.325,1.325,0,0,1,1.331-1.649h7.846a2.1,2.1,0,0,1,1.967,1.649l1.514,7.846a1.325,1.325,0,0,1-1.331,1.649" fill="#6ccff6"/>
        <path id="Trazado_9158" data-name="Trazado 9158" d="M128.447,152.831H120.6a2.1,2.1,0,0,1-1.967-1.649l-1.514-7.846a1.325,1.325,0,0,1,1.331-1.649H126.3a2.1,2.1,0,0,1,1.967,1.649l1.514,7.846a1.325,1.325,0,0,1-1.331,1.649" fill="#6ccff6"/>
        <path id="Trazado_9159" data-name="Trazado 9159" d="M148.246,152.831H140.4a2.1,2.1,0,0,1-1.967-1.649l-1.514-7.846a1.325,1.325,0,0,1,1.331-1.649H146.1a2.1,2.1,0,0,1,1.968,1.649l1.513,7.846a1.325,1.325,0,0,1-1.331,1.649" fill="#6ccff6"/>
        <path id="Trazado_9160" data-name="Trazado 9160" d="M168.044,152.831H160.2a2.1,2.1,0,0,1-1.967-1.649l-1.514-7.846a1.325,1.325,0,0,1,1.331-1.649h7.846a2.1,2.1,0,0,1,1.968,1.649l1.513,7.846a1.325,1.325,0,0,1-1.331,1.649" fill="#6ccff6"/>
        <path id="Trazado_9161" data-name="Trazado 9161" d="M69.052,152.831H61.206a2.1,2.1,0,0,1-1.967-1.649l-1.514-7.846a1.325,1.325,0,0,1,1.331-1.649H66.9a2.1,2.1,0,0,1,1.968,1.649l1.513,7.846a1.325,1.325,0,0,1-1.331,1.649" fill="#6ccff6"/>
        <path id="Trazado_9162" data-name="Trazado 9162" d="M88.85,152.831H81a2.1,2.1,0,0,1-1.967-1.649l-1.514-7.846a1.325,1.325,0,0,1,1.331-1.649H86.7a2.1,2.1,0,0,1,1.968,1.649l1.513,7.846a1.325,1.325,0,0,1-1.331,1.649" fill="#6ccff6"/>
        <path id="Trazado_9163" data-name="Trazado 9163" d="M108.649,152.831H100.8a2.1,2.1,0,0,1-1.967-1.649l-1.514-7.846a1.325,1.325,0,0,1,1.331-1.649H106.5a2.1,2.1,0,0,1,1.968,1.649l1.513,7.846a1.325,1.325,0,0,1-1.331,1.649" fill="#6ccff6"/>
        <path id="Trazado_9164" data-name="Trazado 9164" d="M187.843,152.831H180a2.1,2.1,0,0,1-1.967-1.649l-1.514-7.846a1.325,1.325,0,0,1,1.331-1.649h7.846a2.1,2.1,0,0,1,1.967,1.649l1.514,7.846a1.325,1.325,0,0,1-1.331,1.649" fill="#6ccff6"/>
        <path id="Trazado_9165" data-name="Trazado 9165" d="M131.931,170.892h-7.846a2.1,2.1,0,0,1-1.967-1.649L120.6,161.4a1.325,1.325,0,0,1,1.331-1.649h7.846a2.1,2.1,0,0,1,1.968,1.649l1.513,7.846a1.325,1.325,0,0,1-1.331,1.649" fill="#6ccff6"/>
        <path id="Trazado_9166" data-name="Trazado 9166" d="M151.73,170.892h-7.846a2.1,2.1,0,0,1-1.967-1.649L140.4,161.4a1.325,1.325,0,0,1,1.331-1.649h7.846a2.1,2.1,0,0,1,1.967,1.649l1.514,7.846a1.325,1.325,0,0,1-1.331,1.649" fill="#6ccff6"/>
        <path id="Trazado_9167" data-name="Trazado 9167" d="M171.528,170.892h-7.846a2.1,2.1,0,0,1-1.967-1.649L160.2,161.4a1.325,1.325,0,0,1,1.331-1.649h7.846a2.1,2.1,0,0,1,1.968,1.649l1.513,7.846a1.325,1.325,0,0,1-1.331,1.649" fill="#6ccff6"/>
        <path id="Trazado_9168" data-name="Trazado 9168" d="M72.536,170.892H64.69a2.1,2.1,0,0,1-1.967-1.649L61.209,161.4a1.325,1.325,0,0,1,1.331-1.649h7.846a2.1,2.1,0,0,1,1.967,1.649l1.514,7.846a1.325,1.325,0,0,1-1.331,1.649" fill="#6ccff6"/>
        <path id="Trazado_9169" data-name="Trazado 9169" d="M92.334,170.892H84.488a2.1,2.1,0,0,1-1.967-1.649L81.007,161.4a1.325,1.325,0,0,1,1.331-1.649h7.846a2.1,2.1,0,0,1,1.968,1.649l1.513,7.846a1.325,1.325,0,0,1-1.331,1.649" fill="#6ccff6"/>
        <path id="Trazado_9170" data-name="Trazado 9170" d="M112.133,170.892h-7.846a2.1,2.1,0,0,1-1.967-1.649l-1.514-7.846a1.325,1.325,0,0,1,1.331-1.649h7.846a2.1,2.1,0,0,1,1.968,1.649l1.513,7.846a1.325,1.325,0,0,1-1.331,1.649" fill="#6ccff6"/>
        <path id="Trazado_9171" data-name="Trazado 9171" d="M191.327,170.892h-7.846a2.1,2.1,0,0,1-1.967-1.649L180,161.4a1.325,1.325,0,0,1,1.331-1.649h7.846a2.1,2.1,0,0,1,1.968,1.649l1.513,7.846a1.325,1.325,0,0,1-1.331,1.649" fill="#6ccff6"/>
        <path id="Trazado_9172" data-name="Trazado 9172" d="M135.218,187.933h-7.846a2.1,2.1,0,0,1-1.967-1.649l-1.514-7.846a1.325,1.325,0,0,1,1.331-1.649h7.846a2.1,2.1,0,0,1,1.968,1.649l1.513,7.846a1.325,1.325,0,0,1-1.331,1.649" fill="#6ccff6"/>
        <path id="Trazado_9173" data-name="Trazado 9173" d="M155.017,187.933h-7.846a2.1,2.1,0,0,1-1.967-1.649l-1.514-7.846a1.325,1.325,0,0,1,1.331-1.649h7.846a2.1,2.1,0,0,1,1.968,1.649l1.513,7.846a1.325,1.325,0,0,1-1.331,1.649" fill="#6ccff6"/>
        <path id="Trazado_9174" data-name="Trazado 9174" d="M174.815,187.933h-7.846A2.1,2.1,0,0,1,165,186.284l-1.514-7.846a1.325,1.325,0,0,1,1.331-1.649h7.846a2.1,2.1,0,0,1,1.968,1.649l1.513,7.846a1.325,1.325,0,0,1-1.331,1.649" fill="#6ccff6"/>
        <path id="Trazado_9175" data-name="Trazado 9175" d="M75.823,187.933H67.977a2.1,2.1,0,0,1-1.967-1.649L64.5,178.438a1.325,1.325,0,0,1,1.331-1.649h7.846a2.1,2.1,0,0,1,1.968,1.649l1.513,7.846a1.325,1.325,0,0,1-1.331,1.649" fill="#6ccff6"/>
        <path id="Trazado_9176" data-name="Trazado 9176" d="M95.621,187.933H87.775a2.1,2.1,0,0,1-1.967-1.649l-1.514-7.846a1.325,1.325,0,0,1,1.331-1.649h7.846a2.1,2.1,0,0,1,1.967,1.649l1.514,7.846a1.325,1.325,0,0,1-1.331,1.649" fill="#6ccff6"/>
        <path id="Trazado_9177" data-name="Trazado 9177" d="M115.42,187.933h-7.846a2.1,2.1,0,0,1-1.967-1.649l-1.514-7.846a1.325,1.325,0,0,1,1.331-1.649h7.846a2.1,2.1,0,0,1,1.967,1.649l1.514,7.846a1.325,1.325,0,0,1-1.331,1.649" fill="#6ccff6"/>
        <path id="Trazado_9178" data-name="Trazado 9178" d="M80.749,108.118H59.963a.557.557,0,1,1,0-1.114H80.749a.557.557,0,1,1,0,1.114" fill="#afcdfb"/>
        <path id="Trazado_9179" data-name="Trazado 9179" d="M81.381,110.635H60.6a.557.557,0,1,1,0-1.114H81.381a.557.557,0,1,1,0,1.114" fill="#afcdfb"/>
        <path id="Trazado_9180" data-name="Trazado 9180" d="M58.456,89.372H51.323a1.063,1.063,0,0,1,0-2.125h7.133a1.063,1.063,0,0,1,0,2.125" fill="#fff"/>
        <path id="Trazado_9181" data-name="Trazado 9181" d="M78.028,89.372H70.895a1.063,1.063,0,0,1,0-2.125h7.133a1.063,1.063,0,0,1,0,2.125" fill="#fff"/>
        <path id="Trazado_9182" data-name="Trazado 9182" d="M97.6,89.372H90.467a1.063,1.063,0,0,1,0-2.125H97.6a1.063,1.063,0,0,1,0,2.125" fill="#fff"/>
        <path id="Trazado_9183" data-name="Trazado 9183" d="M117.173,89.372H110.04a1.063,1.063,0,0,1,0-2.125h7.133a1.063,1.063,0,0,1,0,2.125" fill="#fff"/>
        <path id="Trazado_9184" data-name="Trazado 9184" d="M136.745,89.372h-7.133a1.063,1.063,0,0,1,0-2.125h7.133a1.063,1.063,0,0,1,0,2.125" fill="#fff"/>
        <path id="Trazado_9185" data-name="Trazado 9185" d="M156.317,89.372h-7.133a1.063,1.063,0,0,1,0-2.125h7.133a1.063,1.063,0,0,1,0,2.125" fill="#fff"/>
        <path id="Trazado_9186" data-name="Trazado 9186" d="M175.889,89.372h-7.133a1.063,1.063,0,0,1,0-2.125h7.133a1.063,1.063,0,0,1,0,2.125" fill="#fff"/>
        <path id="Trazado_9187" data-name="Trazado 9187" d="M128.928,121.38a4.4,4.4,0,0,1-4.131-2.044c-1.479-2.586-.337-6.211,3.394-10.775a49.559,49.559,0,0,1,5.94-6,.261.261,0,0,1,.392.068.342.342,0,0,1-.06.442c-.124.1-12.391,10.333-9.193,15.923,1.013,1.77,3.181,1.888,4.824,1.674,3.039-.4,7-2.24,10.6-4.932,3.725-2.786,6.348-5.926,7.2-8.615.558-1.764.386-3.013-.513-3.714-1.16-.9-3.584-.9-6.484,0a19.679,19.679,0,0,0-7.3,4.064.26.26,0,0,1-.4-.037.346.346,0,0,1,.033-.446,20.262,20.262,0,0,1,7.509-4.191c3.1-.966,5.639-.933,6.954.092.779.607,1.537,1.872.723,4.446-.89,2.815-3.593,6.07-7.417,8.93-3.668,2.745-7.723,4.626-10.846,5.033a9.549,9.549,0,0,1-1.23.084" fill="#002554"/>
        <path id="Trazado_9188" data-name="Trazado 9188" d="M171.962,104.95l-.81-1.528s.4-2.722-3.009-4.444a1.665,1.665,0,0,0-1.95.509c-.648.937,1.235.768,1.134,2.37a2.946,2.946,0,0,0,1.718,3.064l.875,1.013Z" fill="#ffb27d"/>
        <path id="Trazado_9189" data-name="Trazado 9189" d="M204.2,101.3a27.019,27.019,0,0,1-19.048,19.074c-5.032,1.466-16.463-15.1-16.463-15.1s.4-1.528,2.92-1.177c0,0,11.13,7.369,12.531,8.169,1.243.711,9.42-9.13,13.148-10.718a9.514,9.514,0,0,1,6.912-.249" fill="#233862"/>
        <rect id="Rectángulo_5015" data-name="Rectángulo 5015" width="17.843" height="3.547" transform="translate(157.064 101.04) rotate(-10.493)" fill="#c65447"/>
        <path id="Trazado_9190" data-name="Trazado 9190" d="M153.308,103.539l4.4.989-.646-3.488Z" fill="#ffb27d"/>
        <path id="Trazado_9191" data-name="Trazado 9191" d="M176.863,98.57l.2,1.1a1.248,1.248,0,0,1-1,1.455l-.812.151-.646-3.488.883-.164a1.177,1.177,0,0,1,1.371.943" fill="#ffb27d"/>
        <path id="Trazado_9192" data-name="Trazado 9192" d="M223.44,191.673s2,1.825,1.609,3.122-2.194,2.161-2.438,3.745-1.219,2.45-2.1,2.45h-4.186s-.646-1.116.915-1.452,2.149-2.2,2.051-3.927a30.52,30.52,0,0,1,.147-4.034l3.316-.768Z" fill="#233862"/>
        <path id="Trazado_9193" data-name="Trazado 9193" d="M198.908,196.393s.359,4.153-.519,4.585l-11.235-.023s0-1.3,1.8-1.585,4.975-1.344,5.512-3.7,4.438.72,4.438.72" fill="#233862"/>
        <path id="Trazado_9194" data-name="Trazado 9194" d="M189.422,137.727s.593,7.28,1.289,16.031c.947,11.887,2.085,26.489,2.2,29.255.194,4.8.976,12.487.976,12.487s1.852,1.825,5.56,1.056a123.944,123.944,0,0,0,4.247-22.573q.022-.286.044-.574c.878-11.814,2.243-36.69,2.243-36.69Z" fill="#ffc60a"/>
        <path id="Trazado_9195" data-name="Trazado 9195" d="M189.422,137.727s.593,7.28,1.289,16.031l12.981,20.225q.022-.286.044-.574c.878-11.814,2.243-36.69,2.243-36.69Z" fill="#e5a900"/>
        <path id="Trazado_9196" data-name="Trazado 9196" d="M192.129,138.591s10.681,26.365,17.7,38.755,9.218,15.848,9.218,15.848,4.024-1.585,4.39-2.665c0,0-2.686-23.92-7.389-29.751-2.658-3.295-5.78-13.182-5.926-16.64s-.951-10.3-.951-10.3Z" fill="#ffc60a"/>
        <path id="Trazado_9197" data-name="Trazado 9197" d="M206.182,97.961s-7.227,3.487-11.393,2.193a9.831,9.831,0,0,1,2.82-2.256c-.144-.836-.257-1.562-.321-2.178a20.136,20.136,0,0,1-.176-2.224L199.9,91.3l2.644-2.1a10.655,10.655,0,0,0,3.638,8.757" fill="#ffb27d"/>
        <path id="Trazado_9198" data-name="Trazado 9198" d="M188.966,138.328a.65.65,0,0,0,.434.173c1.57-.032,6.137.835,10,.441a29.52,29.52,0,0,0,9.247-2.618c.417-.189,1.363-.694,1.346-1.136-.017-.505-.064-1.215-.128-2.131-.129-1.8-.311-4.362-.37-7.4-.043-2.249-.018-4.76.145-7.419.009-.179.019-.359.026-.539.047-.975.07-1.957.07-2.916a50.6,50.6,0,0,0-.656-8.678c-.786-4.576-2.261-8.157-4.439-9.751-.289-.222-2.084.646-3.75,1.451a6.925,6.925,0,0,1-4.486.537l-1.442,1.262a14.249,14.249,0,0,0-4.52,7.1,78.9,78.9,0,0,0-1.346,13.16c-.111,2.4-.192,4.8-.224,7.083v.079c-.017.237-.017.475-.017.712-.079,5.853,0,10.508.113,10.587" fill="#002554"/>
        <path id="Trazado_9199" data-name="Trazado 9199" d="M202.592,91.46a9.579,9.579,0,0,1-5.3,4.26,20.143,20.143,0,0,1-.176-2.225L199.9,91.3Z" fill="#ed985f"/>
        <path id="Trazado_9200" data-name="Trazado 9200" d="M195.841,93.4s6.894,1.128,7.542-3.111,1.972-6.947-2.4-7.846-5.479.591-6.044,1.954-.873,8.6.9,9" fill="#ffb27d"/>
        <path id="Trazado_9201" data-name="Trazado 9201" d="M205.888,81.935c.063-.072.207-.13.528-.147a1.3,1.3,0,0,0-.6-.169,1.616,1.616,0,0,0-1.074-1.43.963.963,0,0,1,.468.695c-.891-.914-2.8-1.58-8.083-1.163-6.963.55-4.668,5.008-3.766,5.54s3.17-.926,4.85-.793,2,2.561,2.569,2.894.345-.256,1.116-.6.844.929.622,1.76.836,1.926.836,1.926l1.071-1.153c1.07-1.152,2.079-6.035,1.593-7.076l-.13-.279" fill="#2c3a64"/>
        <path id="Trazado_9202" data-name="Trazado 9202" d="M171.138,103.35s.237-.937-.413-1.358-1.248-1.567-1.522-1.412c-.567.322.311,1.321.15,2.568-.056.436.96,1.58,1.785.2" fill="#ffb27d"/>
        <path id="Trazado_9203" data-name="Trazado 9203" d="M209.493,125.66c-.043-2.25-.019-4.76.145-7.419.009-.179.018-.359.026-.539-.655-3.247-1.647-6.128-3.106-6.221,0,0-4.347,6.831,2.935,14.179" fill="#233862"/>
        <path id="Trazado_9204" data-name="Trazado 9204" d="M215.243,137.441a21.844,21.844,0,0,1-.76,4.189,15,15,0,0,1-2.811,3.214c-.721.417.44-2.806.293-3.433s-.593,1.144-.911,1.186-.236-1.553-.248-2.133,1.547-2.014,2.1-3.249,2.341.226,2.341.226" fill="#ffb27d"/>
        <path id="Trazado_9205" data-name="Trazado 9205" d="M204.635,96.322s4.362,2.066,6.454,5.241c3.244,4.926,7,22.878,7.074,24.54s-2.745,13.4-2.745,13.4-2.854-.188-3.59-1.629c0,0,.57-12.058.209-12.834s-11.9-16.175-10.6-19.461,3.2-9.256,3.2-9.256" fill="#002554"/>
        <path id="Trazado_9206" data-name="Trazado 9206" d="M155.563,102.038l.23,2.059-2.486-.558Z" fill="#c65447"/>
      </g>
    </g>
    <g id="Grupo_8532" data-name="Grupo 8532">
      <g id="Grupo_8531" data-name="Grupo 8531" clip-path="url(#clip-path-2)">
        <rect id="Rectángulo_5017" data-name="Rectángulo 5017" width="57.981" height="57.989" transform="translate(73.382 19.914) rotate(-44.061)" fill="url(#linear-gradient)"/>
      </g>
    </g>
  </g>
</svg>
