<svg xmlns="http://www.w3.org/2000/svg" xmlns:xlink="http://www.w3.org/1999/xlink" width="464.482" height="329.708" viewBox="0 0 464.482 329.708">
  <defs>
    <clipPath id="clip-path">
      <rect id="Rectángulo_5271" data-name="Rectángulo 5271" width="464.482" height="329.708" fill="none"/>
    </clipPath>
    <clipPath id="clip-path-3">
      <rect id="Rectángulo_5262" data-name="Rectángulo 5262" width="4.464" height="6.558" fill="none"/>
    </clipPath>
    <clipPath id="clip-path-4">
      <rect id="Rectángulo_5263" data-name="Rectángulo 5263" width="4.041" height="6.609" fill="none"/>
    </clipPath>
    <clipPath id="clip-path-5">
      <rect id="Rectángulo_5265" data-name="Rectángulo 5265" width="5.004" height="7.115" fill="none"/>
    </clipPath>
    <clipPath id="clip-path-6">
      <rect id="Rectángulo_5266" data-name="Rectángulo 5266" width="4.613" height="7.137" fill="none"/>
    </clipPath>
    <clipPath id="clip-path-7">
      <rect id="Rectángulo_5267" data-name="Rectángulo 5267" width="3.255" height="3.5" fill="none"/>
    </clipPath>
    <clipPath id="clip-path-8">
      <rect id="Rectángulo_5268" data-name="Rectángulo 5268" width="4.691" height="6.555" fill="none"/>
    </clipPath>
    <clipPath id="clip-path-9">
      <rect id="Rectángulo_5269" data-name="Rectángulo 5269" width="4.287" height="6.347" fill="none"/>
    </clipPath>
  </defs>
  <g id="Grupo_8768" data-name="Grupo 8768" clip-path="url(#clip-path)">
    <g id="Grupo_8767" data-name="Grupo 8767">
      <g id="Grupo_8766" data-name="Grupo 8766" clip-path="url(#clip-path)">
        <path id="Trazado_10149" data-name="Trazado 10149" d="M464.482,284.212c0,29.741-103.978,53.851-232.241,53.851S0,313.952,0,284.212s103.978-53.851,232.242-53.851,232.241,24.11,232.241,53.851" transform="translate(0 -8.354)" fill="#f7f7f7"/>
        <path id="Trazado_10150" data-name="Trazado 10150" d="M305.781,273.163H78.984a7.4,7.4,0,0,1-7.063-5.186l-45.787-145.8a11.87,11.87,0,0,1,11.324-15.426h206.4a13.162,13.162,0,0,1,12.556,9.218Z" transform="translate(-0.928 -3.872)" fill="#1c3a3e"/>
        <path id="Trazado_10151" data-name="Trazado 10151" d="M297.12,270.076H83.2l-46.13-146.89a4.925,4.925,0,0,1,4.7-6.4H243.521a7.437,7.437,0,0,1,7.1,5.208Z" transform="translate(-1.336 -4.235)" fill="#dee2e6"/>
        <path id="Trazado_10152" data-name="Trazado 10152" d="M86,279.018H418.443v-10.81H79.25Z" transform="translate(-2.874 -9.727)" fill="#1c3a3e"/>
        <path id="Trazado_10153" data-name="Trazado 10153" d="M246.617,279.018H437.194c1.831,0,3.315-1.894,3.315-4.23v-2.351c0-2.336-1.484-4.23-3.315-4.23h-190.1c-1.515,0-2.836,1.31-3.212,3.18l-.472,2.352c-.537,2.674,1.048,5.278,3.212,5.278" transform="translate(-8.823 -9.727)" fill="#1c3a3e"/>
        <path id="Trazado_10154" data-name="Trazado 10154" d="M111.21,144.766s-.713,4.651-2.61,7.021c-1.251,1.563-4.7,4.658-2.247,5.689,1.959.824,5.732-2.843,6.957-3.755s3.071-2.64,2.662-4.11a23.824,23.824,0,0,1-.569-6.879Z" transform="translate(-3.826 -5.176)" fill="#333"/>
        <path id="Trazado_10155" data-name="Trazado 10155" d="M125.614,140.973s.948,4.609-.006,7.49c-.629,1.9-2.788,6-.129,6.115,2.123.092,4.386-4.659,5.217-5.939s1.963-3.542,1.067-4.779a23.808,23.808,0,0,1-2.925-6.252Z" transform="translate(-4.504 -4.99)" fill="#333"/>
        <path id="Trazado_10156" data-name="Trazado 10156" d="M123.439,142.472c-25.432-16.965-24.176-31.825-20.652-37.638,4.094-6.75,10.574-12.087,20.506-14.468a54.97,54.97,0,0,1,7.275-1.213,5.087,5.087,0,0,1,5.6,5.195L135.937,103h.019c-4.242-.089-17.116,1.2-20.489,8.065-.7,1.425,16.418,21.533,15.779,25.14-.723,4.082-5.321,7.922-7.807,6.263" transform="translate(-3.659 -3.232)" fill="#ffc60a"/>
        <path id="Trazado_10157" data-name="Trazado 10157" d="M113.864,145.058a5.065,5.065,0,0,1-5.085-5.36c.384-6.491,1.589-17.538,5.369-25.886a35.722,35.722,0,0,1,10.13-12.793,56.762,56.762,0,0,1,12.28-7.521c7.81-3.591,13.436-3.091,13.436-3.091l4.268,6.3c-.057.011,1.2,6.349-7.827,12-4.979,3.118-14.988,5.023-19.106,13.082-2.939,5.753-4.062,13.381-4.436,18.712a4.885,4.885,0,0,1-4.852,4.54Z" transform="translate(-3.945 -3.278)" fill="#ffc60a"/>
        <path id="Trazado_10158" data-name="Trazado 10158" d="M119.812,67.259a56.067,56.067,0,0,0-7.125,20.034c-1.243,7.916,13.164-1.3,13.164-1.3l.641-16.538Z" transform="translate(-4.084 -2.439)" fill="#fcbdb6"/>
        <path id="Trazado_10159" data-name="Trazado 10159" d="M146.282,62.333s-4-6.829-13.205-4.734-12.963,11.5-13.623,34.094c0,0,5.532,9.788,30.693,7.88,2.788-.212,6.783-.58,5.42-5.1-2.533-8.4-4.985-25.163-9.285-32.139" transform="translate(-4.332 -2.074)" fill="#1a67b3"/>
        <path id="Trazado_10160" data-name="Trazado 10160" d="M156.4,64.316,146.93,66.1s-16.567,4.9-21.2,4.938a7.509,7.509,0,0,1-6.556-3.354,24.533,24.533,0,0,1,11.579-9.344,22.879,22.879,0,0,1,2.317-.749,17.053,17.053,0,0,1,4.119-.689c15.639-.18,19.219,7.417,19.219,7.417" transform="translate(-4.322 -2.063)" fill="#1a67b3"/>
        <path id="Trazado_10161" data-name="Trazado 10161" d="M157.443,64.575c.205.747-1.781,1.993-4.435,2.783s-4.973.826-5.178.079,1.781-1.993,4.435-2.783,4.973-.826,5.178-.079" transform="translate(-5.361 -2.322)" fill="#333"/>
        <path id="Trazado_10162" data-name="Trazado 10162" d="M155.336,85.646c-4.047,6.34-12.062,10.387-20.484,10.122l.9-6.758c6.531-1.19,11.538-5.439,12.47-9.023a29.083,29.083,0,0,0,.21-12.183.851.851,0,0,1,.322-.82,11.531,11.531,0,0,1,6.865-2.017.752.752,0,0,1,.737.558c1.617,6.091,2.594,14.463-1.017,20.121" transform="translate(-4.89 -2.356)" fill="#fcbdb6"/>
        <path id="Trazado_10163" data-name="Trazado 10163" d="M151.644,88.373a1,1,0,0,1-.4-.081,1.628,1.628,0,0,1-.517-2.179,2.074,2.074,0,0,1,1.062-1.128,1.1,1.1,0,0,1,.857-.013,1.63,1.63,0,0,1,.517,2.18,2.072,2.072,0,0,1-1.062,1.127,1.225,1.225,0,0,1-.459.094m.606-3.319a1.073,1.073,0,0,0-.4.082,1.909,1.909,0,0,0-.972,1.04,1.472,1.472,0,0,0,.43,1.967.938.938,0,0,0,.731-.014,1.907,1.907,0,0,0,.973-1.04,1.473,1.473,0,0,0-.43-1.967.857.857,0,0,0-.334-.067m.839,2.066h0Z" transform="translate(-5.459 -3.079)" fill="#f9a6a0"/>
        <path id="Trazado_10164" data-name="Trazado 10164" d="M135.376,89.868s-6.049-1.923-7.972-1.013-3.691,3.524-2.379,3.215A14.027,14.027,0,0,0,127.9,90.9s-3.259,2-2.462,2.555,3.615-1.2,3.615-1.2-3.69,2.683-2.766,2.968S130,93.448,130,93.448s-3.333,2.634-2.251,2.94,2.74-2.194,3.537-1.635,2.83,3.134,4.657,1.109Z" transform="translate(-4.518 -3.214)" fill="#fcbdb6"/>
        <path id="Trazado_10165" data-name="Trazado 10165" d="M128.077,91.02l-.1-.12c.036-.029.882-.731,1.555-.54l-.042.151c-.593-.168-1.4.5-1.411.509" transform="translate(-4.641 -3.276)" fill="#f9a6a0"/>
        <path id="Trazado_10166" data-name="Trazado 10166" d="M129.274,92.421l-.1-.119A2.769,2.769,0,0,1,131,91.658l-.013.156a2.635,2.635,0,0,0-1.713.607" transform="translate(-4.684 -3.324)" fill="#f9a6a0"/>
        <path id="Trazado_10167" data-name="Trazado 10167" d="M130.255,93.663l-.1-.12c.042-.036,1.041-.865,1.741-.6l-.056.147c-.613-.232-1.575.567-1.584.574" transform="translate(-4.72 -3.369)" fill="#f9a6a0"/>
        <path id="Trazado_10168" data-name="Trazado 10168" d="M127.155,99.157H107.737a.943.943,0,0,1-.9-.642l-4.035-12.051a.938.938,0,0,1,.9-1.234h18.674a1.976,1.976,0,0,1,1.875,1.343l3.8,11.35a.939.939,0,0,1-.9,1.234" transform="translate(-3.727 -3.091)" fill="#333"/>
        <path id="Trazado_10169" data-name="Trazado 10169" d="M125.891,99.157H106.473a.946.946,0,0,1-.9-.642L101.54,86.464a.938.938,0,0,1,.9-1.234H121.11a1.978,1.978,0,0,1,1.876,1.343l3.8,11.35a.938.938,0,0,1-.894,1.234" transform="translate(-3.681 -3.091)" fill="#333"/>
        <path id="Trazado_10170" data-name="Trazado 10170" d="M112.69,92.023c0-.458.528-.644.989-.644a1.32,1.32,0,0,1,1.209,1.143c-.006.692-.546.782-1.007.782a1.524,1.524,0,0,1-1.19-1.281" transform="translate(-4.087 -3.314)" fill="#fff"/>
        <path id="Trazado_10171" data-name="Trazado 10171" d="M133.216,97.914H106.649v1.7h27.122a.574.574,0,0,0,.574-.573,1.13,1.13,0,0,0-1.129-1.129" transform="translate(-3.868 -3.551)" fill="#333"/>
        <path id="Trazado_10172" data-name="Trazado 10172" d="M125.265,91.321a33.917,33.917,0,0,0-1.58-4.719,2.626,2.626,0,0,0-1.365-1.313l.034-.121a2.7,2.7,0,0,1,1.442,1.373,33.131,33.131,0,0,1,1.59,4.747Z" transform="translate(-4.436 -3.089)" fill="#24555e"/>
        <path id="Trazado_10173" data-name="Trazado 10173" d="M128.263,97.8c-.72,0-.9-.318-.907-.332l-1.517-4.531.12-.04,1.513,4.52s.165.255.791.255Z" transform="translate(-4.564 -3.369)" fill="#24555e"/>
        <path id="Trazado_10174" data-name="Trazado 10174" d="M109.776,131.132l-.157-.01a71.486,71.486,0,0,1,2.205-12.436c1.66-6.071,4.879-14.048,10.8-17.59l.08.136c-5.871,3.514-9.073,11.454-10.724,17.5a71.156,71.156,0,0,0-2.2,12.4" transform="translate(-3.975 -3.666)" fill="#333"/>
        <path id="Trazado_10175" data-name="Trazado 10175" d="M123.226,143.106h-.157a46.1,46.1,0,0,1,3.05-16.086l.145.063a45.9,45.9,0,0,0-3.038,16.024" transform="translate(-4.463 -4.606)" fill="#333"/>
        <path id="Trazado_10176" data-name="Trazado 10176" d="M128.487,55.4a2.747,2.747,0,0,1-1.816-1.209,1.853,1.853,0,0,1,.212-1.722c.163-.29.314-.553.452-.794.96-1.672,1.284-2.236.966-3.5l.115-.029c.331,1.314-.026,1.933-.977,3.591-.138.24-.288.5-.452.793a1.746,1.746,0,0,0-.208,1.612,2.681,2.681,0,0,0,1.732,1.144Z" transform="translate(-4.589 -1.746)" fill="#501506"/>
        <path id="Trazado_10177" data-name="Trazado 10177" d="M128.38,48.162a6.036,6.036,0,0,1-.741,4.231c-1.274,2.2.265,3.708,2.073,2.812s2.6,1.421,4.9.032-6.233-7.075-6.233-7.075" transform="translate(-4.612 -1.747)" fill="#501506"/>
        <path id="Trazado_10178" data-name="Trazado 10178" d="M137.425,55.125l-1.372-2.872-.4-.839-2.357-4.936.578,5.189.347,3.114.1.888c.124,1.075-1.435,1.732-1.435,1.732-.36.641-.533,1.747,1.075,2.19,1.888.52,4.988-1.255,6-3.038,0,0-2.093-.5-2.537-1.426" transform="translate(-4.81 -1.686)" fill="#fcbdb6"/>
        <path id="Trazado_10179" data-name="Trazado 10179" d="M136.1,52.349c0,.029,0,.058,0,.087a3.3,3.3,0,0,1-1.821,2.536l-.012-.01-.348-3.114a2.671,2.671,0,0,1,1.78-.252.732.732,0,0,1,.4.753" transform="translate(-4.857 -1.868)" fill="#333"/>
        <path id="Trazado_10180" data-name="Trazado 10180" d="M128.036,47.315c-.13-3.331,1.952-6.116,4.652-6.222s4.993,2.509,5.124,5.839-1.952,6.116-4.653,6.222-4.993-2.509-5.123-5.839" transform="translate(-4.643 -1.49)" fill="#fcbdb6"/>
        <path id="Trazado_10181" data-name="Trazado 10181" d="M137.463,48.043a1.2,1.2,0,0,1-1.724.19,1.344,1.344,0,0,1,.205-1.8,1.2,1.2,0,0,1,1.724-.189,1.343,1.343,0,0,1-.205,1.8" transform="translate(-4.913 -1.667)" fill="#fcbdb6"/>
        <path id="Trazado_10182" data-name="Trazado 10182" d="M130.534,51.481a10.629,10.629,0,0,0,3.318-.678,1.629,1.629,0,0,1-1.6,1.821c-1.049.105-1.717-1.143-1.717-1.143" transform="translate(-4.734 -1.842)" fill="#e9633e"/>
        <path id="Trazado_10183" data-name="Trazado 10183" d="M130.534,51.481a2.191,2.191,0,0,0,1.36.279,3.917,3.917,0,0,0,1.958-.957,15.98,15.98,0,0,1-3.318.678" transform="translate(-4.734 -1.842)" fill="#fff"/>
        <path id="Trazado_10184" data-name="Trazado 10184" d="M132.616,47.417a.113.113,0,0,1-.077-.064.111.111,0,0,1,.056-.146,1.206,1.206,0,0,1,1.452.265.111.111,0,0,1,0,.157.121.121,0,0,1-.157,0,1.9,1.9,0,0,0-1.206-.221.111.111,0,0,1-.07.007" transform="translate(-4.806 -1.707)" fill="#080435"/>
        <path id="Trazado_10185" data-name="Trazado 10185" d="M133.556,48.645c.018.265-.121.491-.314.5s-.363-.19-.382-.455.121-.491.314-.5.362.19.382.455" transform="translate(-4.818 -1.748)" fill="#080435"/>
        <path id="Trazado_10186" data-name="Trazado 10186" d="M128.52,48.17a.111.111,0,0,1-.1-.186,1.2,1.2,0,0,1,1.444-.308.112.112,0,0,1,.062.145.121.121,0,0,1-.145.062,1.9,1.9,0,0,0-1.2.255.11.11,0,0,1-.063.033" transform="translate(-4.656 -1.725)" fill="#080435"/>
        <path id="Trazado_10187" data-name="Trazado 10187" d="M129.858,48.954a.431.431,0,0,1-.1.586c-.173.086-.408-.038-.526-.276a.43.43,0,0,1,.1-.585c.173-.086.408.037.526.275" transform="translate(-4.684 -1.764)" fill="#080435"/>
        <path id="Trazado_10188" data-name="Trazado 10188" d="M130.629,42.187a2.808,2.808,0,0,0,2.814,2.343c2.627.254,4.473,1.289,4.2,3.185s-4.337,5.966-1.182,7.358,2.385-1.4,5.767-.881,3.812-3.982,1.4-6.493-1.745-9.429-10.4-8.784-5.208,7.433-5.208,7.433,2.709-1.851,2.614-4.161" transform="translate(-4.618 -1.41)" fill="#501506"/>
        <path id="Trazado_10189" data-name="Trazado 10189" d="M137.493,55.516a1.818,1.818,0,0,1-1.236-1.119c-.436-1.389,1.116-3.572,2.486-5.5.36-.508.7-.986,1-1.443a3.226,3.226,0,0,0,.055-3.782,3.761,3.761,0,0,0-4.17-1.208c-3.235.886-4.686-1.038-4.7-1.058l.058-.041c.014.019,1.437,1.9,4.624,1.032a3.828,3.828,0,0,1,4.245,1.234A3.335,3.335,0,0,1,139.8,47.5c-.3.457-.642.936-1,1.444-1.36,1.913-2.9,4.081-2.476,5.436a1.729,1.729,0,0,0,1.193,1.074Z" transform="translate(-4.748 -1.5)" fill="#fff"/>
        <path id="Trazado_10190" data-name="Trazado 10190" d="M128.413,51.948a3.273,3.273,0,0,1-1.811-2.1c-.634-1.75-.315-3.737.711-4.429a1.4,1.4,0,0,1,1.265-.175,3.276,3.276,0,0,1,1.81,2.1c.634,1.747.315,3.737-.711,4.432a1.4,1.4,0,0,1-.739.25,1.536,1.536,0,0,1-.525-.074m1.771-4.531a3.057,3.057,0,0,0-1.673-1.968,1.21,1.21,0,0,0-1.076.146c-.949.642-1.231,2.516-.628,4.178a3.067,3.067,0,0,0,1.673,1.968,1.216,1.216,0,0,0,1.074-.146c.949-.645,1.232-2.52.63-4.178" transform="translate(-4.579 -1.638)" fill="#1c3a3e"/>
        <g id="Grupo_8747" data-name="Grupo 8747" transform="translate(127.117 42.145)" opacity="0.3">
          <g id="Grupo_8746" data-name="Grupo 8746">
            <g id="Grupo_8745" data-name="Grupo 8745" clip-path="url(#clip-path-3)">
              <path id="Trazado_10191" data-name="Trazado 10191" d="M136.2,45.916c.46,1.707-.1,3.579-1.238,4.184s-2.443-.289-2.9-1.995.1-3.58,1.238-4.185,2.443.289,2.9,2" transform="translate(-131.9 -43.731)" fill="#fff"/>
            </g>
          </g>
        </g>
        <g id="Grupo_8750" data-name="Grupo 8750" transform="translate(122.001 43.672)" opacity="0.3">
          <g id="Grupo_8749" data-name="Grupo 8749">
            <g id="Grupo_8748" data-name="Grupo 8748" clip-path="url(#clip-path-4)">
              <path id="Trazado_10192" data-name="Trazado 10192" d="M130.453,47.488c.461,1.714.011,3.61-1.005,4.236s-2.214-.259-2.674-1.974-.011-3.61,1.005-4.235,2.214.258,2.674,1.973" transform="translate(-126.592 -45.315)" fill="#fff"/>
            </g>
          </g>
        </g>
        <path id="Trazado_10193" data-name="Trazado 10193" d="M133.323,50.17a3.232,3.232,0,0,1-1.661-2.2c-.5-1.821.12-3.836,1.379-4.49a1.8,1.8,0,0,1,1.588-.049,3.225,3.225,0,0,1,1.657,2.2c.5,1.825-.117,3.84-1.379,4.49a1.771,1.771,0,0,1-.773.213,1.862,1.862,0,0,1-.811-.16m-.183-6.5c-1.173.609-1.742,2.511-1.27,4.24a3.069,3.069,0,0,0,1.542,2.059,1.62,1.62,0,0,0,1.4-.045c1.175-.61,1.744-2.511,1.27-4.24a3.07,3.07,0,0,0-1.536-2.056,1.585,1.585,0,0,0-1.4.042" transform="translate(-4.769 -1.569)" fill="#1c3a3e"/>
        <path id="Trazado_10194" data-name="Trazado 10194" d="M130.377,48.218a.2.2,0,0,0,.127-.052,1.833,1.833,0,0,1,1.447-.315.211.211,0,0,0,.233-.17.2.2,0,0,0-.17-.229,2.191,2.191,0,0,0-1.782.41.2.2,0,0,0-.014.287.2.2,0,0,0,.159.069" transform="translate(-4.721 -1.719)" fill="#1c3a3e"/>
        <path id="Trazado_10195" data-name="Trazado 10195" d="M159.466,256.275h0a8.612,8.612,0,0,1-10.953-5.32L130.624,199.3a8.611,8.611,0,1,1,16.274-5.636l17.89,51.653a8.611,8.611,0,0,1-5.322,10.956" transform="translate(-4.72 -6.813)" fill="#002554"/>
        <path id="Trazado_10196" data-name="Trazado 10196" d="M145.957,146.723s56.8-46.784,76.287-107.406L297.689,228.1s-87.169-41-135.881-40.5c0,0-14.61-4.182-18.709-17.44-4.42-14.294,2.857-23.431,2.857-23.431" transform="translate(-5.138 -1.426)" fill="#ffc60a"/>
        <path id="Trazado_10197" data-name="Trazado 10197" d="M238.142,141.446c22,56.732,57.562,95.858,79.424,87.389s21.747-61.324-.257-118.057-57.562-95.858-79.423-87.39-21.747,61.324.256,118.057" transform="translate(-8.035 -0.806)" fill="#002554"/>
        <path id="Trazado_10198" data-name="Trazado 10198" d="M310.049,222.684c-8.308,0-18.609-6.843-29.618-19.825-13.206-15.571-25.908-38.145-35.766-63.564s-15.7-50.651-16.444-71.048C227.47,47.7,232,34.479,240.965,31.005S262.2,34.254,275.5,49.936C288.7,65.507,301.4,88.082,311.264,113.5s15.7,50.652,16.443,71.048c.75,20.543-3.777,33.768-12.745,37.243a13.5,13.5,0,0,1-4.913.893M245.877,30.939a12.674,12.674,0,0,0-4.611.838c-4.321,1.674-7.576,5.769-9.672,12.171-2.048,6.257-2.9,14.421-2.544,24.269.741,20.307,6.561,45.444,16.387,70.779s22.478,47.825,35.626,63.328c6.374,7.517,12.514,12.973,18.246,16.216,5.865,3.319,11.032,4.153,15.353,2.479s7.576-5.769,9.672-12.17c2.048-6.258,2.9-14.422,2.544-24.269-.741-20.308-6.561-45.444-16.387-70.78s-22.478-47.825-35.625-63.328c-6.375-7.517-12.514-12.973-18.247-16.216-3.905-2.209-7.5-3.317-10.742-3.317" transform="translate(-8.274 -1.092)" fill="#333"/>
        <path id="Trazado_10199" data-name="Trazado 10199" d="M250.83,114.715l36.279-3.349a10.3,10.3,0,0,1,10.76,6.508l2.826,7.285a12.149,12.149,0,0,1-4.269,14.279l-30.617,21.868s-22.26-18.334-14.978-46.591" transform="translate(-9.043 -4.036)" fill="#ffc60a"/>
        <path id="Trazado_10200" data-name="Trazado 10200" d="M297.556,139.791a23.625,23.625,0,0,1-11.626-13.628c-1.831-5.295-1.146-9.106-.249-11.372a9.781,9.781,0,0,1,2.46-3.734l.5.6a9.226,9.226,0,0,0-2.251,3.466c-.836,2.136-1.466,5.74.278,10.782a22.767,22.767,0,0,0,11.191,13.161Z" transform="translate(-10.328 -4.028)" fill="#333"/>
        <path id="Trazado_10201" data-name="Trazado 10201" d="M144.921,150.765l-25.628,15.046a12.494,12.494,0,0,0-5.328,15.293l4,10.319a12.508,12.508,0,0,0,14.845,7.568l27.96-7.354s-9.091-2.215-14.827-17.937a38.664,38.664,0,0,1-1.024-22.934" transform="translate(-4.102 -5.468)" fill="#ffc60a"/>
        <path id="Trazado_10202" data-name="Trazado 10202" d="M161.948,192.014a.391.391,0,0,1-.251-.091c-9.906-8.207-13.726-18.978-15.187-26.568a52.1,52.1,0,0,1-.8-14.655.393.393,0,0,1,.78.1,51.353,51.353,0,0,0,.8,14.434c1.439,7.456,5.194,18.033,14.912,26.086a.392.392,0,0,1-.251.695" transform="translate(-5.277 -5.453)" fill="#333"/>
        <path id="Trazado_10203" data-name="Trazado 10203" d="M192.035,194.776a.4.4,0,0,1-.257-.1,88.33,88.33,0,0,1-19.36-23.024,62.659,62.659,0,0,1-7.331-20.145c-2.017-11.683.441-19.656.466-19.735a.393.393,0,1,1,.75.237c-.025.078-2.431,7.9-.434,19.411a61.889,61.889,0,0,0,7.249,19.875,87.551,87.551,0,0,0,19.174,22.787.393.393,0,0,1-.257.69" transform="translate(-5.958 -4.769)" fill="#333"/>
        <path id="Trazado_10204" data-name="Trazado 10204" d="M190.386,247.648c-.716,1.277-7.912,12.423-6.406,23.324l7.831-2.831,3.579-14.7Z" transform="translate(-6.665 -8.981)" fill="#fcbdb6"/>
        <path id="Trazado_10205" data-name="Trazado 10205" d="M221.871,242.657s-4.812-8.63-16.525-6.244-18.1,19.15-14.927,52.356c0,0,18.608-7.4,42.8-1.434,0,0-3.982-32.158-11.35-44.678" transform="translate(-6.876 -8.559)" fill="#1a67b3"/>
        <path id="Trazado_10206" data-name="Trazado 10206" d="M230.723,239.154l-8.233,8.219s-21.107,5.7-26.969,5.634a9.419,9.419,0,0,1-8.171-4.352,31.255,31.255,0,0,1,14.96-11.38,29.145,29.145,0,0,1,2.954-.877,30.154,30.154,0,0,1,5.23-.758c10.364-.617,20.229,3.515,20.229,3.515" transform="translate(-6.794 -8.543)" fill="#1a67b3"/>
        <path id="Trazado_10207" data-name="Trazado 10207" d="M232.039,239.283c1.316,1.43-.713,2.993-2.987,5.263s-4.622,3.593-5.246,2.956.713-2.993,2.987-5.263,4.642-3.612,5.246-2.956" transform="translate(-8.111 -8.672)" fill="#333"/>
        <path id="Trazado_10208" data-name="Trazado 10208" d="M224.948,247.612s-.122-1.641,1.941-3.737a12.525,12.525,0,0,1,3.87-2.544,1.2,1.2,0,0,1,1.6.676l.659,1.7-3.073,1.979Z" transform="translate(-8.158 -8.748)" fill="#fcbdb6"/>
        <path id="Trazado_10209" data-name="Trazado 10209" d="M209.5,279.224s25.4-13.764,34.5,1.251c6.738,11.115-3.391,21.465-40.967,20.414,0,0-3.713-1.739-2.809-10.761.359-3.574,9.273-10.9,9.273-10.9" transform="translate(-7.256 -9.917)" fill="#ffc60a"/>
        <path id="Trazado_10210" data-name="Trazado 10210" d="M208.223,279.138S174.4,265.282,167.7,273.944c-7.693,9.955-.316,26.859,35.342,20.817l4.345-4.718Z" transform="translate(-5.982 -9.831)" fill="#ffc60a"/>
        <path id="Trazado_10211" data-name="Trazado 10211" d="M202.988,301.221c-4.172-2.977-2.852-10.753-2.838-10.831l.008-.04.039-.014,25.679-9.345.049.133-25.64,9.332a19.155,19.155,0,0,0-.157,4.207c.163,2.1.806,4.919,2.944,6.444Z" transform="translate(-7.251 -10.19)" fill="#333"/>
        <path id="Trazado_10212" data-name="Trazado 10212" d="M199.608,293.331s-6.234.253-9.163,1.689-1.365,4.942,4.582,4.849,5.5-.978,5.5-.978a15.561,15.561,0,0,1-.914-5.56" transform="translate(-6.855 -10.638)" fill="#333"/>
        <path id="Trazado_10213" data-name="Trazado 10213" d="M207.988,278.759a8.257,8.257,0,0,1-5.136-1.559,7.4,7.4,0,0,1-2.7-7.161l2.485-1.445c.123-.682,4.919,1.851,4.91,1.848.022.008,2.289.663,10.148-3.353,5.47-2.8,8.228-6.764,8.429-12.131a13.05,13.05,0,0,0-2.077-7.3c-.057-.131,2.644-2.838,2.566-3.114l2.025-1.029c-.066-.231,1.947-1.025,1.918-1.092l1.562,1.331a26.068,26.068,0,0,1,2.2,11.52c-.22,5.861-2.641,13.951-12.921,19.2-5.606,2.865-10.006,4.283-13.407,4.283" transform="translate(-7.254 -8.792)" fill="#fcbdb6"/>
        <path id="Trazado_10214" data-name="Trazado 10214" d="M205.521,279.876H183.6a1.065,1.065,0,0,1-1.011-.725l-4.556-13.6a1.06,1.06,0,0,1,1.012-1.393h21.08a2.23,2.23,0,0,1,2.116,1.516l4.29,12.813a1.059,1.059,0,0,1-1.011,1.392" transform="translate(-6.454 -9.58)" fill="#333"/>
        <path id="Trazado_10215" data-name="Trazado 10215" d="M204.093,279.876h-21.92a1.065,1.065,0,0,1-1.011-.725l-4.556-13.6a1.06,1.06,0,0,1,1.012-1.393H198.7a2.23,2.23,0,0,1,2.116,1.516l4.29,12.813a1.059,1.059,0,0,1-1.011,1.392" transform="translate(-6.403 -9.58)" fill="#333"/>
        <path id="Trazado_10216" data-name="Trazado 10216" d="M189.192,271.823c0-.517.6-.727,1.116-.727a1.488,1.488,0,0,1,1.364,1.29c-.006.781-.616.883-1.136.883a1.721,1.721,0,0,1-1.343-1.447" transform="translate(-6.861 -9.831)" fill="#fff"/>
        <path id="Trazado_10217" data-name="Trazado 10217" d="M212.362,278.473H182.373V280.4h30.616a.648.648,0,0,0,.649-.648,1.275,1.275,0,0,0-1.275-1.275" transform="translate(-6.614 -10.099)" fill="#333"/>
        <path id="Trazado_10218" data-name="Trazado 10218" d="M203.387,271.031A38.288,38.288,0,0,0,201.6,265.7a2.949,2.949,0,0,0-1.54-1.482l.038-.138a3.051,3.051,0,0,1,1.627,1.551,37.473,37.473,0,0,1,1.8,5.359Z" transform="translate(-7.255 -9.577)" fill="#24555e"/>
        <path id="Trazado_10219" data-name="Trazado 10219" d="M206.771,278.339c-.812,0-1.015-.359-1.023-.375l-1.713-5.113.135-.045,1.708,5.1h0s.186.289.893.289Z" transform="translate(-7.399 -9.893)" fill="#24555e"/>
        <path id="Trazado_10220" data-name="Trazado 10220" d="M228.707,267.752a.694.694,0,0,1-.354-.092c-.537-.313-.521-1.318.034-2.29a2.551,2.551,0,0,1,1.353-1.234.767.767,0,0,1,.6.058c.536.312.521,1.318-.035,2.29a2.551,2.551,0,0,1-1.352,1.234.964.964,0,0,1-.244.034m1.278-3.364a.7.7,0,0,0-.171.024,2.3,2.3,0,0,0-1.18,1.1c-.461.807-.524,1.678-.138,1.9a.483.483,0,0,0,.38.029,2.3,2.3,0,0,0,1.18-1.1c.461-.806.524-1.677.138-1.9a.416.416,0,0,0-.209-.053" transform="translate(-8.267 -9.578)" fill="#f9a6a0"/>
        <path id="Trazado_10221" data-name="Trazado 10221" d="M211.137,235.237c-1.44-.042-2.533-.19-3.361-1.165l-2.564-3.016-.746-.878-4.388-5.162,2.3,6.036,1.384,3.624.438,1.147c.3.778-.1,1.141-.372,2.052-.112.369-.868,2.64,1.1,2.653,2.455.018,5.56-2.834,6.241-5.3a.174.174,0,0,1-.038.008" transform="translate(-7.256 -8.16)" fill="#fcbdb6"/>
        <path id="Trazado_10222" data-name="Trazado 10222" d="M206.091,228.917s4.832-4.643,2.044-8.563-3.484,6.29-3.484,6.29l.78,2.36Z" transform="translate(-7.422 -7.959)" fill="#501506"/>
        <path id="Trazado_10223" data-name="Trazado 10223" d="M205.274,231.146c.01.035.017.069.024.1.448,2.036-1.429,3.627-1.429,3.627l-.016-.007-1.384-3.624a3.4,3.4,0,0,1,2.084-.874.9.9,0,0,1,.722.774" transform="translate(-7.343 -8.354)" fill="#333"/>
        <path id="Trazado_10224" data-name="Trazado 10224" d="M194.753,228.241c-1.09-3.629.443-7.311,3.424-8.224s6.28,1.29,7.37,4.919-.443,7.311-3.424,8.224-6.28-1.289-7.37-4.919" transform="translate(-7.05 -7.972)" fill="#fcbdb6"/>
        <path id="Trazado_10225" data-name="Trazado 10225" d="M204.354,224.287a2.574,2.574,0,0,1-2.829.173c-1.289-.945-2.2-1.843-5.089-.389s-6.048.8-6.632-.836.791-2.889,2.606-2.808-.385-.914.878-2.634,4.462.052,6.048-.8,7.239-1.593,8.255,3.25Z" transform="translate(-6.878 -7.847)" fill="#501506"/>
        <path id="Trazado_10226" data-name="Trazado 10226" d="M206.082,225.524a1.161,1.161,0,0,1-1.589.431,1.186,1.186,0,0,1-.246-1.643,1.161,1.161,0,0,1,1.589-.431,1.186,1.186,0,0,1,.246,1.643" transform="translate(-7.399 -8.113)" fill="#fcbdb6"/>
        <path id="Trazado_10227" data-name="Trazado 10227" d="M193.076,222.842a1.267,1.267,0,0,1-.31-.037c-.651-.165-.833-.506-.786-.769.054-.3.421-.593,1-.533a2.256,2.256,0,0,0,1.336-.2l.114.177a2.394,2.394,0,0,1-1.471.237c-.429-.043-.733.152-.77.359s.2.419.63.527c1.113.284,3.032-1.446,3.051-1.464l.143.157c-.076.068-1.722,1.549-2.936,1.549" transform="translate(-6.962 -8.02)" fill="#fff"/>
        <path id="Trazado_10228" data-name="Trazado 10228" d="M198.208,218.633a4.618,4.618,0,0,1-2.317-.613l.154-.144a4.34,4.34,0,0,0,3.294.346,12.866,12.866,0,0,0,1.341-.641,3.709,3.709,0,0,1,2.435-.678l-.041.207a3.571,3.571,0,0,0-2.3.657,12.809,12.809,0,0,1-1.362.651,3.312,3.312,0,0,1-1.209.213" transform="translate(-7.104 -7.865)" fill="#fff"/>
        <path id="Trazado_10229" data-name="Trazado 10229" d="M206.7,220.083a1.729,1.729,0,0,1-1.028-.788c-.112-.225,0-.33.056-.363.423-.268,1.035.566,1.154.735l.016.033c.068.258-.04.342-.112.369a.246.246,0,0,1-.086.014m-.789-.992a.124.124,0,0,0-.07.019c-.011.018.007.129.213.341a1.236,1.236,0,0,0,.656.419.424.424,0,0,0-.013-.1c-.215-.3-.578-.68-.786-.68" transform="translate(-7.457 -7.938)" fill="#fff"/>
        <path id="Trazado_10230" data-name="Trazado 10230" d="M199.238,227.014a.111.111,0,0,1-.084-.058.116.116,0,0,1,.043-.157,1.229,1.229,0,0,1,1.51.142.117.117,0,0,1,.016.162.125.125,0,0,1-.161.016A1.944,1.944,0,0,0,199.31,227a.117.117,0,0,1-.071.013" transform="translate(-7.222 -8.218)" fill="#080435"/>
        <path id="Trazado_10231" data-name="Trazado 10231" d="M200.311,228.2c.043.272-.08.518-.276.549s-.389-.163-.432-.435.08-.518.276-.55.388.164.432.436" transform="translate(-7.238 -8.26)" fill="#080435"/>
        <path id="Trazado_10232" data-name="Trazado 10232" d="M195.095,228.507a.083.083,0,0,1-.08-.027.14.14,0,0,1-.023-.16.8.8,0,0,1,1.117-.363.136.136,0,0,1,.067.146.084.084,0,0,1-.108.068,1.192,1.192,0,0,0-.928.3.074.074,0,0,1-.045.036" transform="translate(-7.071 -8.263)" fill="#080435"/>
        <path id="Trazado_10233" data-name="Trazado 10233" d="M196.559,229.19a.449.449,0,0,1-.048.614c-.169.105-.421,0-.563-.236a.45.45,0,0,1,.047-.614c.169-.105.421,0,.564.236" transform="translate(-7.103 -8.302)" fill="#080435"/>
        <path id="Trazado_10234" data-name="Trazado 10234" d="M199.951,232.148a3.131,3.131,0,0,1-.692-.071.08.08,0,0,1,.04-.155,2.591,2.591,0,0,0,2.855-1.144.08.08,0,0,1,.109-.03.079.079,0,0,1,.03.109,2.562,2.562,0,0,1-2.341,1.291" transform="translate(-7.224 -8.368)" fill="#333"/>
        <path id="Trazado_10235" data-name="Trazado 10235" d="M202.556,231.129a.08.08,0,0,1-.076-.055.906.906,0,0,0-.454-.459L202,230.6a.079.079,0,0,1-.022-.111.08.08,0,0,1,.111-.022,1.09,1.09,0,0,1,.541.556.081.081,0,0,1-.051.1.075.075,0,0,1-.025,0" transform="translate(-7.324 -8.358)" fill="#333"/>
        <rect id="Rectángulo_5264" data-name="Rectángulo 5264" width="4.14" height="0.352" transform="translate(184.876 243.726) rotate(-71.813)" fill="#333"/>
        <path id="Trazado_10236" data-name="Trazado 10236" d="M195.792,232.961a1.732,1.732,0,0,1-.232-.015,3.578,3.578,0,0,1-2.357-1.917c-1.02-1.767-1.064-3.98-.1-4.935a1.521,1.521,0,0,1,1.317-.437,3.574,3.574,0,0,1,2.357,1.917c1.02,1.766,1.065,3.979.1,4.934a1.509,1.509,0,0,1-1.086.453m-1.6-7.081a1.278,1.278,0,0,0-.922.384c-.891.884-.829,2.968.141,4.646a3.338,3.338,0,0,0,2.181,1.8,1.294,1.294,0,0,0,1.12-.369c.892-.885.829-2.969-.14-4.647a3.344,3.344,0,0,0-2.183-1.8,1.536,1.536,0,0,0-.2-.013" transform="translate(-6.978 -8.183)" fill="#fff"/>
        <g id="Grupo_8753" data-name="Grupo 8753" transform="translate(191.034 214.83)" opacity="0.3">
          <g id="Grupo_8752" data-name="Grupo 8752">
            <g id="Grupo_8751" data-name="Grupo 8751" clip-path="url(#clip-path-5)">
              <path id="Trazado_10237" data-name="Trazado 10237" d="M202.73,224.879c.826,1.757.6,3.893-.51,4.773s-2.675.169-3.5-1.588-.6-3.893.51-4.772,2.675-.169,3.5,1.587" transform="translate(-198.223 -222.914)" fill="#fff"/>
            </g>
          </g>
        </g>
        <g id="Grupo_8756" data-name="Grupo 8756" transform="translate(185.822 217.55)" opacity="0.3">
          <g id="Grupo_8755" data-name="Grupo 8755">
            <g id="Grupo_8754" data-name="Grupo 8754" clip-path="url(#clip-path-6)">
              <path id="Trazado_10238" data-name="Trazado 10238" d="M196.873,227.717c.829,1.765.717,3.906-.251,4.782s-2.423.157-3.252-1.608-.717-3.906.25-4.782,2.424-.157,3.253,1.608" transform="translate(-192.815 -225.736)" fill="#fff"/>
            </g>
          </g>
        </g>
        <path id="Trazado_10239" data-name="Trazado 10239" d="M200.963,230.107a2.089,2.089,0,0,1-.482-.058,3.525,3.525,0,0,1-2.216-2.05c-.891-1.874-.623-4.177.6-5.132a1.93,1.93,0,0,1,1.685-.368,3.532,3.532,0,0,1,2.216,2.05c.891,1.874.622,4.177-.6,5.133a1.928,1.928,0,0,1-1.2.425m-.89-7.427a1.7,1.7,0,0,0-1.059.375c-1.14.89-1.379,3.062-.533,4.842a3.345,3.345,0,0,0,2.056,1.921,1.7,1.7,0,0,0,1.483-.324c1.14-.89,1.379-3.063.533-4.842a3.34,3.34,0,0,0-2.056-1.921,1.852,1.852,0,0,0-.424-.051" transform="translate(-7.171 -8.067)" fill="#fff"/>
        <path id="Trazado_10240" data-name="Trazado 10240" d="M196.871,228.528a.227.227,0,0,1-.135-.045.223.223,0,0,1-.041-.312,2.4,2.4,0,0,1,1.83-.8.228.228,0,0,1,.227.218.222.222,0,0,1-.217.227,1.974,1.974,0,0,0-1.487.624.222.222,0,0,1-.177.088" transform="translate(-7.132 -8.246)" fill="#fff"/>
        <path id="Trazado_10241" data-name="Trazado 10241" d="M362.424,157.6c-1.378-1.358,6.523-6.528,6.523-6.528.526-.37,6.644,6.39,16.7,3.2,3.582-1.135,8.535-7.405,8.892-8.336.047-.124,7.932,2.726,7.932,2.726-.647,1.687-.331,7.617-4.186,11.167-7.975,7.341-20.419,8.763-35.861-2.23" transform="translate(-13.138 -5.293)" fill="#fcbdb6"/>
        <path id="Trazado_10242" data-name="Trazado 10242" d="M411.91,261.362s-.068,2.723-1.91,3.49-7.179,1.461-5.185,3.211c1.145,1,6.537.356,8.06.356s2.952.663,4.083-.356c1.245-1.122,0-6.7,0-6.7a6.08,6.08,0,0,1-2.5.653,4.851,4.851,0,0,1-2.553-.653" transform="translate(-14.665 -9.478)" fill="#333"/>
        <path id="Trazado_10243" data-name="Trazado 10243" d="M395.7,176.124s-.367,12.285,3.553,35.85c2.83,17.013,6.171,34.157,7.81,42.375a6.412,6.412,0,0,0,5.99,5.207l1.575.063a5.382,5.382,0,0,0,5.509-5.83l-3.976-55.6-.98-18.3Z" transform="translate(-14.35 -6.387)" fill="#ffc60a"/>
        <path id="Trazado_10244" data-name="Trazado 10244" d="M430.011,261.362s-.068,2.723-1.91,3.49-7.179,1.461-5.185,3.211c1.145,1,6.537.356,8.06.356s2.952.663,4.083-.356c1.245-1.122,0-6.7,0-6.7a6.08,6.08,0,0,1-2.5.653,4.851,4.851,0,0,1-2.553-.653" transform="translate(-15.321 -9.478)" fill="#333"/>
        <path id="Trazado_10245" data-name="Trazado 10245" d="M413.806,176.124s-.367,12.285,3.553,35.85c2.829,17.013,6.171,34.157,7.81,42.375a6.413,6.413,0,0,0,5.99,5.207l1.575.063a5.382,5.382,0,0,0,5.509-5.83l-3.976-55.6-.98-18.3Z" transform="translate(-15.007 -6.387)" fill="#ffc60a"/>
        <path id="Trazado_10246" data-name="Trazado 10246" d="M434.512,189.954c-.038,1.482-9,2.071-20.084,1.725s-19.943-1.878-19.9-3.361,8.957-2.352,20.041-2.006,19.985,2.16,19.947,3.642" transform="translate(-14.308 -6.754)" fill="#333"/>
        <path id="Trazado_10247" data-name="Trazado 10247" d="M431.8,146.26s-1.96-7.769-16.422-7.848c-20.854-.114-18.924,19.049-20.853,48.171,0,0,20.543-2.9,40,1.271,0,0,1.805-29.724-2.724-41.595" transform="translate(-14.308 -5.02)" fill="#1a67b3"/>
        <path id="Trazado_10248" data-name="Trazado 10248" d="M437.137,145.143l-9.447,5.226s-20.681,1.877-26.17.973-7-4.936-7-4.936a30.262,30.262,0,0,1,15.787-7.666q1.4-.23,2.906-.331a28.544,28.544,0,0,1,5.025.1c12.6,1.42,18.9,6.632,18.9,6.632" transform="translate(-14.308 -5.017)" fill="#1a67b3"/>
        <path id="Trazado_10249" data-name="Trazado 10249" d="M418.013,136.17l-1.092-3.523-.317-1.025-1.869-6.031-.246,6-.147,3.6-.046,1.14c-.032.774-.5.936-1.077,1.608-.232.273-1.72,1.925-.032,2.671,2.1.93,6.037-.478,7.533-2.322-.012,0-2.353-.979-2.706-2.117" transform="translate(-14.956 -4.555)" fill="#fcbdb6"/>
        <path id="Trazado_10250" data-name="Trazado 10250" d="M396.335,189.593s12.01-3.534,36.884,1.316l.192,3.578-36.463,1.289Z" transform="translate(-14.373 -6.831)" fill="#ffc60a"/>
        <path id="Trazado_10251" data-name="Trazado 10251" d="M438.627,145.6c.8,1.133-.379,3.371-2.635,5s-4.734,2.03-5.535.9.379-3.372,2.635-5,4.734-2.03,5.535-.9" transform="translate(-15.602 -5.257)" fill="#333"/>
        <path id="Trazado_10252" data-name="Trazado 10252" d="M441.262,191.076c-.869-9.573-2.864-23.259-7.429-34.1a32.841,32.841,0,0,0-2.324-4.826c-.664-1.1.524-3.528,2.4-4.685,1.761-1.085,4.5-.908,4.934-.37a29,29,0,0,1,2.749,5.443c4.254,9.659,6.8,22.134,7.835,38.219Z" transform="translate(-15.642 -5.319)" fill="#fcbdb6"/>
        <path id="Trazado_10253" data-name="Trazado 10253" d="M409.829,123.24a7.93,7.93,0,0,0,0,3.29c.381,1.83,2.243-2.669,2.243-2.669Z" transform="translate(-14.857 -4.469)" fill="#501506"/>
        <path id="Trazado_10254" data-name="Trazado 10254" d="M409.6,126.986c.465-3.539,3.221-6.1,6.155-5.71s4.937,3.567,4.473,7.106-3.221,6.095-6.155,5.71-4.937-3.567-4.473-7.106" transform="translate(-14.852 -4.397)" fill="#fcbdb6"/>
        <path id="Trazado_10255" data-name="Trazado 10255" d="M420.281,126.393l-2.594-.269a1.889,1.889,0,0,1-1.4-.849c-.532-.832-1.172-1.26-3.592-1.168-3.064.115-5.088-1.713-5.419-3.315a1.831,1.831,0,0,1,2.77-1.966c1.539.781.879-1.133,2.358-1.337,2.766-.379,3.284,1.753,5.548,1.684,2.969-.091,8.288,2.166,5.766,7.392Z" transform="translate(-14.768 -4.259)" fill="#501506"/>
        <path id="Trazado_10256" data-name="Trazado 10256" d="M414.825,127.637a.107.107,0,0,1-.05-.083.11.11,0,0,1,.1-.118,1.176,1.176,0,0,1,1.252.713.109.109,0,0,1-.049.146.118.118,0,0,1-.146-.049,1.865,1.865,0,0,0-1.04-.593.106.106,0,0,1-.066-.016" transform="translate(-15.042 -4.621)" fill="#080435"/>
        <path id="Trazado_10257" data-name="Trazado 10257" d="M415.29,129.07c-.068.251-.271.412-.452.363a.42.42,0,0,1-.205-.543c.068-.251.271-.412.452-.363a.42.42,0,0,1,.205.543" transform="translate(-15.036 -4.661)" fill="#080435"/>
        <path id="Trazado_10258" data-name="Trazado 10258" d="M410.654,127.3a.08.08,0,0,1-.059-.054.132.132,0,0,1,.042-.147.762.762,0,0,1,1.107.126.13.13,0,0,1,0,.152.081.081,0,0,1-.12.015,1.14,1.14,0,0,0-.92-.105.073.073,0,0,1-.053.013" transform="translate(-14.89 -4.602)" fill="#080435"/>
        <path id="Trazado_10259" data-name="Trazado 10259" d="M411.659,128.449c.031.257-.093.485-.28.508s-.365-.166-.4-.423.093-.485.279-.508.364.166.4.423" transform="translate(-14.904 -4.643)" fill="#080435"/>
        <path id="Trazado_10260" data-name="Trazado 10260" d="M424.089,126.88s-1.792,3.867-4.332,4.15c0,0,2.055-2.946-2.275-4.742,0,0,3.975-.625,6.607.592" transform="translate(-15.14 -4.574)" fill="#501506"/>
        <path id="Trazado_10261" data-name="Trazado 10261" d="M420.558,129.048a1.049,1.049,0,1,1,.424-1.505,1.109,1.109,0,0,1-.424,1.505" transform="translate(-15.19 -4.609)" fill="#fcbdb6"/>
        <path id="Trazado_10262" data-name="Trazado 10262" d="M417.2,126.293s.347,3.245-.313,3.858-5.021.877-7.056.091a4.237,4.237,0,0,0,3.49,4.268,6.139,6.139,0,0,0,2.082-.007,4.24,4.24,0,0,0,3.4-2.16,12.33,12.33,0,0,0-.341-2.876,2.8,2.8,0,0,1,.65-2.207,4.141,4.141,0,0,0-1.907-.968" transform="translate(-14.863 -4.58)" fill="#501506"/>
        <path id="Trazado_10263" data-name="Trazado 10263" d="M410.95,131.6a11.008,11.008,0,0,0,3.5.276,1.686,1.686,0,0,1-2.115,1.353c-1.074-.2-1.381-1.629-1.381-1.629" transform="translate(-14.903 -4.773)" fill="#fff"/>
        <path id="Trazado_10264" data-name="Trazado 10264" d="M410.491,118.586h-.044l0-.146a.66.66,0,0,0,.772-.568l.146.013a.815.815,0,0,1-.877.7" transform="translate(-14.885 -4.275)" fill="#501506"/>
        <path id="Trazado_10265" data-name="Trazado 10265" d="M411.869,123.318a9.855,9.855,0,0,1-1.683-.7c-1.119-.6-1.741-1.3-1.8-2.018a1.168,1.168,0,0,1,.268-1.025c.352-.3.959-.16,1.495-.035.08.018.157.037.231.052l-.014.071c-.075-.015-.153-.034-.233-.053-.519-.12-1.107-.258-1.43.02a1.1,1.1,0,0,0-.243.963c.135,1.679,3.4,2.645,3.428,2.655Z" transform="translate(-14.81 -4.33)" fill="#fff"/>
        <path id="Trazado_10266" data-name="Trazado 10266" d="M418.518,119.877a5.763,5.763,0,0,1-2.641-.6,3.957,3.957,0,0,1-1.178-.868l.056-.046a5.312,5.312,0,0,0,4.731,1.376l.011.072a7.244,7.244,0,0,1-.979.067" transform="translate(-15.039 -4.292)" fill="#fff"/>
        <path id="Trazado_10267" data-name="Trazado 10267" d="M443.917,170.236a1.249,1.249,0,0,1-.9-.431,2.358,2.358,0,0,1-.586-1.243c-.171-1.037.289-1.98,1.026-2.1a1.2,1.2,0,0,1,1.062.417,2.518,2.518,0,0,1,.43,2.61,1.2,1.2,0,0,1-.871.735,1.054,1.054,0,0,1-.164.014m-.295-3.431a.612.612,0,0,0-.1.009c-.533.088-.868.862-.731,1.689a2.009,2.009,0,0,0,.491,1.055.761.761,0,0,0,1.349-.223,2.161,2.161,0,0,0-.364-2.212.908.908,0,0,0-.641-.319" transform="translate(-16.044 -6.036)" fill="#f9a6a0"/>
        <path id="Trazado_10268" data-name="Trazado 10268" d="M442.1,190.889c-.7,1.331-1.482,4.291-2.152,5.635-.291.583-1.134,2.617-.6,3.008.463.339,1.888-.927,2.493-1.616.594,4.345,3.344,10.468,2.742,1.286h.014c.144.925.946,6.072,2.065,5.423.988-.572.561-4.277.339-5.8l.04-.01c.356,1.532,1.306,5.212,2.064,4.35.952-1.081.579-5.151.579-5.151s.588,5.193,1.84,4.088c.705-.623.068-3.568-.355-5.4h0c-.089-.383-.169-.718-.224-.971a2.585,2.585,0,0,0-.185-.553,23.451,23.451,0,0,0-1.956-4.816,3.267,3.267,0,0,0-3.515-1.978,4.968,4.968,0,0,0-3.19,2.5" transform="translate(-15.927 -6.831)" fill="#fcbdb6"/>
        <path id="Trazado_10269" data-name="Trazado 10269" d="M398.375,150.91l-.229-.064a19.263,19.263,0,0,1,2.67-4.982l.191.143a19,19,0,0,0-2.631,4.9" transform="translate(-14.439 -5.29)" fill="#333"/>
        <path id="Trazado_10270" data-name="Trazado 10270" d="M417.785,217.545c-.016-.1-1.628-10.1-2.731-13.658-1.087-3.506-5.78-6.465-5.828-6.494l.2-.321a20.817,20.817,0,0,1,2.56,1.963,11.172,11.172,0,0,1,3.429,4.74c1.112,3.587,2.727,13.609,2.744,13.71Z" transform="translate(-14.841 -7.147)" fill="#333"/>
        <path id="Trazado_10271" data-name="Trazado 10271" d="M370.3,153.606c-.6-1.268-2.356-3.521-2.98-4.778-.27-.545-1.307-2.32-1.9-2.144-.514.153-.375,1.927-.2,2.767-3.569-2.008-9.985-3.922-2.5,1.315l-.008.012c-.77-.414-5.927-3.319-6.075-2.121-.131,1.057,3.741,3.429,5,4.124l-.015.036c-1.341-.6-5.19-2.586-4.976-1.535.267,1.318,4.081,3.953,4.081,3.953s-4.2-2.49-4.079-.936c.066.876,2.617,2.062,4.215,2.778.335.15.63.28.85.382a2.4,2.4,0,0,0,.515.174,21.9,21.9,0,0,0,4.688,1.26,3.049,3.049,0,0,0,3.453-1.5,4.638,4.638,0,0,0-.064-3.786" transform="translate(-12.933 -5.319)" fill="#fcbdb6"/>
        <path id="Trazado_10272" data-name="Trazado 10272" d="M88.689,292.613s.074,2.982,2.092,3.823,7.863,1.6,5.678,3.517c-1.253,1.1-7.16.389-8.828.389s-3.233.727-4.473-.389c-1.363-1.229,0-7.34,0-7.34a6.665,6.665,0,0,0,2.734.716,5.305,5.305,0,0,0,2.8-.716" transform="translate(-2.994 -10.612)" fill="#333"/>
        <path id="Trazado_10273" data-name="Trazado 10273" d="M103.5,207.8s-.144,13.742-1.249,37.988c-.867,19.009-.689,36.625-2.354,44.976-.6,2.987-22.636,1.464-22.4-1.823l5.218-58.727,1-18.593Z" transform="translate(-2.81 -7.536)" fill="#ffc60a"/>
        <path id="Trazado_10274" data-name="Trazado 10274" d="M70.071,176.211s2.955-8.313,13.481-7.935,18.951,14.221,20.92,43.949c0,0-17.616-3.692-37.807,5.125,0,0-1.216-29.022,3.407-41.139" transform="translate(-2.412 -6.102)" fill="#1a67b3"/>
        <path id="Trazado_10275" data-name="Trazado 10275" d="M62.535,175.709l7.457,4.773s19.168,1.918,24.256.995,2.475-3.612,2.475-3.612-1.435-7.693-10.646-9.341a25.13,25.13,0,0,0-2.669-.249,26.237,26.237,0,0,0-4.657.1c-9.1.982-16.217,7.332-16.217,7.332" transform="translate(-2.268 -6.1)" fill="#1a67b3"/>
        <path id="Trazado_10276" data-name="Trazado 10276" d="M62.423,176.145c-.258.751,1.691,2.156,4.356,3.139s5.034,1.171,5.293.42-1.691-2.156-4.356-3.139-5.035-1.171-5.293-.42" transform="translate(-2.263 -6.371)" fill="#333"/>
        <path id="Trazado_10277" data-name="Trazado 10277" d="M64.648,292.613s.074,2.982,2.092,3.823,7.863,1.6,5.678,3.517c-1.253,1.1-7.16.389-8.828.389s-3.233.727-4.473-.389c-1.363-1.229,0-7.34,0-7.34a6.665,6.665,0,0,0,2.734.716,5.305,5.305,0,0,0,2.8-.716" transform="translate(-2.122 -10.612)" fill="#333"/>
        <path id="Trazado_10278" data-name="Trazado 10278" d="M66.67,218.957c.184,1.519,8.773,1.335,19.289,0s18.7-3.61,18.519-5.129-8.668-1.7-19.184-.372-18.808,3.978-18.624,5.5" transform="translate(-2.418 -7.709)" fill="#333"/>
        <path id="Trazado_10279" data-name="Trazado 10279" d="M90.5,217.007,70.928,291.039c-.94,3.019-19.509,2.616-18.928-.591l15.187-70.021a2.23,2.23,0,0,1,1.55-1.67c4.212-1.215,22.178-4.733,21.765-1.75" transform="translate(-1.885 -7.827)" fill="#ffc60a"/>
        <path id="Trazado_10280" data-name="Trazado 10280" d="M80.339,260.425l-.369-.086,5.978-25.476a14.3,14.3,0,0,1,6.464-7.982l.188.328a13.914,13.914,0,0,0-6.289,7.756Z" transform="translate(-2.9 -8.228)" fill="#333"/>
        <path id="Trazado_10281" data-name="Trazado 10281" d="M75.443,217.39s20.989-4.009,27.794-2.118l-3.263,4.836-12.131.687Z" transform="translate(-2.736 -7.789)" fill="#ffc60a"/>
        <path id="Trazado_10282" data-name="Trazado 10282" d="M87.617,168.587s-2.388-.955-2.764-2.286-1.262-.921-1.774-1.262.921-3.958.921-3.958l4.948-1.809-.512,6.347Z" transform="translate(-3.009 -5.776)" fill="#501506"/>
        <path id="Trazado_10283" data-name="Trazado 10283" d="M77.04,168.335a3.381,3.381,0,0,0,2.407-1.82l1.31-3.042.383-.89,2.25-5.226L83,162.774l-.234,3.252-.066.916c-.055.758.376.8,1.124.932,0,0,.968,2.928-1.214,2.928-2.89,0-5.568-2.466-5.568-2.466" transform="translate(-2.794 -5.707)" fill="#fcbdb6"/>
        <path id="Trazado_10284" data-name="Trazado 10284" d="M80.891,163.577q0,.045.006.09a3.435,3.435,0,0,0,2,2.562l.012-.01.234-3.251a2.774,2.774,0,0,0-1.86-.19.762.762,0,0,0-.388.8" transform="translate(-2.933 -5.9)" fill="#562759"/>
        <path id="Trazado_10285" data-name="Trazado 10285" d="M88.782,158.021c0-3.468-2.278-6.279-5.089-6.279s-5.089,2.811-5.089,6.279,2.278,6.279,5.089,6.279,5.089-2.811,5.089-6.279" transform="translate(-2.851 -5.503)" fill="#fcbdb6"/>
        <path id="Trazado_10286" data-name="Trazado 10286" d="M86.6,162.452a11.036,11.036,0,0,1-3.477-.571,1.694,1.694,0,0,0,1.739,1.828c1.095.066,1.739-1.258,1.739-1.258" transform="translate(-3.014 -5.871)" fill="#fff"/>
        <path id="Trazado_10287" data-name="Trazado 10287" d="M84.338,158.307a.116.116,0,0,0,.077-.068.115.115,0,0,0-.064-.15,1.252,1.252,0,0,0-1.5.333.117.117,0,0,0,0,.164.127.127,0,0,0,.164,0,1.978,1.978,0,0,1,1.244-.279.113.113,0,0,0,.073,0" transform="translate(-3.004 -5.729)" fill="#080435"/>
        <path id="Trazado_10288" data-name="Trazado 10288" d="M83.19,159.561c-.009.276.146.505.347.512s.37-.213.379-.489-.146-.505-.347-.512-.37.213-.379.489" transform="translate(-3.017 -5.769)" fill="#080435"/>
        <path id="Trazado_10289" data-name="Trazado 10289" d="M86.608,159.787c-.026.275.114.514.313.533s.383-.189.41-.464-.114-.514-.314-.533-.383.189-.409.464" transform="translate(-3.141 -5.778)" fill="#080435"/>
        <path id="Trazado_10290" data-name="Trazado 10290" d="M81.208,153.878a8.919,8.919,0,0,1,6.779,8.418c.008.232-3.591,2.606-3.371,3.414.515,1.9,3.016,3.607,3.9,3.607,1.342,0,3.588-4.552,2.863-10.474s-3.021-10.271-8.46-10.453-4.713,3.444-4.713,3.444a5.093,5.093,0,0,0,3,2.043" transform="translate(-2.835 -5.381)" fill="#501506"/>
        <path id="Trazado_10291" data-name="Trazado 10291" d="M81.84,154s-.093.06-.242.175a5.823,5.823,0,0,0-2.25,3.631c-.317,2.4,1.994,3.9,1.359,5.755s-2.311-.226-3.67.091-2.357-.317-2.448-3.037.545-9.063,3.761-9.063Z" transform="translate(-2.705 -5.496)" fill="#501506"/>
        <path id="Trazado_10292" data-name="Trazado 10292" d="M78.682,159.156a1.25,1.25,0,0,0,1.8.126,1.4,1.4,0,0,0-.287-1.868,1.251,1.251,0,0,0-1.8-.126,1.4,1.4,0,0,0,.287,1.868" transform="translate(-2.834 -5.692)" fill="#fcbdb6"/>
        <path id="Trazado_10293" data-name="Trazado 10293" d="M88.622,165.721h0a.037.037,0,0,1-.037-.039,16.157,16.157,0,0,0-.486-4.593.038.038,0,0,1,.025-.047.039.039,0,0,1,.047.025,16.222,16.222,0,0,1,.489,4.617.037.037,0,0,1-.038.037" transform="translate(-3.195 -5.84)" fill="#333"/>
        <path id="Trazado_10294" data-name="Trazado 10294" d="M80.69,202.15l.089-5.448a1.4,1.4,0,0,0-1.3-1.422c-3.778-.27-6.422-1.442-7.871-3.492-2.011-2.844-1.8-7.262-1.238-10.326.286-1.568-.231-2.618-2.125-3.623A12.978,12.978,0,0,0,64.6,176.6a1.489,1.489,0,0,0-1.812.975A33.33,33.33,0,0,0,61.844,183c-.476,5.374.56,10.047,3,13.517,2.992,4.259,7.815,6.615,14.349,7.015a1.409,1.409,0,0,0,1.5-1.38" transform="translate(-2.239 -6.403)" fill="#fcbdb6"/>
        <g id="Grupo_8759" data-name="Grupo 8759" transform="translate(62.409 185.191)" opacity="0.5">
          <g id="Grupo_8758" data-name="Grupo 8758">
            <g id="Grupo_8757" data-name="Grupo 8757" clip-path="url(#clip-path-7)">
              <path id="Trazado_10295" data-name="Trazado 10295" d="M66.908,195.66a1.561,1.561,0,0,1-.456-.071,2.413,2.413,0,0,1-1.145-.811,1.741,1.741,0,0,1-.144-2.383,1.22,1.22,0,0,1,1.153-.162,2.411,2.411,0,0,1,1.145.811,1.74,1.74,0,0,1,.144,2.383,1.09,1.09,0,0,1-.7.234m-1.046-3.134a.727.727,0,0,0-.469.153c-.438.352-.348,1.19.2,1.869a2.048,2.048,0,0,0,.967.691.87.87,0,0,0,.817-.1c.438-.352.348-1.191-.2-1.87a2.055,2.055,0,0,0-.967-.691,1.218,1.218,0,0,0-.348-.055" transform="translate(-64.757 -192.16)" fill="#f9a6a0"/>
            </g>
          </g>
        </g>
        <path id="Trazado_10296" data-name="Trazado 10296" d="M99.433,209.052H85.388a4.167,4.167,0,0,1-4.051-5.142l5.533-23a4.169,4.169,0,0,1,4.052-3.192h14.045a4.167,4.167,0,0,1,4.051,5.142l-5.534,23a4.166,4.166,0,0,1-4.051,3.192" transform="translate(-2.945 -6.445)" fill="#fff"/>
        <path id="Trazado_10297" data-name="Trazado 10297" d="M78.7,195.416s1.326-4.015,3.6-5,5.916-.521,4.637.386a16.309,16.309,0,0,1-3.233,1.618s4.247-1.319,4.126-.193-3.827,2.239-3.827,2.239,5.179-1.167,4.719-.14-4.4,1.886-4.4,1.886,4.861-.893,4.3.287-4.023.712-4.144,1.839-.986,5.562-4.159,5.606Z" transform="translate(-2.854 -6.886)" fill="#fcbdb6"/>
        <path id="Trazado_10298" data-name="Trazado 10298" d="M82.318,193.448l-.166-.078c.349-.735,1.612-.937,1.666-.945l.028.181c-.013,0-1.222.195-1.528.842" transform="translate(-2.979 -6.978)" fill="#f9a6a0"/>
        <path id="Trazado_10299" data-name="Trazado 10299" d="M82.3,195.76l-.146-.109a3.21,3.21,0,0,1,1.968-1.1l.024.181A3.078,3.078,0,0,0,82.3,195.76" transform="translate(-2.979 -7.055)" fill="#f9a6a0"/>
        <path id="Trazado_10300" data-name="Trazado 10300" d="M82.761,197.486l-.171-.065c.306-.815,1.8-1.051,1.862-1.06l.027.18c-.014,0-1.449.229-1.718.944" transform="translate(-2.995 -7.121)" fill="#f9a6a0"/>
        <path id="Trazado_10301" data-name="Trazado 10301" d="M110.845,187.346s.909-2.125-1.037-2.94c-2.478-1.039-6.562.042-5,.723a19.678,19.678,0,0,0,3.555.988s-5.534-.9-5.328.31,4.975,1.925,4.975,1.925-5.471-.37-4.905.713S108,190.82,108,190.82s-5.328-.65-4.641.593,3.509,1.022,4.726,1.2c1.151.17,1.632-.517,1.715-1.638a3.241,3.241,0,0,0,.6-1.815c-.05-.286.25-.519.3-.717a7.276,7.276,0,0,0,.144-1.1" transform="translate(-3.736 -6.672)" fill="#fcbdb6"/>
        <path id="Trazado_10302" data-name="Trazado 10302" d="M94.96,176.886s-.848,1.867,0,2.361,7.633.142,7.986,0,.424-2.036,0-2.361-7.8-.507-7.986,0" transform="translate(-3.43 -6.403)" fill="#ffc60a"/>
        <path id="Trazado_10303" data-name="Trazado 10303" d="M316.194,319.8s.074,2.936,2.076,3.763,7.8,1.576,5.634,3.463c-1.243,1.083-7.1.384-8.758.384s-3.208.715-4.438-.384c-1.352-1.208,0-7.226,0-7.226a6.636,6.636,0,0,0,2.711.7,5.3,5.3,0,0,0,2.775-.7" transform="translate(-11.246 -11.598)" fill="#333"/>
        <path id="Trazado_10304" data-name="Trazado 10304" d="M342.353,206.548s4.091.345,5.692-1.238,2.44-4.809,1.237-4.036a14.913,14.913,0,0,0-2.464,2.181s2.554-3.135,1.556-3.41-3.192,2.473-3.192,2.473,2.739-3.972,1.712-3.928-3.086,3.073-3.086,3.073,2.4-3.8,1.208-3.717-1.962,3.149-2.96,2.874-4.246-.4-4.872,1.555Z" transform="translate(-12.228 -7.179)" fill="#fcbdb6"/>
        <path id="Trazado_10305" data-name="Trazado 10305" d="M328.4,242.787s1.927,6.112-2.025,29.685c-2.854,17.018-5.25,34-6.9,42.216a6.446,6.446,0,0,1-6.037,5.209l-1.587.063a5.4,5.4,0,0,1-5.552-5.832l4.009-55.62L311.3,240.2Z" transform="translate(-11.108 -8.711)" fill="#ffc60a"/>
        <path id="Trazado_10306" data-name="Trazado 10306" d="M295.553,245.162c.5,2.132,8.46,4.368,17.988,2.109s16.965-4.662,16.465-6.793-8.744-3.186-18.273-.927-16.679,3.48-16.18,5.612" transform="translate(-10.717 -8.642)" fill="#333"/>
        <path id="Trazado_10307" data-name="Trazado 10307" d="M292.342,319.8s.074,2.936,2.076,3.763,7.8,1.576,5.634,3.463c-1.243,1.083-7.1.384-8.758.384s-3.208.715-4.438-.384c-1.352-1.208,0-7.226,0-7.226a6.636,6.636,0,0,0,2.711.7,5.3,5.3,0,0,0,2.775-.7" transform="translate(-10.381 -11.598)" fill="#333"/>
        <path id="Trazado_10308" data-name="Trazado 10308" d="M327.549,242.837,309.7,275.445l-13.878,40.833a7.174,7.174,0,0,1-6.7,5.062l-1.34.022a5.054,5.054,0,0,1-5-6l13.551-68.707c.177-.793,3.218-1.837,4-2.03,7.513-1.851,27.629-4.721,27.219-1.785" transform="translate(-10.252 -8.761)" fill="#ffc60a"/>
        <path id="Trazado_10309" data-name="Trazado 10309" d="M308.961,281.381l-.36-.1,4.913-18.421c.18-.544.352-1.119.533-1.728.918-3.077,2.061-6.907,4.885-8.1l.145.344c-2.661,1.12-3.776,4.856-4.672,7.858-.182.612-.355,1.189-.533,1.728Z" transform="translate(-11.192 -9.177)" fill="#333"/>
        <path id="Trazado_10310" data-name="Trazado 10310" d="M316.754,180.367s.139-4.717-4.068-4.781-3,2.986-3.686,3.848,1.428,3.056,3.461,3.2,4.293-2.266,4.293-2.266" transform="translate(-11.201 -6.368)" fill="#501506"/>
        <path id="Trazado_10311" data-name="Trazado 10311" d="M327.653,213.962C330,212.9,332.9,217.6,332.9,217.6c.04.033-4.234-19.59-17.789-17.721a84.52,84.52,0,0,0-9.241,2.013c-10.081,4.046-9.028,6.412-9.2,16.675-.162,9.849-1.156,24.4-1.124,24.8a58,58,0,0,1,34.456-4.288c.135-14.571-2.061-24.389-2.353-25.118" transform="translate(-10.718 -7.244)" fill="#1a67b3"/>
        <path id="Trazado_10312" data-name="Trazado 10312" d="M307.882,200.612a6.931,6.931,0,0,0,5.773,2.454c3.568,0,1.905-3.646,1.905-3.646a1.3,1.3,0,0,1-1.428-1.327l-.088-1.066L314,196.5l-.142-1.687-.125-1.515-.515-6.213-1.645,6.327-.279,1.075-.965,3.708a3.392,3.392,0,0,1-2.431,2.413l-.018,0" transform="translate(-11.166 -6.785)" fill="#fcbdb6"/>
        <path id="Trazado_10313" data-name="Trazado 10313" d="M311.424,194.763a4.229,4.229,0,0,0,2.706,2.015l-.142-1.688c-1.031-.2-2.564-.327-2.564-.327" transform="translate(-11.294 -7.063)" fill="#333"/>
        <path id="Trazado_10314" data-name="Trazado 10314" d="M305.164,188.524a6.9,6.9,0,0,1,.673,3.059c.167,3.175,3.918,3.256,4.491,2.141.07-.139-1.747-5.02-1.747-5.02l-1.282-.269Z" transform="translate(-11.067 -6.834)" fill="#501506"/>
        <path id="Trazado_10315" data-name="Trazado 10315" d="M318.432,185.913c-1.284-3.77-4.821-5.983-7.9-4.942s-4.537,4.94-3.254,8.71,4.821,5.983,7.9,4.942,4.537-4.94,3.254-8.71" transform="translate(-11.127 -6.554)" fill="#fcbdb6"/>
        <path id="Trazado_10316" data-name="Trazado 10316" d="M313.2,181.767c-.084.262,1.99,3.477-4.283,6.531s-5.02-6.17-.242-7.984c6.9-2.617,9.5,1.7,9.4,3.6s-4.877-2.151-4.877-2.151" transform="translate(-11.048 -6.509)" fill="#501506"/>
        <path id="Trazado_10317" data-name="Trazado 10317" d="M309.328,187.216s-1.726,3.708.179,6.259c0,0-2.128-1.159-2.377-1.777a25.408,25.408,0,0,1-.609-3.028Z" transform="translate(-11.116 -6.789)" fill="#501506"/>
        <path id="Trazado_10318" data-name="Trazado 10318" d="M308.39,190.727a1.455,1.455,0,0,0,2.02-.529,1.6,1.6,0,0,0-1.006-1.925,1.456,1.456,0,0,0-2.02.53,1.6,1.6,0,0,0,1.006,1.924" transform="translate(-11.144 -6.821)" fill="#fcbdb6"/>
        <path id="Trazado_10319" data-name="Trazado 10319" d="M313.6,187.934a.13.13,0,0,0,.059-.1.132.132,0,0,0-.125-.14,1.456,1.456,0,0,0-1.519.917.133.133,0,0,0,.065.176.148.148,0,0,0,.178-.065,2.314,2.314,0,0,1,1.261-.764.133.133,0,0,0,.082-.022" transform="translate(-11.315 -6.806)" fill="#080435"/>
        <path id="Trazado_10320" data-name="Trazado 10320" d="M313.11,189.7c.092.3.348.5.57.428a.516.516,0,0,0,.234-.672c-.093-.3-.348-.494-.57-.427a.514.514,0,0,0-.234.671" transform="translate(-11.354 -6.855)" fill="#080435"/>
        <path id="Trazado_10321" data-name="Trazado 10321" d="M318.529,187.021a.133.133,0,0,0,.032-.251,1.459,1.459,0,0,0-1.755.276.133.133,0,0,0-.008.188.147.147,0,0,0,.189.007,2.31,2.31,0,0,1,1.458-.229.133.133,0,0,0,.084.01" transform="translate(-11.488 -6.767)" fill="#080435"/>
        <path id="Trazado_10322" data-name="Trazado 10322" d="M317.4,188.461c-.031.316.131.591.361.611s.443-.216.474-.532-.131-.59-.361-.612-.443.218-.474.533" transform="translate(-11.51 -6.815)" fill="#080435"/>
        <g id="Grupo_8762" data-name="Grupo 8762" transform="translate(299.054 179.083)" opacity="0.3">
          <g id="Grupo_8761" data-name="Grupo 8761">
            <g id="Grupo_8760" data-name="Grupo 8760" clip-path="url(#clip-path-8)">
              <path id="Trazado_10323" data-name="Trazado 10323" d="M310.308,188.634c.041,1.792,1.126,3.453,2.42,3.709s2.311-.986,2.269-2.778-1.125-3.452-2.42-3.709-2.31.987-2.269,2.778" transform="translate(-310.307 -185.822)" fill="#fff"/>
            </g>
          </g>
        </g>
        <g id="Grupo_8765" data-name="Grupo 8765" transform="translate(304.918 178.188)" opacity="0.3">
          <g id="Grupo_8764" data-name="Grupo 8764">
            <g id="Grupo_8763" data-name="Grupo 8763" clip-path="url(#clip-path-9)">
              <path id="Trazado_10324" data-name="Trazado 10324" d="M316.437,187.727c.238,1.742,1.371,3.308,2.531,3.495s1.905-1.074,1.665-2.816-1.371-3.308-2.531-3.494-1.905,1.074-1.665,2.816" transform="translate(-316.392 -184.893)" fill="#fff"/>
            </g>
          </g>
        </g>
        <path id="Trazado_10325" data-name="Trazado 10325" d="M310.392,189.884c.029.088.062.174.1.257a3.935,3.935,0,0,0,1.493,1.892,2.293,2.293,0,0,0,.791.315,1.845,1.845,0,0,0,.766-.008,1.686,1.686,0,0,0,.2-.056,1.963,1.963,0,0,0,.605-.347,2.852,2.852,0,0,0,.915-1.684,4.511,4.511,0,0,0,.08-.929,4.79,4.79,0,0,0-.122-.993,4.3,4.3,0,0,0-2.176-2.877,2.258,2.258,0,0,0-.348-.1,1.835,1.835,0,0,0-1.568.411,3.092,3.092,0,0,0-.984,2.2c-.01.136-.012.271-.01.41,0,.082.006.165.012.247a4.869,4.869,0,0,0,.1.7,4.8,4.8,0,0,0,.154.554m4.278,1.317a2.142,2.142,0,0,1-.471.569,1.619,1.619,0,0,1-1.383.361,2.144,2.144,0,0,1-.812-.349,3.844,3.844,0,0,1-1.414-2v0c-.042-.131-.08-.266-.113-.4s-.057-.261-.076-.394a4.62,4.62,0,0,1-.051-.6,4.072,4.072,0,0,1,.027-.546,2.441,2.441,0,0,1,.043-.295l0-.017c0-.011,0-.019.006-.031a3.2,3.2,0,0,1,.148-.533,2.4,2.4,0,0,1,.685-1.018,1.62,1.62,0,0,1,1.382-.361,1.655,1.655,0,0,1,.261.07,3.522,3.522,0,0,1,1.994,2.374,4.23,4.23,0,0,1,.108.41,4.812,4.812,0,0,1,.1.9,3.992,3.992,0,0,1-.077.884,3.091,3.091,0,0,1-.359.978l-.007.011" transform="translate(-11.247 -6.721)" fill="#68a1bf"/>
        <path id="Trazado_10326" data-name="Trazado 10326" d="M316.667,188.7c.032.093.065.181.1.27s.075.174.115.259c.025.058.053.117.082.171a.225.225,0,0,0,.011.022c.024.047.047.093.073.139l0,.007a5.257,5.257,0,0,1-.453-1.386.836.836,0,0,0-.084-.019c.021.093.044.183.069.275s.053.178.082.263m0,0c.032.093.065.181.1.27s.075.174.115.259c.025.058.053.117.082.171a.225.225,0,0,0,.011.022c.024.047.047.093.073.139l0,.007a5.257,5.257,0,0,1-.453-1.386.836.836,0,0,0-.084-.019c.021.093.044.183.069.275s.053.178.082.263m0,0c.032.093.065.181.1.27s.075.174.115.259c.025.058.053.117.082.171a.225.225,0,0,0,.011.022c.024.047.047.093.073.139l0,.007a5.257,5.257,0,0,1-.453-1.386.836.836,0,0,0-.084-.019c.021.093.044.183.069.275s.053.178.082.263m0,0c.032.093.065.181.1.27s.075.174.115.259c.025.058.053.117.082.171a.225.225,0,0,0,.011.022c.024.047.047.093.073.139l0,.007a5.257,5.257,0,0,1-.453-1.386.836.836,0,0,0-.084-.019c.021.093.044.183.069.275s.053.178.082.263m0,0c.032.093.065.181.1.27s.075.174.115.259c.025.058.053.117.082.171a.225.225,0,0,0,.011.022c.024.047.047.093.073.139l0,.007a5.257,5.257,0,0,1-.453-1.386.836.836,0,0,0-.084-.019c.021.093.044.183.069.275s.053.178.082.263m0,0c.032.093.065.181.1.27s.075.174.115.259c.025.058.053.117.082.171a.225.225,0,0,0,.011.022c.024.047.047.093.073.139l0,.007a5.257,5.257,0,0,1-.453-1.386.836.836,0,0,0-.084-.019c.021.093.044.183.069.275s.053.178.082.263m0,0c.032.093.065.181.1.27s.075.174.115.259c.025.058.053.117.082.171a.225.225,0,0,0,.011.022c.024.047.047.093.073.139l0,.007a5.257,5.257,0,0,1-.453-1.386.836.836,0,0,0-.084-.019c.021.093.044.183.069.275s.053.178.082.263m0,0c.032.093.065.181.1.27s.075.174.115.259c.025.058.053.117.082.171a.225.225,0,0,0,.011.022c.024.047.047.093.073.139l0,.007a5.257,5.257,0,0,1-.453-1.386.836.836,0,0,0-.084-.019c.021.093.044.183.069.275s.053.178.082.263m-.08.312a4.625,4.625,0,0,0,.875,1.561h0v0a2.307,2.307,0,0,0,1.245.79.673.673,0,0,0,.085.013l.009,0a1.438,1.438,0,0,0,.664-.058,1.5,1.5,0,0,0,.5-.291,3.326,3.326,0,0,0,.884-2.676c-.088-1.883-1.172-3.615-2.41-3.864-.026,0-.055-.011-.079-.013h0a1.457,1.457,0,0,0-.308-.016,1.384,1.384,0,0,0-.411.089,1.6,1.6,0,0,0-.46.274,3.32,3.32,0,0,0-.883,2.675c0,.075.009.15.015.225.013.139.031.278.056.414a5.145,5.145,0,0,0,.217.871m.465.555a5.257,5.257,0,0,1-.453-1.386c-.025-.145-.045-.29-.061-.436-.008-.085-.013-.17-.017-.255a4.211,4.211,0,0,1,.174-1.478,2.256,2.256,0,0,1,.6-.99c.01-.011.02-.02.03-.029a1.31,1.31,0,0,1,.43-.248,1.157,1.157,0,0,1,.42-.061,1.314,1.314,0,0,1,.219.024c1.147.23,2.15,1.871,2.235,3.659v.024l0,0v.017a3.08,3.08,0,0,1-.811,2.451,1.21,1.21,0,0,1-.947.3.841.841,0,0,1-.12-.017.633.633,0,0,1-.1-.026.079.079,0,0,1-.03-.009l0,0-.006,0a1.933,1.933,0,0,1-.775-.462,3.654,3.654,0,0,1-.758-1.025.446.446,0,0,0-.03-.056m-.385-.867c.032.093.065.181.1.27s.075.174.115.259c.025.058.053.117.082.171a.225.225,0,0,0,.011.022c.024.047.047.093.073.139l0,.007a5.257,5.257,0,0,1-.453-1.386.836.836,0,0,0-.084-.019c.021.093.044.183.069.275s.053.178.082.263m0,0c.032.093.065.181.1.27s.075.174.115.259c.025.058.053.117.082.171a.225.225,0,0,0,.011.022c.024.047.047.093.073.139l0,.007a5.257,5.257,0,0,1-.453-1.386.836.836,0,0,0-.084-.019c.021.093.044.183.069.275s.053.178.082.263m0,0c.032.093.065.181.1.27s.075.174.115.259c.025.058.053.117.082.171a.225.225,0,0,0,.011.022c.024.047.047.093.073.139l0,.007a5.257,5.257,0,0,1-.453-1.386.836.836,0,0,0-.084-.019c.021.093.044.183.069.275s.053.178.082.263m0,0c.032.093.065.181.1.27s.075.174.115.259c.025.058.053.117.082.171a.225.225,0,0,0,.011.022c.024.047.047.093.073.139l0,.007a5.257,5.257,0,0,1-.453-1.386.836.836,0,0,0-.084-.019c.021.093.044.183.069.275s.053.178.082.263m0,0c.032.093.065.181.1.27s.075.174.115.259c.025.058.053.117.082.171a.225.225,0,0,0,.011.022c.024.047.047.093.073.139l0,.007a5.257,5.257,0,0,1-.453-1.386.836.836,0,0,0-.084-.019c.021.093.044.183.069.275s.053.178.082.263m0,0c.032.093.065.181.1.27s.075.174.115.259c.025.058.053.117.082.171a.225.225,0,0,0,.011.022c.024.047.047.093.073.139l0,.007a5.257,5.257,0,0,1-.453-1.386.836.836,0,0,0-.084-.019c.021.093.044.183.069.275s.053.178.082.263m0,0c.032.093.065.181.1.27s.075.174.115.259c.025.058.053.117.082.171a.225.225,0,0,0,.011.022c.024.047.047.093.073.139l0,.007a5.257,5.257,0,0,1-.453-1.386.836.836,0,0,0-.084-.019c.021.093.044.183.069.275s.053.178.082.263" transform="translate(-11.471 -6.69)" fill="#68a1bf"/>
        <path id="Trazado_10327" data-name="Trazado 10327" d="M316.694,188.308a.206.206,0,0,0,0-.39,2.285,2.285,0,0,0-1.842.313.207.207,0,0,0-.068.284.209.209,0,0,0,.285.067,1.875,1.875,0,0,1,1.487-.276.2.2,0,0,0,.135,0" transform="translate(-11.415 -6.812)" fill="#333"/>
        <path id="Trazado_10328" data-name="Trazado 10328" d="M307.357,182.066s-2.035-4.26-5.817-2.418-2.219,3.784-1.527,5.087a3.947,3.947,0,0,0,4.551,1.284c1.879-.789,2.793-3.952,2.793-3.952" transform="translate(-10.847 -6.498)" fill="#501506"/>
        <path id="Trazado_10329" data-name="Trazado 10329" d="M308.309,197.262a.132.132,0,0,1-.074-.009.128.128,0,0,1-.066-.169,5.783,5.783,0,0,1,2.1-2.321.129.129,0,0,1,.178.04.127.127,0,0,1-.041.176,5.609,5.609,0,0,0-2,2.206.127.127,0,0,1-.1.075" transform="translate(-11.175 -7.063)" fill="#501506"/>
        <path id="Trazado_10330" data-name="Trazado 10330" d="M307.788,201.121l-2.411.467a1.256,1.256,0,0,0,.754,1.638c1.181.394,1.418.394,1.8,1.3s1.849.946,2.367.631,1.423.867,2.262.867,1.334-1.475,1.006-2.453a15.394,15.394,0,0,1-5.773-2.454" transform="translate(-11.072 -7.294)" fill="#fff"/>
        <path id="Trazado_10331" data-name="Trazado 10331" d="M315.776,199.867s1.483,3.559-1.9,3.645c0,0,1.779,1.769,3.025,1.06s.053-1.342.583-1.815,1.112-.815.582-1.368-.2-1.648-.2-1.648a1.578,1.578,0,0,0-2.089.125" transform="translate(-11.383 -7.232)" fill="#fff"/>
        <path id="Trazado_10332" data-name="Trazado 10332" d="M317.077,209.037a.532.532,0,1,1,.533.528.53.53,0,0,1-.533-.528" transform="translate(-11.499 -7.562)" fill="#24555e"/>
        <path id="Trazado_10333" data-name="Trazado 10333" d="M319.4,226.648a.532.532,0,1,1,.533.528.53.53,0,0,1-.533-.528" transform="translate(-11.583 -8.2)" fill="#24555e"/>
        <path id="Trazado_10334" data-name="Trazado 10334" d="M319.4,218.669a.532.532,0,1,1,.533.528.53.53,0,0,1-.533-.528" transform="translate(-11.583 -7.911)" fill="#24555e"/>
        <path id="Trazado_10335" data-name="Trazado 10335" d="M293.75,249.712a25.077,25.077,0,0,1-.985-2.507,16.057,16.057,0,0,0-.8-1.953c-.249-.458-5.443-.517-5.443-.517a17.528,17.528,0,0,0-1.552,3.752,1.963,1.963,0,0,0-.146.431c-.249,1.143-.811,2.718-.114,3.322.762.66,1.236-.475,1.428-1.1a2.726,2.726,0,0,0,.277,2.291c.591.653,1.267-1.133,1.561-2.042l.008,0c-.209.816-.5,2.4.247,2.828.882.509,1.561-1.923,1.742-2.48l.065,0c.515,3.46,1.895,1.712,2.207-.952.5.554,1.65,1.548,2.019,1.29.43-.3-.271-1.908-.511-2.371" transform="translate(-10.313 -8.875)" fill="#fcbdb6"/>
        <path id="Trazado_10336" data-name="Trazado 10336" d="M304.9,202.037s-13.814,3.979-17.312,22.125c-1.639,8.5-2.5,14.632-2,18.031a2.288,2.288,0,0,0,1.878,1.905l3.307.581a2.2,2.2,0,0,0,2.536-1.67c1.353-5.929,5.664-23.089,11.275-28.25Z" transform="translate(-10.352 -7.327)" fill="#1a67b3"/>
        <path id="Trazado_10337" data-name="Trazado 10337" d="M336.112,234.835a8.324,8.324,0,0,1-3.335-1.174c-3.386-2.065-5.656-6.428-7.363-14.147a37.486,37.486,0,0,0-3.105-7.881l7.632-4.062a45.9,45.9,0,0,1,3.932,10.1c.593,2.682.908-14.242,2.368-15.843.894-.981,7.029,5.218,7.029,5.218.578,2.173,1.061,16.3.969,18.833a16.276,16.276,0,0,1-.658,4.393,6.049,6.049,0,0,1-4.238,4.338,8.706,8.706,0,0,1-3.229.225" transform="translate(-11.689 -7.316)" fill="#1a67b3"/>
        <path id="Trazado_10338" data-name="Trazado 10338" d="M333.315,226.855a17.527,17.527,0,0,1,1.18-8.461l.143.068a17.363,17.363,0,0,0-1.165,8.372Z" transform="translate(-12.084 -7.92)" fill="#333"/>
        <path id="Trazado_10339" data-name="Trazado 10339" d="M296.069,234.787l-.153-.041a95.289,95.289,0,0,1,5.382-14.272l.143.069a95.043,95.043,0,0,0-5.372,14.243" transform="translate(-10.732 -7.996)" fill="#333"/>
        <path id="Trazado_10340" data-name="Trazado 10340" d="M331.1,232.41l-.158,0c.217-9.455-4.161-22.644-4.206-22.776l.15-.051c.044.133,4.432,13.348,4.213,22.831" transform="translate(-11.849 -7.6)" fill="#333"/>
        <path id="Trazado_10341" data-name="Trazado 10341" d="M315.141,193a4.341,4.341,0,0,1-.87-.085.068.068,0,0,1,.031-.133c.024,0,2.324.519,3.07-1.1a.068.068,0,0,1,.092-.033.07.07,0,0,1,.034.092A2.422,2.422,0,0,1,315.141,193" transform="translate(-11.395 -6.95)" fill="#333"/>
        <path id="Trazado_10342" data-name="Trazado 10342" d="M312.715,67.611a2.862,2.862,0,0,1-2.678-3.87L333.352,1.853a2.861,2.861,0,0,1,5.354,2.017L315.393,65.758a2.865,2.865,0,0,1-2.678,1.853" transform="translate(-11.237 0)" fill="#002554"/>
        <path id="Trazado_10343" data-name="Trazado 10343" d="M336.5,88.414a2.862,2.862,0,0,1-1.622-5.221l86.166-59.147a2.861,2.861,0,1,1,3.238,4.717L338.114,87.912a2.848,2.848,0,0,1-1.616.5" transform="translate(-12.099 -0.854)" fill="#002554"/>
        <path id="Trazado_10344" data-name="Trazado 10344" d="M383.357,122.793h-.021l-40.549-.3a2.861,2.861,0,0,1,.041-5.723l40.549.3a2.861,2.861,0,0,1-.02,5.722" transform="translate(-12.328 -4.235)" fill="#002554"/>
      </g>
    </g>
  </g>
</svg>
