<svg xmlns="http://www.w3.org/2000/svg" xmlns:xlink="http://www.w3.org/1999/xlink" width="23.816" height="24" viewBox="0 0 23.816 24">
  <defs>
    <clipPath id="clip-path">
      <rect id="Rectángulo_4979" data-name="Rectángulo 4979" width="23.816" height="24" fill="#1a67b3"/>
    </clipPath>
  </defs>
  <g id="Grupo_8460" data-name="Grupo 8460" transform="translate(0 0)">
    <g id="Grupo_8459" data-name="Grupo 8459" transform="translate(0 0)" clip-path="url(#clip-path)">
      <path id="Trazado_8817" data-name="Trazado 8817" d="M0,28.543v1.8H23.816V12.718H13.678v4.265h-.972a.282.282,0,1,0,0,.564h5.759v3.7H14.749a.282.282,0,1,0,0,.564h8.5v3.7h-9.3a.282.282,0,1,0,0,.564h4.513v3.7H9.455V27.558a.282.282,0,1,0-.564,0v2.217H.564v-.491a.761.761,0,0,0,.21.033.788.788,0,0,0,.249-.041l11.346-3.79a2.441,2.441,0,0,0,1.018-3.972L10.7,18.624l-7.442,7.13a.282.282,0,1,0,.39.407l7.028-6.734,2.292,2.47a1.876,1.876,0,0,1-.783,3.053L.844,28.74a.212.212,0,0,1-.222-.056.2.2,0,0,1-.04-.221l5.16-12.807a.742.742,0,0,1,1.231-.228l2.87,3.095,1.73-1.657-.786-3.936,1.3-1.245a.282.282,0,1,0-.39-.407l-1.523,1.459.786,3.935L9.866,17.719l-2.48-2.674a1.306,1.306,0,0,0-2.169.4L.059,28.251A.767.767,0,0,0,0,28.543m14.242-15.26h9.01v3.7h-9.01Zm9.009,16.492H19.029v-3.7h4.222ZM19.029,17.547h4.222v3.7H19.029Z" transform="translate(0 -6.339)" fill="#1a67b3"/>
      <path id="Trazado_8818" data-name="Trazado 8818" d="M28.1,4.537a1.172,1.172,0,0,0,.82.523,1.157,1.157,0,0,0,.164.012,1.173,1.173,0,0,0,.769-.288l2.725-2.37A1.377,1.377,0,0,0,30.769.337L28.088,2.669a1.177,1.177,0,0,0-.214,1.52Zm.36-1.443L31.14.762a.812.812,0,0,1,1.066,1.226l-2.725,2.37A.6.6,0,0,1,29,4.5a.609.609,0,0,1-.425-.271l-.225-.348a.611.611,0,0,1,.112-.789" transform="translate(-15.67 0)" fill="#1a67b3"/>
    </g>
  </g>
</svg>
