<svg xmlns="http://www.w3.org/2000/svg" xmlns:xlink="http://www.w3.org/1999/xlink" width="23.248" height="24" viewBox="0 0 23.248 24">
  <defs>
    <clipPath id="clip-path">
      <rect id="Rectángulo_4975" data-name="Rectángulo 4975" width="23.248" height="24" fill="#1a67b3"/>
    </clipPath>
  </defs>
  <g id="Grupo_8452" data-name="Grupo 8452" transform="translate(0 0)">
    <g id="Grupo_8451" data-name="Grupo 8451" transform="translate(0 0.001)" clip-path="url(#clip-path)">
      <path id="Trazado_8796" data-name="Trazado 8796" d="M23.084,20.232l-6.008-6.008a.562.562,0,0,0-.793,0l-.956.957-3.067-3.067a.985.985,0,0,1,0-1.391l6.3-6.3a1.492,1.492,0,0,0,0-2.11L17.152.9a1.527,1.527,0,0,0-2.11,0l-.135.135L13.875,0,12.867.411a1.081,1.081,0,0,0-1.289.15L.308,11.83a1.055,1.055,0,0,0,0,1.49l2.709,2.709a1.052,1.052,0,0,0,1.489,0L15.776,4.759a1.053,1.053,0,0,0,.151-1.293l.41-1L15.305,1.43l.135-.135a.951.951,0,0,1,1.314,0l1.412,1.413a.929.929,0,0,1,0,1.314l-6.3,6.3a1.548,1.548,0,0,0,0,2.187l3.067,3.067-.956.956a.56.56,0,0,0,0,.793l6.008,6.008a.562.562,0,0,0,.793,0l2.311-2.311a.56.56,0,0,0,0-.793M4.108,15.63a.5.5,0,0,1-.693,0L.706,12.922a.491.491,0,0,1,0-.694L11.975.959a.49.49,0,0,1,.693,0l2.709,2.709a.492.492,0,0,1,0,.694ZM15.508,3,13.334.828l.407-.166,1.933,1.933ZM16.68,14.624l.5.5-2.309,2.31-.5-.5Zm3.7,8.315-5.111-5.11,2.309-2.31,5.111,5.109Z" transform="translate(0 0)" fill="#1a67b3"/>
      <rect id="Rectángulo_4973" data-name="Rectángulo 4973" width="11.815" height="0.563" transform="translate(1.525 12.444) rotate(-45)" fill="#1a67b3"/>
      <rect id="Rectángulo_4974" data-name="Rectángulo 4974" width="0.49" height="0.563" transform="translate(10.475 3.494) rotate(-45)" fill="#1a67b3"/>
      <path id="Trazado_8797" data-name="Trazado 8797" d="M38.128,13.057v2.391a.969.969,0,0,1-.966.97h-.481A1.186,1.186,0,0,0,35.495,17.6v.368a2.68,2.68,0,0,1-1.336,2.316.282.282,0,0,0,.282.488,3.245,3.245,0,0,0,1.618-2.8V17.6a.622.622,0,0,1,.624-.62h.481a1.533,1.533,0,0,0,1.529-1.533V13.057a.282.282,0,0,0-.563,0" transform="translate(-19.285 -7.242)" fill="#1a67b3"/>
      <path id="Trazado_8798" data-name="Trazado 8798" d="M14.136,33.374a4.074,4.074,0,0,0-1.093,2.786v5.288a.857.857,0,0,1-.858.858.854.854,0,0,1-.853-.853V35.6a1.029,1.029,0,0,0-1.044-1.022,1,1,0,0,0-1,1V39.01a.857.857,0,0,1-.853.853.856.856,0,0,1-.858-.853V37.226a1.022,1.022,0,0,0-2.044,0v3.413a.854.854,0,0,1-.253.609.831.831,0,0,1-.6.249.858.858,0,0,1-.858-.858V35.671a.282.282,0,1,0-.563,0v4.968A1.422,1.422,0,0,0,4.68,42.059,1.421,1.421,0,0,0,6.1,40.639V37.226a.459.459,0,0,1,.918,0V39.01a1.42,1.42,0,0,0,1.421,1.416,1.387,1.387,0,0,0,1-.414,1.409,1.409,0,0,0,.418-1V35.576a.442.442,0,0,1,.455-.437.462.462,0,0,1,.463.459v5.856a1.418,1.418,0,0,0,2.837,0V36.161a3.513,3.513,0,0,1,.942-2.4.281.281,0,1,0-.412-.384" transform="translate(-1.848 -18.869)" fill="#1a67b3"/>
    </g>
  </g>
</svg>
