<svg xmlns="http://www.w3.org/2000/svg" xmlns:xlink="http://www.w3.org/1999/xlink" width="24.042" height="24" viewBox="0 0 24.042 24">
  <defs>
    <clipPath id="clip-path">
      <rect id="Rectángulo_4976" data-name="Rectángulo 4976" width="24.042" height="24" fill="#1a67b3"/>
    </clipPath>
  </defs>
  <g id="Grupo_8454" data-name="Grupo 8454" transform="translate(0 0)">
    <g id="Grupo_8453" data-name="Grupo 8453" transform="translate(0 0)" clip-path="url(#clip-path)">
      <path id="Trazado_8799" data-name="Trazado 8799" d="M23.838,17.879c-.112.038-.223.08-.33.127a.283.283,0,1,0,.223.519c.094-.04.19-.077.288-.11a.283.283,0,1,0-.181-.536" transform="translate(-13.191 -10.097)" fill="#1a67b3"/>
      <path id="Trazado_8800" data-name="Trazado 8800" d="M19.486,19.29a4.261,4.261,0,0,0-1.713,3.432.283.283,0,0,0,.565,0,3.7,3.7,0,0,1,1.488-2.98.283.283,0,1,0-.34-.452" transform="translate(-10.046 -10.872)" fill="#1a67b3"/>
      <path id="Trazado_8801" data-name="Trazado 8801" d="M6.618,22.595a.283.283,0,0,0-.283.283v3.489a.283.283,0,0,0,.565,0V22.878a.283.283,0,0,0-.283-.283" transform="translate(-3.581 -12.772)" fill="#1a67b3"/>
      <path id="Trazado_8802" data-name="Trazado 8802" d="M23.76,7.071a3.018,3.018,0,0,0-2.147.887,2.758,2.758,0,0,0-.389.475h-4.3A5.958,5.958,0,0,0,14.2,6.283V5.135h.643V4.57H13.229V3.612h3.993V3.329a2.112,2.112,0,0,0-2.11-2.11h-2V1.1a1.1,1.1,0,0,0-2.192,0v.124h-2a2.112,2.112,0,0,0-2.11,2.11v.283h3.993V4.57H9.2v.565h.643V6.293a6.008,6.008,0,0,0-2.723,2.14h-4.3a2.764,2.764,0,0,0-.386-.472A3,3,0,0,0,.283,7.071H0V16.63H.283a3.042,3.042,0,0,0,2.53-1.363H7.126a5.946,5.946,0,0,0,4.9,2.563,6.008,6.008,0,0,0,4.9-2.563h4.3A3.047,3.047,0,0,0,23.76,16.63h.283V7.071ZM11.49,1.1a.53.53,0,1,1,1.06,0v.124H11.49Zm-2.561.689h6.183a1.547,1.547,0,0,1,1.519,1.262H7.41A1.547,1.547,0,0,1,8.929,1.785m2.449,1.827h1.286V4.57H11.378ZM10.4,5.135h3.232V6.1a5.86,5.86,0,0,0-3.232,0ZM7.267,14.7H2.494l-.082.14A2.473,2.473,0,0,1,.566,16.048v-8.4a2.437,2.437,0,0,1,1.466.711,2.213,2.213,0,0,1,.379.493L2.492,9H6.767c-.044.082-.09.164-.131.249a.283.283,0,0,0,.51.246,5.421,5.421,0,0,1,9.4-.62A.28.28,0,0,0,16.78,9h4.767l.081-.143a2.227,2.227,0,0,1,.382-.5,2.455,2.455,0,0,1,1.467-.708v8.4a2.476,2.476,0,0,1-1.85-1.206l-.082-.14H17.27c.045-.082.09-.164.131-.249a.283.283,0,0,0-.509-.245,5.41,5.41,0,0,1-9.391.62.28.28,0,0,0-.234-.126" transform="translate(0 0)" fill="#1a67b3"/>
      <path id="Trazado_8803" data-name="Trazado 8803" d="M47.946,22.595a.283.283,0,0,0-.283.283v3.489a.283.283,0,0,0,.565,0V22.878a.283.283,0,0,0-.283-.283" transform="translate(-26.941 -12.772)" fill="#1a67b3"/>
      <path id="Trazado_8804" data-name="Trazado 8804" d="M25.106,42.4l-.2.213c-.071.075-1.752,1.848-1.752,3.4a1.956,1.956,0,1,0,3.912,0c0-1.552-1.68-3.325-1.752-3.4Zm0,5a1.392,1.392,0,0,1-1.39-1.391,5.276,5.276,0,0,1,1.39-2.779,5.264,5.264,0,0,1,1.39,2.779,1.392,1.392,0,0,1-1.39,1.391" transform="translate(-13.086 -23.964)" fill="#1a67b3"/>
    </g>
  </g>
</svg>
