<svg id="Grupo_8468" data-name="Grupo 8468" xmlns="http://www.w3.org/2000/svg" xmlns:xlink="http://www.w3.org/1999/xlink" width="24.805" height="24" viewBox="0 0 24.805 24">
  <defs>
    <clipPath id="clip-path">
      <rect id="Rectángulo_4984" data-name="Rectángulo 4984" width="24.805" height="24" fill="#1a67b3"/>
    </clipPath>
  </defs>
  <g id="Grupo_8468-2" data-name="Grupo 8468" clip-path="url(#clip-path)">
    <path id="Trazado_8842" data-name="Trazado 8842" d="M448.46,396.06a.376.376,0,0,1-.376-.376v-.327a.376.376,0,0,1,.752,0v.327a.376.376,0,0,1-.376.376" transform="translate(-425.628 -375.186)" fill="#1a67b3"/>
    <path id="Trazado_8843" data-name="Trazado 8843" d="M448.46,440.8a.376.376,0,0,1-.376-.376V440.1a.376.376,0,0,1,.752,0v.327a.376.376,0,0,1-.376.376" transform="translate(-425.628 -417.687)" fill="#1a67b3"/>
    <path id="Trazado_8844" data-name="Trazado 8844" d="M423.154,421.367h-.327a.376.376,0,1,1,0-.752h.327a.376.376,0,0,1,0,.752" transform="translate(-401.28 -399.536)" fill="#1a67b3"/>
    <path id="Trazado_8845" data-name="Trazado 8845" d="M467.9,421.367h-.327a.376.376,0,0,1,0-.752h.327a.376.376,0,0,1,0,.752" transform="translate(-443.779 -399.536)" fill="#1a67b3"/>
    <path id="Trazado_8846" data-name="Trazado 8846" d="M57.231,25.189a.376.376,0,0,1-.376-.376v-.327a.376.376,0,1,1,.752,0v.327a.376.376,0,0,1-.376.376" transform="translate(-54.006 -22.902)" fill="#1a67b3"/>
    <path id="Trazado_8847" data-name="Trazado 8847" d="M57.231,69.932a.376.376,0,0,1-.376-.376v-.327a.376.376,0,1,1,.752,0v.327a.376.376,0,0,1-.376.376" transform="translate(-54.006 -65.402)" fill="#1a67b3"/>
    <path id="Trazado_8848" data-name="Trazado 8848" d="M31.925,50.495H31.6a.376.376,0,1,1,0-.752h.327a.376.376,0,1,1,0,.752" transform="translate(-29.657 -47.25)" fill="#1a67b3"/>
    <path id="Trazado_8849" data-name="Trazado 8849" d="M76.667,50.495H76.34a.376.376,0,1,1,0-.752h.327a.376.376,0,1,1,0,.752" transform="translate(-72.157 -47.25)" fill="#1a67b3"/>
    <path id="Trazado_8850" data-name="Trazado 8850" d="M382.266,460.672a.468.468,0,1,1-.468-.468.468.468,0,0,1,.468.468" transform="translate(-362.219 -437.141)" fill="#1a67b3"/>
    <path id="Trazado_8851" data-name="Trazado 8851" d="M30.635,119.751a.468.468,0,1,1-.468-.468.468.468,0,0,1,.468.468" transform="translate(-28.21 -113.305)" fill="#1a67b3"/>
    <path id="Trazado_8852" data-name="Trazado 8852" d="M125.929,5.232a.468.468,0,1,1-.468-.468.468.468,0,0,1,.468.468" transform="translate(-118.728 -4.525)" fill="#1a67b3"/>
    <path id="Trazado_8853" data-name="Trazado 8853" d="M141.484,22.341a1.688,1.688,0,0,1-.213-.013.376.376,0,0,1,.1-.746.95.95,0,0,0,.59-.115l4.571-2.577a7.035,7.035,0,0,0,3.293-5.957v-9.9c-4.614-1.083-7.689-2.051-8.328-2.257a78.482,78.482,0,0,1-8.338,2.26v8.689a.376.376,0,1,1-.752,0V2.731a.376.376,0,0,1,.3-.367,75.3,75.3,0,0,0,8.66-2.341.377.377,0,0,1,.248,0c.033.011,3.365,1.111,8.676,2.346a.376.376,0,0,1,.291.366v10.2a7.787,7.787,0,0,1-3.653,6.6l-.015.009-4.578,2.581a1.72,1.72,0,0,1-.841.22" transform="translate(-125.767 0)" fill="#1a67b3"/>
    <path id="Trazado_8854" data-name="Trazado 8854" d="M169.107,46.644a.376.376,0,0,1-.376-.376V42.855a.376.376,0,0,1,.294-.367,58.77,58.77,0,0,0,6.839-1.873.375.375,0,0,1,.251,0c.009,0,.87.292,2.376.719a.376.376,0,1,1-.205.723c-1.195-.339-1.992-.593-2.285-.689a60.473,60.473,0,0,1-6.518,1.791v3.113a.376.376,0,0,1-.376.376" transform="translate(-160.275 -38.557)" fill="#1a67b3"/>
    <path id="Trazado_8855" data-name="Trazado 8855" d="M308.872,205.9a.376.376,0,0,1-.184-.7l4.013-2.24a5.549,5.549,0,0,0,2.567-4.709V195.95a.376.376,0,1,1,.752,0v2.294a6.3,6.3,0,0,1-2.925,5.35l-.018.011-4.022,2.246a.375.375,0,0,1-.183.048" transform="translate(-293.036 -185.773)" fill="#1a67b3"/>
    <path id="Trazado_8856" data-name="Trazado 8856" d="M256.746,108.052a.375.375,0,0,1-.266-.11l-2.411-2.411a.376.376,0,0,1,0-.532l1.085-1.085a.376.376,0,0,1,.532,0l1.078,1.078,5.213-5.214a.372.372,0,0,1,.273-.11.376.376,0,0,1,.269.12l1.027,1.108a.376.376,0,0,1-.01.521l-6.523,6.523a.375.375,0,0,1-.266.11m-1.88-2.787,1.88,1.88,6-6-.516-.557-5.2,5.2a.376.376,0,0,1-.532,0l-1.078-1.078Z" transform="translate(-241.232 -94.673)" fill="#1a67b3"/>
    <path id="Trazado_8857" data-name="Trazado 8857" d="M98.579,193.687H94.1a7.813,7.813,0,0,1-1.344-.114,7.939,7.939,0,0,0-2.005.015.376.376,0,1,1-.1-.744,8.6,8.6,0,0,1,2.239-.011,7.054,7.054,0,0,0,1.214.1h4.475a1.017,1.017,0,0,0,1.016-1.016v-5.1a1.016,1.016,0,0,0-1.016-1.016H95.456a.376.376,0,0,1-.246-.66,4.733,4.733,0,0,0,1.424-2.4,13.408,13.408,0,0,0,.152-1.457.764.764,0,0,0-1.515-.172c-.336,1.892-.954,2.678-1.414,3a8.443,8.443,0,0,1-.718.453c-.345.2-.392.239-.417.353a2.962,2.962,0,0,1-2,2.469.376.376,0,1,1-.189-.728c.5-.13,1.157-.565,1.452-1.9.1-.452.4-.624.776-.842a7.777,7.777,0,0,0,.659-.415,4.071,4.071,0,0,0,1.108-2.522,1.515,1.515,0,0,1,3.006.341,14.146,14.146,0,0,1-.16,1.539,4.819,4.819,0,0,1-1.053,2.185h2.256a1.768,1.768,0,0,1,1.768,1.768v5.1a1.77,1.77,0,0,1-1.768,1.768" transform="translate(-85.731 -170.728)" fill="#1a67b3"/>
    <path id="Trazado_8858" data-name="Trazado 8858" d="M40.5,315.076a.8.8,0,0,1-.582-.255.878.878,0,0,1-.236-.592l-.076-6.473a.877.877,0,0,1,.219-.6.8.8,0,0,1,.586-.272l1.578-.028H42a.84.84,0,0,1,.819.847l.076,6.473a.839.839,0,0,1-.805.869l-1.578.028H40.5m.005-.376h0Zm1.5-7.09h0l-1.578.028a.051.051,0,0,0-.036.02.131.131,0,0,0-.03.088l.076,6.473a.13.13,0,0,0,.032.086.052.052,0,0,0,.035.019h0l1.578-.028c.028,0,.066-.042.065-.108l-.076-6.473c0-.064-.04-.105-.067-.105" transform="translate(-37.618 -291.481)" fill="#1a67b3"/>
    <path id="Trazado_8859" data-name="Trazado 8859" d="M142.426,291.8a.376.376,0,0,1-.144-.723l.393-.163a2.614,2.614,0,0,0,1.617-2.421v-2.271a.376.376,0,0,1,.752,0v2.271a3.364,3.364,0,0,1-2.08,3.116l-.393.163a.374.374,0,0,1-.144.029" transform="translate(-134.931 -271.52)" fill="#1a67b3"/>
    <path id="Trazado_8860" data-name="Trazado 8860" d="M2.361,317.925H.376a.376.376,0,0,1,0-.752H2.361a.376.376,0,0,1,0,.752" transform="translate(0 -301.278)" fill="#1a67b3"/>
    <path id="Trazado_8861" data-name="Trazado 8861" d="M2.361,449.776H.376a.376.376,0,1,1,0-.752H2.361a.376.376,0,1,1,0,.752" transform="translate(0 -426.521)" fill="#1a67b3"/>
  </g>
</svg>
