<svg xmlns="http://www.w3.org/2000/svg" xmlns:xlink="http://www.w3.org/1999/xlink" width="19.833" height="24" viewBox="0 0 19.833 24">
  <defs>
    <clipPath id="clip-path">
      <rect id="Rectángulo_4982" data-name="Rectángulo 4982" width="19.833" height="24" fill="#1a67b3"/>
    </clipPath>
  </defs>
  <g id="Grupo_8466" data-name="Grupo 8466" transform="translate(0 0)">
    <g id="Grupo_8465" data-name="Grupo 8465" transform="translate(0 0)" clip-path="url(#clip-path)">
      <path id="Trazado_8823" data-name="Trazado 8823" d="M24.9,21.355H20.808a.282.282,0,1,0,0,.564H24.9a.282.282,0,0,0,0-.564" transform="translate(-11.618 -12.087)" fill="#1a67b3"/>
      <path id="Trazado_8824" data-name="Trazado 8824" d="M12.561.818V.282L12.279,0H7.554L7.272.282V.818C3.846,1.028,0,5.018,0,10.137A1.066,1.066,0,0,0,1.065,11.2h.092v.4l.282.282h.74L3.11,24H16.723l.932-12.121h.74l.282-.282v-.4h.092a1.066,1.066,0,0,0,1.065-1.065c0-5.119-3.846-9.109-7.272-9.319M7.837.564H12V1.6H7.837ZM1.722,11.315v-.79h.353l.061.79ZM17.569,9.268H15.4a.282.282,0,1,0,0,.564h.22a2.6,2.6,0,0,0-.989,2.038v5.635a.712.712,0,0,1-1.424,0V11.4a1.07,1.07,0,0,0-2.14,0v1.306a.712.712,0,1,1-1.424,0v-.555a1.07,1.07,0,0,0-2.14,0v2.114a.712.712,0,1,1-1.423,0V11.825a2.553,2.553,0,0,0-.959-1.993H6.7a.282.282,0,1,0,0-.564H2.264a.543.543,0,0,1,0-1.085h15.3a.543.543,0,0,1,0,1.085M16.2,23.436H3.633L2.587,9.832h.935a2,2,0,0,1,1.993,1.993v2.442a1.276,1.276,0,0,0,2.552,0V12.152a.505.505,0,1,1,1.011,0v.555a1.276,1.276,0,0,0,2.553,0V11.4a.505.505,0,1,1,1.011,0v6.1a1.276,1.276,0,0,0,2.553,0V11.87a2.04,2.04,0,0,1,2.038-2.038h.013Zm1.911-12.121H17.7l.061-.79h.353Zm.656-.677h-.092v-.395l-.282-.282H17.8l.012-.158a1.106,1.106,0,0,0-.245-2.184H2.264A1.106,1.106,0,0,0,2.019,9.8l.012.158H1.439l-.282.282v.395H1.065a.5.5,0,0,1-.5-.5c0-4.718,3.6-8.533,6.707-8.754v.495l.282.282h4.725l.282-.282V1.383c3.107.221,6.707,4.036,6.707,8.754a.5.5,0,0,1-.5.5" transform="translate(0 0)" fill="#1a67b3"/>
    </g>
  </g>
</svg>
