<svg xmlns="http://www.w3.org/2000/svg" xmlns:xlink="http://www.w3.org/1999/xlink" width="22.636" height="24" viewBox="0 0 22.636 24">
  <defs>
    <clipPath id="clip-path">
      <rect id="Rectángulo_4978" data-name="Rectángulo 4978" width="22.636" height="24" fill="#1a67b3"/>
    </clipPath>
  </defs>
  <g id="Grupo_8458" data-name="Grupo 8458" transform="translate(0 0)">
    <g id="Grupo_8457" data-name="Grupo 8457" transform="translate(0 0)" clip-path="url(#clip-path)">
      <path id="Trazado_8814" data-name="Trazado 8814" d="M10.167,33.073l-.812.812a2.073,2.073,0,0,0,0,2.928L12.342,39.8l.564-.564a2.421,2.421,0,0,0,0-3.424Zm2.341,5.765-.167.167L9.753,36.416a1.511,1.511,0,0,1,0-2.134l.414-.415,2.341,2.341a1.859,1.859,0,0,1,0,2.63" transform="translate(-4.971 -18.789)" fill="#1a67b3"/>
      <path id="Trazado_8815" data-name="Trazado 8815" d="M22.551,4.4,18.156,0,6.408,11.748a.9.9,0,0,0-1.034.164L.358,16.927a1.225,1.225,0,0,0,1.3,2.012,1.37,1.37,0,0,1,1.449.313L5.39,21.536a.466.466,0,0,1,0,.66,1.057,1.057,0,1,0,1.495,1.494l4.438-4.438a.892.892,0,0,0,.222-.9l-.125-.4L12.8,16.317a.283.283,0,0,0,.066-.194L12.8,14.556l1.425-.06A.28.28,0,0,0,14.5,14.2l-.065-1.571,1.421-.06a.28.28,0,0,0,.269-.292l-.063-1.574,1.426-.06a.281.281,0,0,0,.269-.292l-.066-1.571,1.426-.06a.281.281,0,0,0,.269-.292l-.066-1.57,1.421-.06a.281.281,0,0,0,.269-.292l-.061-1.572,1.422-.06a.28.28,0,0,0,.269-.292.289.289,0,0,0-.084-.188M10.927,18.856,6.488,23.294a.507.507,0,0,1-.7,0,.5.5,0,0,1,0-.7,1.029,1.029,0,0,0,0-1.454L3.5,18.854a1.932,1.932,0,0,0-2.045-.441.663.663,0,0,1-.7-1.089l5.016-5.016a.335.335,0,0,1,.473,0L10.3,16.36a.346.346,0,0,1,.083.138l.63,2.021a.334.334,0,0,1-.083.337M20.642,4.388a.281.281,0,0,0-.269.292l.061,1.571-1.422.06a.281.281,0,0,0-.269.292l.066,1.571-1.426.06a.281.281,0,0,0-.269.292l.065,1.57-1.426.06a.28.28,0,0,0-.269.292l.063,1.573-1.421.06a.281.281,0,0,0-.269.292l.065,1.571-1.426.06a.281.281,0,0,0-.269.292l.076,1.739-1.082,1.278-.308-.986a.906.906,0,0,0-.222-.366L6.84,12.11,18.156.794,21.7,4.343Z" transform="translate(0 0)" fill="#1a67b3"/>
      <path id="Trazado_8816" data-name="Trazado 8816" d="M40.213,4.21a.878.878,0,0,0,0,1.239h0A.876.876,0,1,0,41.453,4.21a.9.9,0,0,0-1.24,0m.842.842a.322.322,0,0,1-.445,0,.316.316,0,0,1,0-.445.322.322,0,0,1,.446,0,.315.315,0,0,1,0,.445" transform="translate(-22.7 -2.251)" fill="#1a67b3"/>
    </g>
  </g>
</svg>
