<svg xmlns="http://www.w3.org/2000/svg" xmlns:xlink="http://www.w3.org/1999/xlink" width="24" height="24" viewBox="0 0 24 24">
  <defs>
    <clipPath id="clip-path">
      <rect id="Rectángulo_4977" data-name="Rectángulo 4977" width="24" height="24" fill="#1a67b3"/>
    </clipPath>
  </defs>
  <g id="Grupo_8456" data-name="Grupo 8456" transform="translate(0 0)">
    <g id="Grupo_8455" data-name="Grupo 8455" transform="translate(0 0)" clip-path="url(#clip-path)">
      <path id="Trazado_8805" data-name="Trazado 8805" d="M22.787,16.921a4.141,4.141,0,0,0-3.137-1.2c.053-.108.105-.217.153-.326l-.517-.226c-.061.14-.137.275-.207.413L14.461,10.96l3.724-3.922c.11.137.225.273.324.414l.462-.324c-.121-.173-.253-.342-.39-.508l1.742-1.836,1.734-.125,1.654-3.38-.99-.99-3.38,1.654-.125,1.734L13.04,9.539,8.422,4.922a7.823,7.823,0,0,1,1.2-.5L9.45,3.883a8.357,8.357,0,0,0-1.168.479A4.138,4.138,0,0,0,2.867.2l-.44.141L5.212,3.129,4.771,4.771l-1.642.44L.343,2.427.2,2.867A4.138,4.138,0,0,0,4.356,8.283a8.416,8.416,0,0,0-.381.893l.532.187a7.8,7.8,0,0,1,.412-.943l3.528,3.528L4.889,15.507a7.852,7.852,0,0,1-.488-1.2l-.54.164a8.46,8.46,0,0,0,.607,1.455L.437,19.959l-.061.061L.36,20.1c-.019.1-.146.984,1.2,2.333A3.3,3.3,0,0,0,3.75,23.652.765.765,0,0,0,3.9,23.64l.085-.016,4.092-4.093a8.427,8.427,0,0,0,1.455.608l.164-.54a7.841,7.841,0,0,1-1.2-.489l3.558-3.558,3.528,3.528a7.77,7.77,0,0,1-.943.412l.187.532a8.381,8.381,0,0,0,.893-.382A4.135,4.135,0,0,0,19.847,24a4.211,4.211,0,0,0,1.286-.2l.44-.141-2.785-2.785.44-1.642,1.643-.441,2.785,2.785.141-.44a4.143,4.143,0,0,0-1.011-4.212M19.763,3.935l.117-1.629L22.607.973l.42.42L21.693,4.12l-1.629.117-6.733,7.094a2.7,2.7,0,0,0-.662-.662ZM4.94,7.644l-.146.026A3.58,3.58,0,0,1,.623,3.5L2.959,5.841l2.272-.61L5.84,2.96,3.5.623A3.579,3.579,0,0,1,7.669,4.794l-.027.146,4.988,4.988-.47.447a4.378,4.378,0,0,0-1.629-.39h-.118L8.846,11.55ZM3.72,23.086a2.735,2.735,0,0,1-1.552-.855l8.843-8.843-.4-.4L1.77,21.832A2.742,2.742,0,0,1,.913,20.28l9.354-9.354,1.756,1.756a.282.282,0,0,0,.4-.4L10.7,10.561a3.27,3.27,0,0,1,1.931.808,3.327,3.327,0,0,1,.815,1.992ZM23.377,20.5,21.04,18.16l-2.271.61-.609,2.271L20.5,23.378a3.579,3.579,0,0,1-4.165-4.171l.026-.146L12.45,15.154l1.567-1.567v-.119a4.383,4.383,0,0,0-.391-1.629l.447-.471,4.988,4.988.146-.027A3.58,3.58,0,0,1,23.377,20.5" transform="translate(0 0)" fill="#1a67b3"/>
      <path id="Trazado_8806" data-name="Trazado 8806" d="M15.145,14.747a.282.282,0,1,0-.4.4L17.6,18a.282.282,0,0,0,.4-.4Z" transform="translate(-8.3 -8.301)" fill="#1a67b3"/>
      <path id="Trazado_8807" data-name="Trazado 8807" d="M33.2,32.8a.282.282,0,1,0-.4.4l2.874,2.874a.282.282,0,1,0,.4-.4Z" transform="translate(-18.52 -18.521)" fill="#1a67b3"/>
      <path id="Trazado_8808" data-name="Trazado 8808" d="M27.554,8.673l.065-.56a8.71,8.71,0,0,0-1.792-.022l.052.562a8.122,8.122,0,0,1,1.675.02" transform="translate(-14.62 -4.56)" fill="#1a67b3"/>
      <path id="Trazado_8809" data-name="Trazado 8809" d="M35.371,9.854A8.452,8.452,0,0,0,33.746,9.1l-.182.534a7.907,7.907,0,0,1,1.517.705Z" transform="translate(-18.999 -5.15)" fill="#1a67b3"/>
      <path id="Trazado_8810" data-name="Trazado 8810" d="M26.06,45.843l-.046.562c.235.02.474.029.711.029a8.7,8.7,0,0,0,1.08-.067l-.071-.56a8.12,8.12,0,0,1-1.674.036" transform="translate(-14.725 -25.929)" fill="#1a67b3"/>
      <path id="Trazado_8811" data-name="Trazado 8811" d="M8.122,25.166a8.651,8.651,0,0,0-.068,1.079c0,.235.01.475.03.711l.562-.046c-.018-.219-.027-.441-.027-.665a8.1,8.1,0,0,1,.062-1.008Z" transform="translate(-4.559 -14.245)" fill="#1a67b3"/>
      <path id="Trazado_8812" data-name="Trazado 8812" d="M44.987,19.907l-.518.223a7.935,7.935,0,0,1,.484,1.541l.552-.113a8.46,8.46,0,0,0-.519-1.652" transform="translate(-25.172 -11.268)" fill="#1a67b3"/>
      <path id="Trazado_8813" data-name="Trazado 8813" d="M46.3,27.682h-.565a7.979,7.979,0,0,1-.165,1.609l.553.114a8.621,8.621,0,0,0,.177-1.721" transform="translate(-25.796 -15.669)" fill="#1a67b3"/>
    </g>
  </g>
</svg>
