<svg id="Grupo_8471" data-name="Grupo 8471" xmlns="http://www.w3.org/2000/svg" xmlns:xlink="http://www.w3.org/1999/xlink" width="25.657" height="24" viewBox="0 0 25.657 24">
  <defs>
    <clipPath id="clip-path">
      <rect id="Rectángulo_4986" data-name="Rectángulo 4986" width="25.657" height="24" fill="#1a67b3"/>
    </clipPath>
  </defs>
  <g id="Grupo_8471-2" data-name="Grupo 8471" clip-path="url(#clip-path)">
    <path id="Trazado_8863" data-name="Trazado 8863" d="M13.077,45.865l.1-.308a.65.65,0,0,0-.423-.816L9.361,43.665a2.253,2.253,0,0,0-1.729.148L6.49,44.4a.351.351,0,0,0,.011.628l.768.365a1.466,1.466,0,0,1,.652,1.058.671.671,0,0,0-.435.435l-.149.47a.671.671,0,0,0,.152.664L5.751,47.54a1.493,1.493,0,0,0-1.841,1.036L.056,62.35h0a1.493,1.493,0,0,0,1.036,1.841l4.55,1.273a1.493,1.493,0,0,0,1.841-1.036l3.855-13.775A1.493,1.493,0,0,0,10.3,48.813L9.548,48.6c.018-.007.036-.015.053-.024a.667.667,0,0,0,.331-.393l.149-.47a.667.667,0,0,0-.044-.512.677.677,0,0,0-.056-.089l.177-.354a.181.181,0,0,1,.1-.072l.022-.007.539-.186a.351.351,0,1,0-.229-.663l-.53.183a.879.879,0,0,0-.51.391l-.014.025-.175.351-.719-.228A2.233,2.233,0,0,0,7.57,44.764L7.44,44.7l.514-.266a1.555,1.555,0,0,1,1.194-.1l3.342,1.06-.067.21-.526-.167a.351.351,0,0,0-.428.2,4.867,4.867,0,0,0-.006,3.525.351.351,0,0,0,.647-.273A4.282,4.282,0,0,1,12,46.207l.258.082a.651.651,0,0,0,.816-.423m-2.544,3.911a.789.789,0,0,1,.129.688L6.807,64.24a.791.791,0,0,1-.976.549L1.28,63.516a.791.791,0,0,1-.549-.976h0L4.586,48.765a.791.791,0,0,1,.976-.549l4.55,1.273a.786.786,0,0,1,.42.288M9.4,47.532l-.131.413-1.258-.4.131-.413Z" transform="translate(0 -41.52)" fill="#1a67b3"/>
    <path id="Trazado_8864" data-name="Trazado 8864" d="M304.638,92.295a.351.351,0,0,0-.228-.441L301,90.774a.351.351,0,0,0-.212.669l3.406,1.081a.35.35,0,0,0,.44-.228" transform="translate(-286.489 -86.512)" fill="#1a67b3"/>
    <path id="Trazado_8865" data-name="Trazado 8865" d="M292.921,52.847l.043,0,3.695-.453a.351.351,0,1,0-.085-.7l-3.695.453a.351.351,0,0,0,.042.7" transform="translate(-278.885 -49.274)" fill="#1a67b3"/>
    <path id="Trazado_8866" data-name="Trazado 8866" d="M279.688,109.276l2.45,2.865a.351.351,0,1,0,.533-.456l-2.45-2.865a.351.351,0,1,0-.533.456" transform="translate(-266.525 -103.612)" fill="#1a67b3"/>
    <path id="Trazado_8867" data-name="Trazado 8867" d="M380.607,5.947a1.678,1.678,0,0,0-.529-1.225,2.273,2.273,0,0,0-1.589-2.82,1.68,1.68,0,0,0-2.57-1.1,2.27,2.27,0,0,0-3.467,0,.351.351,0,1,0,.536.453,1.569,1.569,0,0,1,2.56.232.351.351,0,0,0,.564.061.979.979,0,0,1,1.7.647.351.351,0,0,0,.3.343,1.575,1.575,0,0,1,1.347,1.553,1.558,1.558,0,0,1-.123.61.351.351,0,0,0,.128.428.979.979,0,0,1-.359,1.777.351.351,0,0,0-.142.628,1.569,1.569,0,0,1-.927,2.835.351.351,0,0,0-.027.7v4.643a.255.255,0,1,1-.509,0V14.308a.351.351,0,1,0-.7,0v1.407a.956.956,0,1,0,1.912,0V10.971a2.269,2.269,0,0,0,1.092-3.593,1.683,1.683,0,0,0,.8-1.431" transform="translate(-354.951 0.001)" fill="#1a67b3"/>
    <path id="Trazado_8868" data-name="Trazado 8868" d="M414.7,233.944a.351.351,0,0,0-.5-.024.979.979,0,0,1-1.157.117.351.351,0,0,0-.473.111,1.732,1.732,0,0,1-.548.534.351.351,0,1,0,.365.6,2.437,2.437,0,0,0,.588-.5,1.681,1.681,0,0,0,1.7-.337.351.351,0,0,0,.024-.5" transform="translate(-392.595 -222.891)" fill="#1a67b3"/>
    <path id="Trazado_8869" data-name="Trazado 8869" d="M383.853,257.531a.351.351,0,0,0-.379-.32c-.048,0-.1.006-.145.006a.351.351,0,0,0,0,.7c.068,0,.136,0,.2-.008a.351.351,0,0,0,.32-.379" transform="translate(-365.064 -245.178)" fill="#1a67b3"/>
    <path id="Trazado_8870" data-name="Trazado 8870" d="M286.827,208.076a1.734,1.734,0,0,1-.515-.524.351.351,0,0,0-.509-.093,1.442,1.442,0,0,1-.878.295,1.457,1.457,0,0,1-1.456-1.455.351.351,0,0,0-.7,0,2.158,2.158,0,0,0,3.159,1.911,2.439,2.439,0,0,0,.516.454.351.351,0,0,0,.384-.588" transform="translate(-269.541 -196.314)" fill="#1a67b3"/>
    <path id="Trazado_8871" data-name="Trazado 8871" d="M277.4,299.695a.351.351,0,0,0-.351.351v.471a.255.255,0,1,1-.509,0V298.9a.351.351,0,1,0-.7,0v1.615a.956.956,0,0,0,1.912,0v-.471a.351.351,0,0,0-.351-.351" transform="translate(-262.931 -284.585)" fill="#1a67b3"/>
    <path id="Trazado_8872" data-name="Trazado 8872" d="M275.834,263.511v.191a.351.351,0,1,0,.7,0v-.191a.351.351,0,0,0-.7,0" transform="translate(-262.931 -250.85)" fill="#1a67b3"/>
    <path id="Trazado_8873" data-name="Trazado 8873" d="M399.17,331.649a.351.351,0,0,0-.351.351v3.019a.255.255,0,0,1-.509,0v-.939a.351.351,0,0,0-.7,0v.939a.956.956,0,0,0,1.912,0V332a.351.351,0,0,0-.351-.351" transform="translate(-379.009 -316.135)" fill="#1a67b3"/>
    <path id="Trazado_8874" data-name="Trazado 8874" d="M423.842,301.2a.351.351,0,0,0-.351.351v.191a.351.351,0,0,0,.7,0v-.191a.351.351,0,0,0-.351-.351" transform="translate(-403.681 -287.108)" fill="#1a67b3"/>
    <path id="Trazado_8875" data-name="Trazado 8875" d="M439.256,104.3a.351.351,0,0,0-.2.674,1.785,1.785,0,0,0,.5.071,1.767,1.767,0,0,0,.227-.015.831.831,0,0,1-.458.913.351.351,0,1,0,.3.634,1.534,1.534,0,0,0,.825-1.775,1.782,1.782,0,0,0,.391-.311,1.774,1.774,0,0,0-.067-2.508.351.351,0,0,0-.483.509,1.072,1.072,0,0,1-1.038,1.808" transform="translate(-418.281 -97.121)" fill="#1a67b3"/>
    <path id="Trazado_8876" data-name="Trazado 8876" d="M70.5,227.972a.351.351,0,0,0-.638.292l1.161,2.539c-1.172.667-2.246,1.28-2.246,1.28a.351.351,0,1,0,.348.609l.056-.032c.231-.132,1.142-.652,2.135-1.217l1.108,2.423a.351.351,0,1,0,.638-.292L71.929,231.1c.586-.333,1.159-.657,1.6-.9.223-.125.411-.23.547-.3l.162-.088.044-.023.009,0h0a.351.351,0,0,0-.266-.649l-.035.015-.055.028-.159.086c-.247.136-.681.379-1.2.67l-.941.533Z" transform="translate(-65.392 -217.112)" fill="#1a67b3"/>
  </g>
</svg>
