<svg xmlns="http://www.w3.org/2000/svg" xmlns:xlink="http://www.w3.org/1999/xlink" width="23.245" height="24" viewBox="0 0 23.245 24">
  <defs>
    <clipPath id="clip-path">
      <rect id="Rectángulo_4985" data-name="Rectángulo 4985" width="23.245" height="24" fill="#1a67b3"/>
    </clipPath>
  </defs>
  <g id="Grupo_8470" data-name="Grupo 8470" transform="translate(0 0)">
    <g id="Grupo_8469" data-name="Grupo 8469" transform="translate(0 0)" clip-path="url(#clip-path)">
      <path id="Trazado_8862" data-name="Trazado 8862" d="M22.956,15.017a14.693,14.693,0,0,0-5.457-.933v-.64H15.463v.206H10.411l1.28-1.281a.747.747,0,0,0,.9-.121l.208-.208a.747.747,0,0,0,.121-.9l1.506-1.506a.618.618,0,0,0,0-.873L12.719,7.051a.618.618,0,0,0-.873,0L10.363,8.535,2.049.221a.756.756,0,0,0-1.068,0L.773.428a.757.757,0,0,0,0,1.068h0L9.088,9.81,7.6,11.294a.618.618,0,0,0,0,.872l.241-.241-.241.241,1.483,1.483H0v2.084l.328.013.074,0a14.9,14.9,0,0,1,3.733.718,6.038,6.038,0,0,1,2.124,1.19,2.887,2.887,0,0,1,.647.866,2.514,2.514,0,0,1,.239,1.092,2.208,2.208,0,0,1-.677,1.575,4.246,4.246,0,0,1-1.243.848l-.671.31H4.186a.723.723,0,0,0-.723.723V24H16.988v-.93a.723.723,0,0,0-.723-.723h-.512l-.469-.29a1.731,1.731,0,0,1-.529-.5,1.64,1.64,0,0,1-.269-.942,2.181,2.181,0,0,1,.154-.864,1.308,1.308,0,0,1,.565-.641A1.539,1.539,0,0,1,15.463,19v.056H17.5v-.586a7.486,7.486,0,0,0,4.413-1.522,4.154,4.154,0,0,0,1.213-1.493l.12-.3ZM9.7,13.392h0Zm1.965-1.965L10.052,9.81l.311-.311,1.617,1.617Zm.614-3.847L13.9,9.2l-1.438,1.438L10.845,9.017ZM1.256,1.014l-.241.241.241-.241L1.235.962,1.256.91,1.463.7,1.515.682,1.567.7,9.881,9.017l-.311.311Zm9.931,10.9L9.749,13.347,8.132,11.73,9.57,10.292ZM4.145,23.318V23.07l.041-.041h.335v.289ZM5.2,23.03h.439v.289H5.2Zm8.584.289H6.665v-.29h7.122Zm1.023,0V23.03H15.2l.008.289Zm1.5,0h-.419l-.007-.289h.385l.041.041ZM14.544,18.75a2.006,2.006,0,0,0-.53.735,2.859,2.859,0,0,0-.208,1.131,2.325,2.325,0,0,0,.386,1.322c.016.024.035.044.051.067H6.579a4.06,4.06,0,0,0,.378-.341,2.9,2.9,0,0,0,.87-2.05,3.2,3.2,0,0,0-.344-1.465A4.293,4.293,0,0,0,5.7,16.421a11.242,11.242,0,0,0-3.5-1.143c-.649-.112-1.194-.167-1.52-.193v-.754H15.463v3.952a2.211,2.211,0,0,0-.919.467m6.862-2.273A6.853,6.853,0,0,1,17.5,17.784V14.765a19.115,19.115,0,0,1,3.854.456,9.812,9.812,0,0,1,.968.278,4.1,4.1,0,0,1-.915.978" transform="translate(0 0)" fill="#1a67b3"/>
    </g>
  </g>
</svg>
