<svg xmlns="http://www.w3.org/2000/svg" xmlns:xlink="http://www.w3.org/1999/xlink" width="20.64" height="24" viewBox="0 0 20.64 24">
  <defs>
    <clipPath id="clip-path">
      <rect id="Rectángulo_4980" data-name="Rectángulo 4980" width="20.64" height="24" fill="#1a67b3"/>
    </clipPath>
  </defs>
  <g id="Grupo_8462" data-name="Grupo 8462" transform="translate(0 0)">
    <g id="Grupo_8461" data-name="Grupo 8461" transform="translate(0 0)" clip-path="url(#clip-path)">
      <path id="Trazado_8819" data-name="Trazado 8819" d="M20.63,23.642,14.46,1.7V0H6.18V1.7L.01,23.642a.283.283,0,0,0,.2.348A.289.289,0,0,0,.282,24a.283.283,0,0,0,.272-.206L1.648,19.9h7.13l-1.051,3.74a.282.282,0,0,0,.2.348A.29.29,0,0,0,8,24a.282.282,0,0,0,.271-.206l2.049-7.289,2.05,7.289a.283.283,0,0,0,.272.206.292.292,0,0,0,.076-.011.283.283,0,0,0,.2-.348L11.861,19.9h7.131l1.095,3.893a.283.283,0,0,0,.272.206.292.292,0,0,0,.076-.011.282.282,0,0,0,.2-.348M10.445,14.869l-1.1-3.906h1.946l-.762,2.71a.282.282,0,0,0,.2.348.289.289,0,0,0,.076.01.283.283,0,0,0,.272-.206l.805-2.863h4.6l1.1,3.906ZM13.8,2.028l-.76,2.7a.282.282,0,0,0,.2.348.273.273,0,0,0,.076.011.282.282,0,0,0,.271-.206l.592-2.1.884,3.146H7.931l-1.1-3.9ZM12.552,6.493,11.789,9.2a.282.282,0,0,0,.2.348.292.292,0,0,0,.076.011.283.283,0,0,0,.272-.206l.806-2.863h2.083l1.1,3.906H9.188L8.09,6.493ZM13.9,1.457H6.744V.564H13.9ZM8.937,19.338H1.807l1.1-3.9H8.914a.282.282,0,0,0,0-.564H3.064l1.1-3.906H7.655a.282.282,0,1,0,0-.564H4.32l1.1-3.906H6.4a.282.282,0,1,0,0-.564H5.577l.884-3.143,3.565,12.677Zm2.765,0-1.089-3.875.008-.03h7.115l1.1,3.9Z" transform="translate(0 0)" fill="#1a67b3"/>
    </g>
  </g>
</svg>
