<svg xmlns="http://www.w3.org/2000/svg" xmlns:xlink="http://www.w3.org/1999/xlink" width="24.001" height="24" viewBox="0 0 24.001 24">
  <defs>
    <clipPath id="clip-path">
      <rect id="Rectángulo_4981" data-name="Rectángulo 4981" width="24.001" height="24" fill="#1a67b3"/>
    </clipPath>
  </defs>
  <g id="Grupo_8464" data-name="Grupo 8464" transform="translate(0 0)">
    <g id="Grupo_8463" data-name="Grupo 8463" transform="translate(0 0)" clip-path="url(#clip-path)">
      <path id="Trazado_8820" data-name="Trazado 8820" d="M22.517,1.485c-2.473-2.472-7.17-1.612-9.562.78L8.577,6.642l2.851,2.851a1.115,1.115,0,0,0,.047,1.527L7.247,15.248,4.4,14.27a2.049,2.049,0,0,0-2.1.486l-1.7,1.7a2.039,2.039,0,0,0,0,2.88L4.66,23.405A2.023,2.023,0,0,0,6.1,24h0a2.019,2.019,0,0,0,1.44-.6l1.7-1.7a2.051,2.051,0,0,0,.486-2.1l-.978-2.845,4.228-4.228a1.117,1.117,0,0,0,.792.326h.022a1.117,1.117,0,0,0,.714-.279l2.851,2.851,4.378-4.378c2.391-2.391,3.252-7.088.78-9.561M9.2,19.782a1.482,1.482,0,0,1-.351,1.52l-1.7,1.7a1.462,1.462,0,0,1-1.041.431h0a1.462,1.462,0,0,1-1.041-.431L1,18.941a1.473,1.473,0,0,1,0-2.082l1.7-1.7a1.482,1.482,0,0,1,1.52-.352L7.4,15.9l4.477-4.476.707.708L8.1,16.6Zm5.511-7.807a.294.294,0,0,0-.408.009l-.11.121a.567.567,0,0,1-.407.183.522.522,0,0,1-.408-.165l-1.5-1.5a.56.56,0,0,1-.165-.413.554.554,0,0,1,.182-.4L15.939,6.1a1.3,1.3,0,0,1,1.8.038l.122.123a1.279,1.279,0,0,1,.256.362.282.282,0,1,0,.51-.24,1.844,1.844,0,0,0-.367-.521l-.122-.122a1.864,1.864,0,0,0-2.583-.055L11.835,9.1l-2.46-2.46,3.979-3.979C15.515.5,19.906-.327,22.118,1.884s1.382,6.6-.78,8.764l-3.979,3.979Z" transform="translate(0 0)" fill="#1a67b3"/>
      <path id="Trazado_8821" data-name="Trazado 8821" d="M37.144,19.659,34.906,22.1a.282.282,0,1,0,.415.381l2.238-2.437a.282.282,0,0,0-.415-.381" transform="translate(-19.719 -11.078)" fill="#1a67b3"/>
      <path id="Trazado_8822" data-name="Trazado 8822" d="M5.935,36.266a.467.467,0,0,0-.488.112l-1.7,1.7a.473.473,0,0,0,0,.667l4.065,4.064a.469.469,0,0,0,.334.138h0a.47.47,0,0,0,.334-.138l1.7-1.7a.468.468,0,0,0,.113-.488L9.177,37.381Zm2.206,6.084L4.207,38.417l1.6-1.6,2.927,1.006,1.007,2.928Z" transform="translate(-2.041 -20.517)" fill="#1a67b3"/>
    </g>
  </g>
</svg>
