<svg id="Grupo_8467" data-name="Grupo 8467" xmlns="http://www.w3.org/2000/svg" xmlns:xlink="http://www.w3.org/1999/xlink" width="23.711" height="24" viewBox="0 0 23.711 24">
  <defs>
    <clipPath id="clip-path">
      <rect id="Rectángulo_4983" data-name="Rectángulo 4983" width="23.711" height="24" fill="#1a67b3"/>
    </clipPath>
  </defs>
  <g id="Grupo_8467-2" data-name="Grupo 8467" clip-path="url(#clip-path)">
    <path id="Trazado_8825" data-name="Trazado 8825" d="M103.727,248.851a.361.361,0,0,1-.255-.616l2.049-2.049a1.011,1.011,0,0,1,.989-.262,1.431,1.431,0,0,0,1.089-.423l4.079-4.122a.189.189,0,0,0-.016-.278.2.2,0,0,0-.26.023l-1.571,1.59a.473.473,0,0,1-.336.141h0a.473.473,0,0,1-.335-.138l-.051-.051a.476.476,0,0,1,0-.673l2.493-2.521a.26.26,0,0,0,0-.367.258.258,0,0,0-.183-.074h0a.258.258,0,0,0-.183.076l-2.493,2.521a.473.473,0,0,1-.336.141h0a.476.476,0,0,1-.338-.811l3.034-3.067a.259.259,0,0,0-.185-.442h0a.258.258,0,0,0-.183.076l-3.034,3.067a.476.476,0,0,1-.677-.67l2.514-2.542a.26.26,0,0,0,0-.367.267.267,0,0,0-.184-.074.258.258,0,0,0-.183.076l-3.91,3.951a.361.361,0,0,1-.6-.151l-.263-.883a.645.645,0,0,1-.017-.472l.367-1.033a.26.26,0,0,0-.49-.174l-.485,1.365a.359.359,0,0,1-.025.055.181.181,0,0,0-.024.1c0,.009,0,.019,0,.028-.035,1.393-.048,2.962-.008,3.216,0,.009,0,.018,0,.027a1.044,1.044,0,0,1-.29.875l-4.535,4.552a.361.361,0,1,1-.511-.509l4.534-4.552a.312.312,0,0,0,.081-.144s0-.009,0-.013l0-.136c-.066-.509-.012-2.819,0-3.323a.9.9,0,0,1,.1-.442l.476-1.34a.982.982,0,0,1,1.85.658l-.357,1q.006.014.01.029l.1.325,3.481-3.518a.975.975,0,0,1,.693-.29h.005a.979.979,0,0,1,.948.728.982.982,0,0,1,1.37,1.394.973.973,0,0,1,.444.252.983.983,0,0,1,.007,1.388l-.374.378a.9.9,0,0,1,.383.183.911.911,0,0,1,.073,1.345l-4.079,4.122a2.108,2.108,0,0,1-1.8.61.29.29,0,0,0-.283.075l-2.05,2.05a.36.36,0,0,1-.255.106" transform="translate(-93.534 -224.851)" fill="#1a67b3"/>
    <path id="Trazado_8826" data-name="Trazado 8826" d="M293.007,239.176a1.367,1.367,0,0,1-.97-.4.361.361,0,0,1,.51-.51.65.65,0,0,0,.918,0l7.187-7.187a.65.65,0,0,0,0-.918l-2.489-2.489a.361.361,0,0,1,.51-.51l2.489,2.489a1.371,1.371,0,0,1,0,1.939l-7.187,7.187a1.367,1.367,0,0,1-.97.4" transform="translate(-277.882 -216.127)" fill="#1a67b3"/>
    <path id="Trazado_8827" data-name="Trazado 8827" d="M295.152,125.744a.36.36,0,0,1-.255-.106l-1.431-1.431a.65.65,0,0,0-.918,0,.361.361,0,0,1-.51-.51,1.373,1.373,0,0,1,1.939,0l1.431,1.431a.361.361,0,0,1-.255.616" transform="translate(-277.882 -117.363)" fill="#1a67b3"/>
    <path id="Trazado_8828" data-name="Trazado 8828" d="M203.321,181.611a.361.361,0,0,1-.255-.616l1.9-1.9a.361.361,0,0,1,.51.51l-1.9,1.9a.36.36,0,0,1-.255.106" transform="translate(-193.193 -170.378)" fill="#1a67b3"/>
    <path id="Trazado_8829" data-name="Trazado 8829" d="M157.85,324.089a.36.36,0,0,1-.255-.106l-.631-.631a.361.361,0,1,1,.51-.51l.631.631a.361.361,0,0,1-.255.616" transform="translate(-149.309 -307.205)" fill="#1a67b3"/>
    <path id="Trazado_8830" data-name="Trazado 8830" d="M86.289,17.248a.36.36,0,0,1-.332-.22,5.007,5.007,0,0,1,.006-3.626.361.361,0,0,1,.44-.2l.541.172.068-.216-3.438-1.091a1.6,1.6,0,0,0-1.229.105l-.529.274.133.063a2.3,2.3,0,0,1,1.106,1.84l.74.235.18-.361.014-.026a.9.9,0,0,1,.525-.4l.545-.188a.361.361,0,0,1,.235.682l-.555.191-.023.007a.185.185,0,0,0-.1.074l-.309.621a.361.361,0,0,1-.432.183l-1.269-.4a.361.361,0,0,1-.252-.339,1.714,1.714,0,0,0-.71-1.463l-.791-.375a.361.361,0,0,1-.011-.647l1.175-.609a2.317,2.317,0,0,1,1.779-.152l3.489,1.107a.669.669,0,0,1,.435.84l-.1.317a.669.669,0,0,1-.84.435l-.266-.084a4.447,4.447,0,0,0,.111,2.756.361.361,0,0,1-.333.5" transform="translate(-76.764 -10.725)" fill="#1a67b3"/>
    <path id="Trazado_8831" data-name="Trazado 8831" d="M104.183,74.812a.689.689,0,0,1-.209-.032l-1.353-.429h0a.691.691,0,0,1-.45-.868l.154-.484a.691.691,0,0,1,.868-.45l1.353.429a.692.692,0,0,1,.45.868l-.154.484a.692.692,0,0,1-.659.482m.01-.72h0Zm-1.323-.42,1.294.411.135-.425L103,73.246Z" transform="translate(-97.224 -69.026)" fill="#1a67b3"/>
    <path id="Trazado_8832" data-name="Trazado 8832" d="M6.1,107.618a.94.94,0,0,1-.285-.044L.659,105.938a.944.944,0,0,1-.614-1.185l1.839-5.8a1.249,1.249,0,0,1,.423-.61A6.263,6.263,0,0,0,4.067,96.2a.933.933,0,0,1,.424-.435l.757-.382a.361.361,0,1,1,.326.644l-.757.382a.208.208,0,0,0-.1.1,6.887,6.887,0,0,1-1.97,2.414.53.53,0,0,0-.179.259l-1.839,5.8a.222.222,0,0,0,.144.279l5.154,1.635a.222.222,0,0,0,.279-.145l1.734-5.466a.541.541,0,0,0-.038-.414c-.131-.254-.255-.488-.365-.695-.705-1.333-1.06-2-.644-2.857.074-.153.092-.26.053-.319l-.4-.6a.361.361,0,0,1,.6-.4l.4.6a1,1,0,0,1-.006,1.034c-.245.5-.071.873.633,2.2.11.208.235.444.368.7a1.258,1.258,0,0,1,.085.964L7,106.959a.946.946,0,0,1-.9.659" transform="translate(0 -90.752)" fill="#1a67b3"/>
    <path id="Trazado_8833" data-name="Trazado 8833" d="M55.754,203.794a.358.358,0,0,1-.109-.017l-3.568-1.132a1.1,1.1,0,0,1-.662-.585,1.213,1.213,0,0,1-.056-.889l.789-2.486a1.161,1.161,0,0,1,1.436-.79l3.568,1.132a.361.361,0,0,1-.218.688l-3.568-1.132a.44.44,0,0,0-.53.32l-.789,2.486a.493.493,0,0,0,.02.361.381.381,0,0,0,.228.205l3.568,1.132a.361.361,0,0,1-.109.705" transform="translate(-48.832 -188.324)" fill="#1a67b3"/>
    <path id="Trazado_8834" data-name="Trazado 8834" d="M250.369,60.3a.36.36,0,0,1-.109-.017l-3.5-1.112a.361.361,0,1,1,.218-.688l3.5,1.112a.361.361,0,0,1-.109.705" transform="translate(-234.642 -55.654)" fill="#1a67b3"/>
    <path id="Trazado_8835" data-name="Trazado 8835" d="M238.888,20.591a.361.361,0,0,1-.043-.719l3.8-.466a.361.361,0,0,1,.088.717l-3.8.466-.044,0" transform="translate(-227.049 -18.469)" fill="#1a67b3"/>
    <path id="Trazado_8836" data-name="Trazado 8836" d="M227.17,78.53a.36.36,0,0,1-.27-.121l-1.247-1.4a.361.361,0,0,1,.539-.48l1.247,1.4a.361.361,0,0,1-.269.6" transform="translate(-214.707 -72.731)" fill="#1a67b3"/>
    <path id="Trazado_8837" data-name="Trazado 8837" d="M350.677,9.456a.361.361,0,1,1,0-.722,1.256,1.256,0,0,0,.741-2.269.361.361,0,0,1,.146-.646.759.759,0,0,0,.278-1.377A.361.361,0,0,1,351.71,4a1.257,1.257,0,0,0-.979-1.731.361.361,0,0,1-.31-.353.759.759,0,0,0-1.321-.5.361.361,0,0,1-.58-.063,1.256,1.256,0,0,0-2.049-.185A.361.361,0,0,1,345.919.7,1.977,1.977,0,0,1,348.9.656a1.48,1.48,0,0,1,2.208.96,1.98,1.98,0,0,1,1.355,2.407,1.481,1.481,0,0,1-.2,2.272,1.976,1.976,0,0,1-1.583,3.161" transform="translate(-329.191)" fill="#1a67b3"/>
    <path id="Trazado_8838" data-name="Trazado 8838" d="M378.52,192.794a.361.361,0,0,1-.188-.669,1.393,1.393,0,0,0,.441-.429.361.361,0,0,1,.487-.114.759.759,0,0,0,.9-.091.361.361,0,1,1,.485.535,1.481,1.481,0,0,1-1.452.312,2.117,2.117,0,0,1-.482.4.359.359,0,0,1-.188.053" transform="translate(-359.96 -182.187)" fill="#1a67b3"/>
    <path id="Trazado_8839" data-name="Trazado 8839" d="M275.814,171.043a.359.359,0,0,1-.2-.059,2.119,2.119,0,0,1-.414-.356,1.883,1.883,0,0,1-2.71-1.691.361.361,0,1,1,.722,0,1.161,1.161,0,0,0,1.16,1.16,1.149,1.149,0,0,0,.7-.235.361.361,0,0,1,.523.1,1.394,1.394,0,0,0,.414.421.361.361,0,0,1-.2.663" transform="translate(-259.38 -160.464)" fill="#1a67b3"/>
    <path id="Trazado_8840" data-name="Trazado 8840" d="M400.914,86.19a1.57,1.57,0,0,1-.438-.063.361.361,0,1,1,.2-.693.838.838,0,0,0,.81-1.412.361.361,0,0,1,.5-.524,1.56,1.56,0,0,1-1.07,2.692" transform="translate(-380.956 -79.386)" fill="#1a67b3"/>
    <path id="Trazado_8841" data-name="Trazado 8841" d="M406.165,128.3a.361.361,0,0,1-.155-.687.633.633,0,0,0,.3-.844.361.361,0,1,1,.652-.309,1.355,1.355,0,0,1-.645,1.805.359.359,0,0,1-.154.035" transform="translate(-386.275 -120.179)" fill="#1a67b3"/>
  </g>
</svg>
