<svg id="Grupo_8472" data-name="Grupo 8472" xmlns="http://www.w3.org/2000/svg" xmlns:xlink="http://www.w3.org/1999/xlink" width="47.69" height="24" viewBox="0 0 47.69 24">
  <defs>
    <clipPath id="clip-path">
      <rect id="Rectángulo_4987" data-name="Rectángulo 4987" width="47.69" height="24" fill="#1a67b3"/>
    </clipPath>
  </defs>
  <g id="Grupo_8472-2" data-name="Grupo 8472" clip-path="url(#clip-path)">
    <path id="Trazado_8877" data-name="Trazado 8877" d="M842.419,184.175v-4.2l-5.943-6.536H832.2v.666h3.983l5.24,5.764h-5.768a2.221,2.221,0,0,1-.833-.135,1.034,1.034,0,0,1-.328-.2.819.819,0,0,1-.141-.175.9.9,0,0,1-.106-.272,1.057,1.057,0,0,1-.024-.224c0-.03,0-.053,0-.067v-.014h0l0-.022v-2.3h-.666v2.257a1.4,1.4,0,0,0-.007.149,1.708,1.708,0,0,0,.06.449,1.545,1.545,0,0,0,.188.425,1.489,1.489,0,0,0,.268.312,1.781,1.781,0,0,0,.64.356,3.047,3.047,0,0,0,.943.132H841.6v-.47l.153.168v3.978s0,.014,0,.035a1.542,1.542,0,0,1-.059.4,1.662,1.662,0,0,1-.205.456,1.733,1.733,0,0,1-.309.356,2.4,2.4,0,0,1-.84.464,4.815,4.815,0,0,1-1.374.221q-.039-.126-.09-.247a2.766,2.766,0,0,0-5.187.249h-2.055v.666h1.934c0,.054-.005.107-.005.161a2.765,2.765,0,1,0,5.531,0c0-.057,0-.113-.006-.169a5.047,5.047,0,0,0,1.705-.341,2.89,2.89,0,0,0,.887-.56,2.374,2.374,0,0,0,.4-.5,2.332,2.332,0,0,0,.282-.7,2.157,2.157,0,0,0,.054-.465c0-.032,0-.055,0-.071m-4.155,3.619a2.109,2.109,0,0,1-.761.924,2.1,2.1,0,0,1-1.991.194,2.1,2.1,0,0,1-.357-3.676,2.1,2.1,0,0,1,1.991-.194,2.109,2.109,0,0,1,.924.761,2.1,2.1,0,0,1,.194,1.991" transform="translate(-794.731 -165.743)" fill="#1a67b3"/>
    <path id="Trazado_8878" data-name="Trazado 8878" d="M398.621,19.911l.019-.054V0h-20.2l0,.328s-.062,4.082-.124,8.386c-.031,2.152-.062,4.36-.085,6.142-.012.891-.021,1.675-.028,2.293s-.011,1.068-.011,1.294a2.963,2.963,0,0,0,.231,1.207,2.159,2.159,0,0,0,.385.593,2.027,2.027,0,0,0,.623.46,1.535,1.535,0,0,0,.326.116l.033.007h1.05a2.765,2.765,0,1,0,5.47,0h9.53a7.367,7.367,0,0,0,1.389-.114,3.483,3.483,0,0,0,.669-.193,1.652,1.652,0,0,0,.556-.352.733.733,0,0,0,.174-.255M391.111,7.022a.221.221,0,0,1-.015.024.306.306,0,0,1-.052.054.656.656,0,0,1-.171.1,1.788,1.788,0,0,1-.425.1,4.105,4.105,0,0,1-.534.031,7.844,7.844,0,0,1-.945-.064c-.129-.016-.236-.032-.31-.044l-.085-.014-.021,0h-.006l-.17-.032-.124.121a.23.23,0,0,1-.051.037.476.476,0,0,1-.135.046,1.075,1.075,0,0,1-.209.018,2.822,2.822,0,0,1-.638-.09,7.15,7.15,0,0,1-.968-.321c-.1-.039-.183-.076-.252-.107V.666h5.112ZM385.5,22.052a2.109,2.109,0,0,1-.761.924,2.1,2.1,0,0,1-1.991.194,2.1,2.1,0,0,1-.357-3.676,2.1,2.1,0,0,1,1.991-.194,2.1,2.1,0,0,1,1.118,2.752m12.4-2.293a1.725,1.725,0,0,1-.6.254,6.054,6.054,0,0,1-1.466.148h-9.717v0a2.766,2.766,0,0,0-5.1,0h-1.16a1.076,1.076,0,0,1-.141-.054,1.345,1.345,0,0,1-.259-.159,1.427,1.427,0,0,1-.406-.505,2.238,2.238,0,0,1-.2-1c0-.22,0-.67.011-1.287.024-2.159.083-6.364.136-10.029.027-1.832.052-3.53.07-4.769.009-.62.017-1.125.022-1.475q0-.122,0-.218h6.239V7.3l.187.091c.007,0,.341.167.8.332a7.072,7.072,0,0,0,.747.23,3.458,3.458,0,0,0,.794.109,1.6,1.6,0,0,0,.45-.058,1.07,1.07,0,0,0,.215-.088l.049-.029c.079.013.187.029.314.045A8.505,8.505,0,0,0,389.913,8a4.945,4.945,0,0,0,.542-.028,3.065,3.065,0,0,0,.395-.068,1.648,1.648,0,0,0,.538-.227,1.022,1.022,0,0,0,.222-.2.883.883,0,0,0,.151-.278l.017-.05V.666h6.2V19.7a.585.585,0,0,1-.07.06" transform="translate(-361.404)" fill="#1a67b3"/>
    <path id="Trazado_8879" data-name="Trazado 8879" d="M428.371,329.009a1.444,1.444,0,1,0,.524.636,1.441,1.441,0,0,0-.524-.636m-.09,1.5a.784.784,0,0,1-.283.344.782.782,0,0,1-.74.072.785.785,0,0,1-.344-.283.782.782,0,0,1-.072-.74.785.785,0,0,1,.283-.344.782.782,0,0,1,.74-.072.785.785,0,0,1,.344.283.782.782,0,0,1,.072.74" transform="translate(-407.207 -314.173)" fill="#1a67b3"/>
    <path id="Trazado_8880" data-name="Trazado 8880" d="M507.514,329.009a1.444,1.444,0,1,0,.523.636,1.441,1.441,0,0,0-.523-.636m-.09,1.5a.784.784,0,0,1-.283.344.782.782,0,0,1-.74.072.785.785,0,0,1-.344-.283.782.782,0,0,1-.072-.74.785.785,0,0,1,.283-.344.782.782,0,0,1,.74-.072.785.785,0,0,1,.344.283.782.782,0,0,1,.072.74" transform="translate(-482.838 -314.173)" fill="#1a67b3"/>
    <path id="Trazado_8881" data-name="Trazado 8881" d="M1003,360.81a.333.333,0,0,0,0-.666h-1.546a.333.333,0,1,0,0,.666Z" transform="translate(-956.696 -344.163)" fill="#1a67b3"/>
    <path id="Trazado_8882" data-name="Trazado 8882" d="M14.761,163.755l-.005,0,.013-.039L11.288,162.5l-.047-5.289-.005,0,.013-.039-4.013-1.4-3.646,1.59-.049-.02v.041l-.026.011.026.059v4.939L.074,163.906l-.049-.02v.041L0,163.938.026,164v5.591l4.041,1.474v-.047l3.1-1.388,3.935,1.435v-.047l3.708-1.66ZM10.767,165.4l-2.749-1.123,2.775-1.242,3.092,1.08Zm-3.706,3.545L4.212,170.22l.119-4.347,2.73-1.124Zm-2.854-10.61,2.71,1.107v3.992l-2.71-.947Zm3.522,5.3.118-4.306,2.736-1.127.037,4.172Zm-.466-7.147,3.1,1.084-3.119,1.284-2.8-1.142Zm-3.628,6.591,3.039,1.108L3.732,165.4l-2.8-1.142ZM3.4,170.11l-2.71-.988v-4.245l2.71,1.107Zm7.036,0-2.664-.972-.038-4.259,2.7,1.1Zm.811.11.119-4.347,2.736-1.127.037,4.18Z" transform="translate(0 -148.861)" fill="#1a67b3"/>
  </g>
</svg>
