<?xml version="1.0" encoding="UTF-8"?><svg xmlns="http://www.w3.org/2000/svg" xmlns:xlink="http://www.w3.org/1999/xlink" viewBox="0 0 920.64 553.24"><defs><style>.e{fill:url(#d);}.f{opacity:.65;}.f,.g{mix-blend-mode:overlay;}.h,.g{fill:#001d3d;}.i{fill:#f4f4f4;}.j{fill:#fec89a;}.k{fill:#dc2f02;}.l{isolation:isolate;}</style><linearGradient id="d" x1="365.27" y1="454.58" x2="365.27" y2="127.38" gradientTransform="matrix(1, 0, 0, 1, 0, 0)" gradientUnits="userSpaceOnUse"><stop offset="0" stop-color="#1a67b3"/><stop offset=".2" stop-color="#1762ac"/><stop offset=".48" stop-color="#11569a"/><stop offset=".8" stop-color="#07437c"/><stop offset="1" stop-color="#003566"/></linearGradient></defs><g class="l"><g id="a"/><g id="b"><g id="c"><g><path class="h" d="M124.44,553.24c-17.12,0-33.22-3.41-48.29-10.22-15.07-6.81-28.31-16.25-39.7-28.31-11.39-12.06-20.32-26.01-26.77-41.87-6.45-15.85-9.68-32.83-9.68-50.92s3.22-35.24,9.68-51.1c6.45-15.85,15.37-29.78,26.77-41.78,11.4-12,24.63-21.4,39.7-28.22,15.07-6.81,31.17-10.22,48.29-10.22,20.5,0,39.37,4.73,56.61,14.2,17.24,9.47,31.53,22.1,42.87,37.89l-39.43,21.16c-7.12-8.8-15.95-15.85-26.5-21.16-10.55-5.3-21.74-7.96-33.55-7.96-11.1,0-21.52,2.26-31.29,6.78-9.77,4.52-18.33,10.79-25.68,18.81-7.36,8.02-13.08,17.3-17.18,27.85-4.1,10.55-6.15,21.79-6.15,33.73s2.08,23.33,6.24,33.82c4.16,10.49,9.92,19.75,17.27,27.76,7.35,8.02,15.89,14.29,25.59,18.81,9.71,4.52,20.11,6.78,31.2,6.78,12.06,0,23.3-2.68,33.73-8.05,10.43-5.36,19.2-12.45,26.32-21.25l39.43,21.34c-11.34,15.68-25.62,28.28-42.87,37.8-17.25,9.53-36.11,14.29-56.61,14.29Z"/><path class="k" d="M364.46,553.24c-16.64,0-31.81-4.28-45.49-12.84-13.69-8.56-24.6-20.05-32.74-34.46-8.14-14.41-12.21-30.36-12.21-47.84,0-13.26,2.35-25.65,7.05-37.17,4.7-11.51,11.18-21.64,19.44-30.39,8.26-8.74,17.88-15.58,28.85-20.53,10.97-4.94,22.67-7.42,35.09-7.42,16.64,0,31.8,4.28,45.49,12.84,13.68,8.56,24.6,20.08,32.74,34.55,8.14,14.47,12.21,30.51,12.21,48.11,0,13.14-2.35,25.44-7.05,36.9-4.7,11.46-11.19,21.55-19.44,30.3-8.26,8.74-17.85,15.59-28.76,20.53-10.91,4.94-22.64,7.42-35.18,7.42Zm0-44.13c8.8,0,16.7-2.35,23.69-7.05,6.99-4.7,12.51-10.91,16.55-18.63,4.04-7.72,6.06-16.16,6.06-25.32s-2.08-18-6.24-25.77c-4.16-7.78-9.77-13.99-16.82-18.63-7.05-4.64-14.8-6.96-23.24-6.96s-16.52,2.35-23.51,7.05c-6.99,4.7-12.54,10.97-16.64,18.81-4.1,7.84-6.15,16.34-6.15,25.5s2.11,18.15,6.33,25.86c4.22,7.72,9.86,13.84,16.91,18.36,7.05,4.52,14.74,6.78,23.06,6.78Z"/><path class="h" d="M516.75,548.53v-253.22h158.81v44.13h-114.67v51.37h90.98v44.13h-90.98v69.46h114.67v44.13h-158.81Z"/><path class="h" d="M733.8,548.53l66.2-90.8-65.66-90.26h54.44l38.34,52.63,38.53-52.63h54.44l-65.66,90.26,66.2,90.8h-54.44l-39.07-53.54-38.89,53.54h-54.44Z"/><g><g><path class="j" d="M205.95,134.52l-2.47,27.64,1.98,18.21,29.77,25.32s87.1,33.73,158.17,14.93c71.06-18.8,113.92-74.11,113.92-74.11l15.63-20.61-5.49-20.04-169.41,32.91-142.09-4.25Z"/><path class="e" d="M369.95,449.76l78.67-114.71,41.32-68.35,20.91-37.74,11.26-38.65,2.98-33.43-3.12-29.49s-56.77,86.63-157.51,95.16c-97.6,8.26-159-42.17-159-42.17,0,0,12.42,63.66,59.52,130.14,47.11,66.48,84.45,126.8,84.45,126.8l14.99,17.27,5.54-4.82Z"/><path class="i" d="M205.63,149.53s195.46,21.01,314.81-40.06l-12.14-21.43S463.61-2.72,357.21,3.2c-117.18,6.52-145.8,109.47-145.8,109.47,0,0-7.16,14.83-5.78,36.86Z"/><path class="g" d="M390.07,222.37s18.28-39.7,1.92-76.4l-21.17,2.97,11.43,15.99s14.86,31.49,7.83,57.44Z"/><g class="f"><path class="h" d="M394.81,220.19c-4.86,19.04-17.76,34.82-31.6,48.2-1.95,1.84-3.96,3.62-5.92,5.42,1.57-2.17,3.17-4.3,4.69-6.48,4.45-6.45,8.64-13.36,12.01-20.41,4.33-9.21,7.58-18.67,8-28.83l12.83,2.11h0Z"/></g><path class="g" d="M357.16,6.13s108.84,12.17,125.65,118.53l31.97-13.37S479.97-7.69,357.16,6.13Z"/><path class="g" d="M357.16,6.13s108.84,12.17,125.65,118.53l31.97-13.37S479.97-7.69,357.16,6.13Z"/><path class="h" d="M515.22,95.99c-12.4-28.08-33.09-51.96-59.13-68.89C430.8,10.67,400.46,.81,367.78,.06v-.06h-2.97c-.18,0-.3,.01-.35,.01-.05,0-.17,0-.35,0h-2.97V.07c-43.9,1.01-83.57,18.45-112.45,46.17-14.77,14.17-26.72,31.03-34.98,49.75-8.26,18.72-12.83,39.3-12.83,60.88,0,14.25,2.06,28.94,5.48,42.66,3.42,13.69,8.18,26.4,13.67,36.76,6.58,14.05,17.25,33.1,29.93,54.26,19.05,31.77,42.65,68.27,63.68,99.34,10.51,15.54,20.38,29.71,28.72,41.27,4.17,5.78,7.96,10.9,11.26,15.22,3.3,4.32,6.11,7.82,8.36,10.39h0c.25,.29,.58,.57,1,.79,.42,.22,.94,.36,1.48,.36,.52,0,1.05-.14,1.47-.35,.43-.22,.76-.5,1.01-.79h0c2.76-3.21,6.61-8.14,11.36-14.48,8.29-11.09,19.27-26.47,31.43-44.07,18.23-26.4,39.12-57.79,57.54-87.12,9.21-14.67,17.8-28.82,25.14-41.58,7.34-12.77,13.42-24.14,17.63-33.3h0c4.5-9.83,8.98-22.52,12.36-36.33,3.38-13.81,5.65-28.73,5.65-43.01,0-21.58-4.57-42.17-12.83-60.88Zm.64,18.72c1.3,4.25,2.4,8.58,3.3,12.98-3.58,5.58-17.86,26.55-42.82,47.35-14.38,11.98-32.3,23.91-53.76,32.84-9.55,3.97-19.81,7.35-30.77,9.88,.81-6.35,1.18-12.17,1.18-17.52,0-10.8-1.49-19.64-3.77-26.83-3.42-10.78-8.62-17.81-13.04-22.11-.54-.52-1.06-1-1.56-1.45,87.44-9.61,130.3-29.38,141.24-35.14Zm-296.74-16.33c11.91-26.98,31.83-50,56.94-66.31,25.11-16.32,55.4-25.93,88.06-26.13h.68c43.54,.27,82.88,17.27,111.33,44.58,14.23,13.65,25.72,29.88,33.67,47.86,1.67,3.78,3.17,7.64,4.52,11.57-9.12,4.91-52.82,26.05-145.86,35.6-.33,.02-.38,.04-.49,.05l-.23,.03c-3.47,.35-7,.69-10.61,1.01-32.4,2.86-58.54,3.89-79.36,3.89-26.39,0-44.22-1.65-55.42-3.28-5.6-.82-9.53-1.63-12.05-2.23-1.26-.3-2.16-.55-2.74-.72-.07-.02-.14-.04-.21-.06,1.4-16.14,5.46-31.55,11.77-45.85Zm146.37,52.42l-.16,.36h0l.15-.36h0Zm-158.7,6.07c0-2.56,.07-5.1,.2-7.62,5.92,1.62,26.57,6.2,70.77,6.2,20.98,0,47.26-1.03,79.8-3.91,2.68-.24,5.31-.49,7.92-.74l-.69,.05,.59,.32c.3,.14,1.78,.88,3.81,2.49,3.05,2.42,7.36,6.79,10.94,14.16,3.58,7.38,6.45,17.8,6.45,32.41,0,5.66-.44,11.95-1.43,18.93-11.76,2.28-24.29,3.57-37.61,3.57-39.37,0-85.61-11.25-138.84-41.64-1.22-8.07-1.91-16.24-1.9-24.23Zm315.34,0c0,13.65-2.19,28.16-5.48,41.6-3.29,13.45-7.68,25.84-12,35.28h0c-3.11,6.77-7.34,14.92-12.4,24.02-8.86,15.92-20.25,34.76-32.63,54.37-18.58,29.42-39.41,60.6-57.33,86.44-8.96,12.92-17.2,24.51-24.06,33.87-3.43,4.68-6.52,8.8-9.18,12.26-1.72,2.24-3.27,4.19-4.6,5.83-2.58-3.12-5.81-7.27-9.54-12.27-8.35-11.18-19.23-26.55-31.18-44.05-17.93-26.26-38.3-57.34-56.3-86.39-9-14.52-17.41-28.54-24.62-41.18-7.21-12.64-13.23-23.91-17.44-32.91l-.03-.07-.03-.07c-5.23-9.85-9.88-22.2-13.19-35.49-.93-3.72-1.75-7.53-2.46-11.37,52.47,29.37,98.46,40.44,137.9,40.44,29.44,0,55.21-6.17,77.27-15.42,33.09-13.88,57.82-34.66,74.3-51.97,10.26-10.78,17.32-20.22,21.2-25.83,1.19,7.47,1.81,15.12,1.81,22.92h0Z"/></g><g><path class="h" d="M515.29,125.21c-.17,.28-3.5,5.87-10.65,14.78-10.71,13.37-29.23,33.08-55.35,49.33-13.06,8.13-28.02,15.4-44.88,20.64-16.87,5.24-35.64,8.46-56.43,8.46-19.33,0-40.41-2.79-63.32-9.39-22.91-6.61-50.21-18.7-76.79-34.02l-2.63,16.4c27.57,15.89,50.79,25.79,75.04,32.79,24.25,7,46.84,10.01,67.69,10.01,30.24,0,56.79-6.35,79.47-15.86,17.01-7.13,31.86-16.04,44.55-25.36,19.04-13.99,33.24-28.92,42.75-40.4,9.5-11.49,11.29-16.04,11.46-16.32l-8.38-15.41-2.19,3.86"/><line class="h" x1="515.64" y1="124.71" x2="515.63" y2="124.72"/></g></g></g></g></g></g></svg>